%TF.GenerationSoftware,KiCad,Pcbnew,6.0.2+dfsg-1*%
%TF.CreationDate,2022-06-14T19:44:07-04:00*%
%TF.ProjectId,NanoISP,4e616e6f-4953-4502-9e6b-696361645f70,rev?*%
%TF.SameCoordinates,PX6521e48PY1aa54a0*%
%TF.FileFunction,Copper,L1,Top*%
%TF.FilePolarity,Positive*%
%FSLAX46Y46*%
G04 Gerber Fmt 4.6, Leading zero omitted, Abs format (unit mm)*
G04 Created by KiCad (PCBNEW 6.0.2+dfsg-1) date 2022-06-14 19:44:07*
%MOMM*%
%LPD*%
G01*
G04 APERTURE LIST*
%TA.AperFunction,ComponentPad*%
%ADD10C,1.600000*%
%TD*%
%TA.AperFunction,ComponentPad*%
%ADD11O,1.600000X1.600000*%
%TD*%
%TA.AperFunction,ComponentPad*%
%ADD12C,1.800000*%
%TD*%
%TA.AperFunction,ComponentPad*%
%ADD13R,1.800000X1.800000*%
%TD*%
%TA.AperFunction,ComponentPad*%
%ADD14O,1.700000X1.700000*%
%TD*%
%TA.AperFunction,ComponentPad*%
%ADD15R,1.700000X1.700000*%
%TD*%
%TA.AperFunction,ComponentPad*%
%ADD16R,1.600000X1.600000*%
%TD*%
%TA.AperFunction,ViaPad*%
%ADD17C,1.850000*%
%TD*%
%TA.AperFunction,Conductor*%
%ADD18C,0.800000*%
%TD*%
G04 APERTURE END LIST*
D10*
%TO.P,R1,1*%
%TO.N,Net-(D1-Pad2)*%
X7620000Y-4445000D03*
D11*
%TO.P,R1,2*%
%TO.N,Net-(A1-Pad10)*%
X7620000Y-12065000D03*
%TD*%
D10*
%TO.P,R2,1*%
%TO.N,Net-(D2-Pad2)*%
X13970000Y-4445000D03*
D11*
%TO.P,R2,2*%
%TO.N,Net-(A1-Pad11)*%
X13970000Y-12065000D03*
%TD*%
D10*
%TO.P,R3,1*%
%TO.N,Net-(D3-Pad2)*%
X20320000Y-4445000D03*
D11*
%TO.P,R3,2*%
%TO.N,Net-(A1-Pad12)*%
X20320000Y-12065000D03*
%TD*%
D12*
%TO.P,D3,2,A*%
%TO.N,Net-(D3-Pad2)*%
X27940000Y-7620000D03*
D13*
%TO.P,D3,1,K*%
%TO.N,/GND*%
X27940000Y-10160000D03*
%TD*%
D14*
%TO.P,J1,6,Pin_6*%
%TO.N,/GND*%
X6350000Y-19050000D03*
%TO.P,J1,5,Pin_5*%
%TO.N,Net-(A1-Pad13)*%
X3810000Y-19050000D03*
%TO.P,J1,4,Pin_4*%
%TO.N,Net-(A1-Pad14)*%
X6350000Y-21590000D03*
%TO.P,J1,3,Pin_3*%
%TO.N,Net-(A1-Pad16)*%
X3810000Y-21590000D03*
%TO.P,J1,2,Pin_2*%
%TO.N,Net-(A1-Pad30)*%
X6350000Y-24130000D03*
D15*
%TO.P,J1,1,Pin_1*%
%TO.N,Net-(A1-Pad15)*%
X3810000Y-24130000D03*
%TD*%
D16*
%TO.P,A1,1,D1/TX*%
%TO.N,unconnected-(A1-Pad1)*%
X13970000Y-15240000D03*
D11*
%TO.P,A1,2,D0/RX*%
%TO.N,unconnected-(A1-Pad2)*%
X16510000Y-15240000D03*
%TO.P,A1,3,~{RESET}*%
%TO.N,unconnected-(A1-Pad3)*%
X19050000Y-15240000D03*
%TO.P,A1,4,GND*%
%TO.N,/GND*%
X21590000Y-15240000D03*
%TO.P,A1,5,D2*%
%TO.N,unconnected-(A1-Pad5)*%
X24130000Y-15240000D03*
%TO.P,A1,6,D3*%
%TO.N,unconnected-(A1-Pad6)*%
X26670000Y-15240000D03*
%TO.P,A1,7,D4*%
%TO.N,unconnected-(A1-Pad7)*%
X29210000Y-15240000D03*
%TO.P,A1,8,D5*%
%TO.N,unconnected-(A1-Pad8)*%
X31750000Y-15240000D03*
%TO.P,A1,9,D6*%
%TO.N,unconnected-(A1-Pad9)*%
X34290000Y-15240000D03*
%TO.P,A1,10,D7*%
%TO.N,Net-(A1-Pad10)*%
X36830000Y-15240000D03*
%TO.P,A1,11,D8*%
%TO.N,Net-(A1-Pad11)*%
X39370000Y-15240000D03*
%TO.P,A1,12,D9*%
%TO.N,Net-(A1-Pad12)*%
X41910000Y-15240000D03*
%TO.P,A1,13,D10*%
%TO.N,Net-(A1-Pad13)*%
X44450000Y-15240000D03*
%TO.P,A1,14,D11*%
%TO.N,Net-(A1-Pad14)*%
X46990000Y-15240000D03*
%TO.P,A1,15,D12*%
%TO.N,Net-(A1-Pad15)*%
X49530000Y-15240000D03*
%TO.P,A1,16,D13*%
%TO.N,Net-(A1-Pad16)*%
X49530000Y-30480000D03*
%TO.P,A1,17,3V3*%
%TO.N,unconnected-(A1-Pad17)*%
X46990000Y-30480000D03*
%TO.P,A1,18,AREF*%
%TO.N,unconnected-(A1-Pad18)*%
X44450000Y-30480000D03*
%TO.P,A1,19,A0*%
%TO.N,unconnected-(A1-Pad19)*%
X41910000Y-30480000D03*
%TO.P,A1,20,A1*%
%TO.N,unconnected-(A1-Pad20)*%
X39370000Y-30480000D03*
%TO.P,A1,21,A2*%
%TO.N,unconnected-(A1-Pad21)*%
X36830000Y-30480000D03*
%TO.P,A1,22,A3*%
%TO.N,unconnected-(A1-Pad22)*%
X34290000Y-30480000D03*
%TO.P,A1,23,A4*%
%TO.N,unconnected-(A1-Pad23)*%
X31750000Y-30480000D03*
%TO.P,A1,24,A5*%
%TO.N,unconnected-(A1-Pad24)*%
X29210000Y-30480000D03*
%TO.P,A1,25,A6*%
%TO.N,unconnected-(A1-Pad25)*%
X26670000Y-30480000D03*
%TO.P,A1,26,A7*%
%TO.N,unconnected-(A1-Pad26)*%
X24130000Y-30480000D03*
%TO.P,A1,27,+5V*%
%TO.N,unconnected-(A1-Pad27)*%
X21590000Y-30480000D03*
%TO.P,A1,28,~{RESET}*%
%TO.N,unconnected-(A1-Pad28)*%
X19050000Y-30480000D03*
%TO.P,A1,29,GND*%
%TO.N,/GND*%
X16510000Y-30480000D03*
%TO.P,A1,30,VIN*%
%TO.N,Net-(A1-Pad30)*%
X13970000Y-30480000D03*
%TD*%
D13*
%TO.P,D2,1,K*%
%TO.N,/GND*%
X37465000Y-10160000D03*
D12*
%TO.P,D2,2,A*%
%TO.N,Net-(D2-Pad2)*%
X37465000Y-7620000D03*
%TD*%
%TO.P,D1,2,A*%
%TO.N,Net-(D1-Pad2)*%
X46990000Y-7620000D03*
D13*
%TO.P,D1,1,K*%
%TO.N,/GND*%
X46990000Y-10160000D03*
%TD*%
D17*
%TO.N,/GND*%
X3810000Y-12065000D03*
X5715000Y-15875000D03*
%TO.N,Net-(A1-Pad30)*%
X6350000Y-30355011D03*
X6350000Y-27000500D03*
%TD*%
D18*
%TO.N,/GND*%
X6350000Y-19050000D02*
X6350000Y-16510000D01*
X3810000Y-12065000D02*
X5715000Y-10160000D01*
X6350000Y-16510000D02*
X5715000Y-15875000D01*
X5715000Y-10160000D02*
X27940000Y-10160000D01*
%TO.N,Net-(A1-Pad15)*%
X49530000Y-15240000D02*
X41910000Y-22860000D01*
X41910000Y-22860000D02*
X12717196Y-22860000D01*
X12717196Y-22860000D02*
X7002185Y-28575011D01*
X7002185Y-28575011D02*
X5080011Y-28575011D01*
X5080011Y-28575011D02*
X3810000Y-27305000D01*
X3810000Y-27305000D02*
X3810000Y-24130000D01*
%TO.N,Net-(A1-Pad16)*%
X3810000Y-21590000D02*
X2607919Y-21590000D01*
X2607919Y-21590000D02*
X2310489Y-21887430D01*
X2310489Y-21887430D02*
X2310489Y-29615489D01*
X5715000Y-33020000D02*
X46990000Y-33020000D01*
X2310489Y-29615489D02*
X5715000Y-33020000D01*
X46990000Y-33020000D02*
X49530000Y-30480000D01*
%TO.N,Net-(A1-Pad10)*%
X36830000Y-15240000D02*
X34290000Y-17780000D01*
X7620000Y-13335000D02*
X7620000Y-12065000D01*
X34290000Y-17780000D02*
X12065000Y-17780000D01*
X12065000Y-17780000D02*
X7620000Y-13335000D01*
%TO.N,Net-(A1-Pad13)*%
X44450000Y-15240000D02*
X40005000Y-19685000D01*
X40005000Y-19685000D02*
X12065000Y-19685000D01*
X12065000Y-19685000D02*
X6350000Y-13970000D01*
X6350000Y-13970000D02*
X4762500Y-13970000D01*
X4762500Y-13970000D02*
X3810000Y-14922500D01*
X3810000Y-14922500D02*
X3810000Y-19050000D01*
%TO.N,Net-(A1-Pad11)*%
X39370000Y-15240000D02*
X37920489Y-13790489D01*
X37920489Y-13790489D02*
X15695489Y-13790489D01*
X15695489Y-13790489D02*
X13970000Y-12065000D01*
%TO.N,Net-(A1-Pad12)*%
X20320000Y-12065000D02*
X38735000Y-12065000D01*
X38735000Y-12065000D02*
X41910000Y-15240000D01*
%TO.N,Net-(D2-Pad2)*%
X13970000Y-4445000D02*
X15875000Y-2540000D01*
X32385000Y-2540000D02*
X37465000Y-7620000D01*
X15875000Y-2540000D02*
X32385000Y-2540000D01*
%TO.N,Net-(D1-Pad2)*%
X7620000Y-4445000D02*
X10795000Y-1270000D01*
X10795000Y-1270000D02*
X40640000Y-1270000D01*
X40640000Y-1270000D02*
X46990000Y-7620000D01*
%TO.N,Net-(D3-Pad2)*%
X27940000Y-7620000D02*
X24765000Y-4445000D01*
X24765000Y-4445000D02*
X20320000Y-4445000D01*
%TO.N,Net-(A1-Pad30)*%
X6350000Y-30355011D02*
X6474989Y-30480000D01*
X6474989Y-30480000D02*
X13970000Y-30480000D01*
X6350000Y-27000500D02*
X6350000Y-24130000D01*
%TO.N,Net-(A1-Pad14)*%
X46990000Y-15240000D02*
X40640000Y-21590000D01*
X40640000Y-21590000D02*
X6350000Y-21590000D01*
%TD*%
%TA.AperFunction,Conductor*%
%TO.N,/GND*%
G36*
X10036118Y-528002D02*
G01*
X10082611Y-581658D01*
X10092715Y-651932D01*
X10063221Y-716512D01*
X10057092Y-723095D01*
X7683864Y-3096323D01*
X7621552Y-3130349D01*
X7605754Y-3132748D01*
X7527096Y-3139630D01*
X7397394Y-3150977D01*
X7397389Y-3150978D01*
X7391913Y-3151457D01*
X7386600Y-3152881D01*
X7386598Y-3152881D01*
X7176067Y-3209293D01*
X7176065Y-3209294D01*
X7170757Y-3210716D01*
X7165776Y-3213039D01*
X7165775Y-3213039D01*
X6968238Y-3305151D01*
X6968233Y-3305154D01*
X6963251Y-3307477D01*
X6858389Y-3380902D01*
X6780211Y-3435643D01*
X6780208Y-3435645D01*
X6775700Y-3438802D01*
X6613802Y-3600700D01*
X6610645Y-3605208D01*
X6610643Y-3605211D01*
X6566132Y-3668779D01*
X6482477Y-3788251D01*
X6480154Y-3793233D01*
X6480151Y-3793238D01*
X6424902Y-3911722D01*
X6385716Y-3995757D01*
X6326457Y-4216913D01*
X6306502Y-4445000D01*
X6326457Y-4673087D01*
X6327881Y-4678400D01*
X6327881Y-4678402D01*
X6355991Y-4783307D01*
X6385716Y-4894243D01*
X6388039Y-4899224D01*
X6388039Y-4899225D01*
X6480151Y-5096762D01*
X6480154Y-5096767D01*
X6482477Y-5101749D01*
X6613802Y-5289300D01*
X6775700Y-5451198D01*
X6780208Y-5454355D01*
X6780211Y-5454357D01*
X6858389Y-5509098D01*
X6963251Y-5582523D01*
X6968233Y-5584846D01*
X6968238Y-5584849D01*
X7165775Y-5676961D01*
X7170757Y-5679284D01*
X7176065Y-5680706D01*
X7176067Y-5680707D01*
X7386598Y-5737119D01*
X7386600Y-5737119D01*
X7391913Y-5738543D01*
X7620000Y-5758498D01*
X7848087Y-5738543D01*
X7853400Y-5737119D01*
X7853402Y-5737119D01*
X8063933Y-5680707D01*
X8063935Y-5680706D01*
X8069243Y-5679284D01*
X8074225Y-5676961D01*
X8271762Y-5584849D01*
X8271767Y-5584846D01*
X8276749Y-5582523D01*
X8381611Y-5509098D01*
X8459789Y-5454357D01*
X8459792Y-5454355D01*
X8464300Y-5451198D01*
X8626198Y-5289300D01*
X8757523Y-5101749D01*
X8759846Y-5096767D01*
X8759849Y-5096762D01*
X8851961Y-4899225D01*
X8851961Y-4899224D01*
X8854284Y-4894243D01*
X8884010Y-4783307D01*
X8912119Y-4678402D01*
X8912119Y-4678400D01*
X8913543Y-4673087D01*
X8914022Y-4667611D01*
X8914023Y-4667606D01*
X8932251Y-4459250D01*
X8958114Y-4393131D01*
X8968677Y-4381136D01*
X11134408Y-2215405D01*
X11196720Y-2181379D01*
X11223503Y-2178500D01*
X14647497Y-2178500D01*
X14715618Y-2198502D01*
X14762111Y-2252158D01*
X14772215Y-2322432D01*
X14742721Y-2387012D01*
X14736592Y-2393595D01*
X14033864Y-3096323D01*
X13971552Y-3130349D01*
X13955754Y-3132748D01*
X13877096Y-3139630D01*
X13747394Y-3150977D01*
X13747389Y-3150978D01*
X13741913Y-3151457D01*
X13736600Y-3152881D01*
X13736598Y-3152881D01*
X13526067Y-3209293D01*
X13526065Y-3209294D01*
X13520757Y-3210716D01*
X13515776Y-3213039D01*
X13515775Y-3213039D01*
X13318238Y-3305151D01*
X13318233Y-3305154D01*
X13313251Y-3307477D01*
X13208389Y-3380902D01*
X13130211Y-3435643D01*
X13130208Y-3435645D01*
X13125700Y-3438802D01*
X12963802Y-3600700D01*
X12960645Y-3605208D01*
X12960643Y-3605211D01*
X12916132Y-3668779D01*
X12832477Y-3788251D01*
X12830154Y-3793233D01*
X12830151Y-3793238D01*
X12774902Y-3911722D01*
X12735716Y-3995757D01*
X12676457Y-4216913D01*
X12656502Y-4445000D01*
X12676457Y-4673087D01*
X12677881Y-4678400D01*
X12677881Y-4678402D01*
X12705991Y-4783307D01*
X12735716Y-4894243D01*
X12738039Y-4899224D01*
X12738039Y-4899225D01*
X12830151Y-5096762D01*
X12830154Y-5096767D01*
X12832477Y-5101749D01*
X12963802Y-5289300D01*
X13125700Y-5451198D01*
X13130208Y-5454355D01*
X13130211Y-5454357D01*
X13208389Y-5509098D01*
X13313251Y-5582523D01*
X13318233Y-5584846D01*
X13318238Y-5584849D01*
X13515775Y-5676961D01*
X13520757Y-5679284D01*
X13526065Y-5680706D01*
X13526067Y-5680707D01*
X13736598Y-5737119D01*
X13736600Y-5737119D01*
X13741913Y-5738543D01*
X13970000Y-5758498D01*
X14198087Y-5738543D01*
X14203400Y-5737119D01*
X14203402Y-5737119D01*
X14413933Y-5680707D01*
X14413935Y-5680706D01*
X14419243Y-5679284D01*
X14424225Y-5676961D01*
X14621762Y-5584849D01*
X14621767Y-5584846D01*
X14626749Y-5582523D01*
X14731611Y-5509098D01*
X14809789Y-5454357D01*
X14809792Y-5454355D01*
X14814300Y-5451198D01*
X14976198Y-5289300D01*
X15107523Y-5101749D01*
X15109846Y-5096767D01*
X15109849Y-5096762D01*
X15201961Y-4899225D01*
X15201961Y-4899224D01*
X15204284Y-4894243D01*
X15234010Y-4783307D01*
X15262119Y-4678402D01*
X15262119Y-4678400D01*
X15263543Y-4673087D01*
X15264022Y-4667611D01*
X15264023Y-4667606D01*
X15282251Y-4459250D01*
X15308114Y-4393131D01*
X15318677Y-4381136D01*
X16214408Y-3485405D01*
X16276720Y-3451379D01*
X16303503Y-3448500D01*
X19178330Y-3448500D01*
X19246451Y-3468502D01*
X19292944Y-3522158D01*
X19303048Y-3592432D01*
X19281543Y-3646770D01*
X19182477Y-3788251D01*
X19180154Y-3793233D01*
X19180151Y-3793238D01*
X19124902Y-3911722D01*
X19085716Y-3995757D01*
X19026457Y-4216913D01*
X19006502Y-4445000D01*
X19026457Y-4673087D01*
X19027881Y-4678400D01*
X19027881Y-4678402D01*
X19055991Y-4783307D01*
X19085716Y-4894243D01*
X19088039Y-4899224D01*
X19088039Y-4899225D01*
X19180151Y-5096762D01*
X19180154Y-5096767D01*
X19182477Y-5101749D01*
X19313802Y-5289300D01*
X19475700Y-5451198D01*
X19480208Y-5454355D01*
X19480211Y-5454357D01*
X19558389Y-5509098D01*
X19663251Y-5582523D01*
X19668233Y-5584846D01*
X19668238Y-5584849D01*
X19865775Y-5676961D01*
X19870757Y-5679284D01*
X19876065Y-5680706D01*
X19876067Y-5680707D01*
X20086598Y-5737119D01*
X20086600Y-5737119D01*
X20091913Y-5738543D01*
X20320000Y-5758498D01*
X20548087Y-5738543D01*
X20553400Y-5737119D01*
X20553402Y-5737119D01*
X20763933Y-5680707D01*
X20763935Y-5680706D01*
X20769243Y-5679284D01*
X20774225Y-5676961D01*
X20971762Y-5584849D01*
X20971767Y-5584846D01*
X20976749Y-5582523D01*
X21081611Y-5509098D01*
X21159789Y-5454357D01*
X21159792Y-5454355D01*
X21164300Y-5451198D01*
X21225093Y-5390405D01*
X21287405Y-5356379D01*
X21314188Y-5353500D01*
X24336497Y-5353500D01*
X24404618Y-5373502D01*
X24425592Y-5390405D01*
X26493536Y-7458349D01*
X26527562Y-7520661D01*
X26529727Y-7560834D01*
X26527644Y-7580326D01*
X26527644Y-7580333D01*
X26527095Y-7585469D01*
X26527392Y-7590622D01*
X26527392Y-7590625D01*
X26533067Y-7689041D01*
X26540427Y-7816697D01*
X26541564Y-7821743D01*
X26541565Y-7821749D01*
X26573741Y-7964523D01*
X26591346Y-8042642D01*
X26593288Y-8047424D01*
X26593289Y-8047428D01*
X26676540Y-8252450D01*
X26678484Y-8257237D01*
X26799501Y-8454719D01*
X26802882Y-8458622D01*
X26911653Y-8584191D01*
X26941135Y-8648776D01*
X26931020Y-8719049D01*
X26884519Y-8772697D01*
X26860646Y-8784670D01*
X26801944Y-8806677D01*
X26786351Y-8815214D01*
X26684276Y-8891715D01*
X26671715Y-8904276D01*
X26595214Y-9006351D01*
X26586676Y-9021946D01*
X26541522Y-9142394D01*
X26537895Y-9157649D01*
X26532369Y-9208514D01*
X26532000Y-9215328D01*
X26532000Y-9887885D01*
X26536475Y-9903124D01*
X26537865Y-9904329D01*
X26545548Y-9906000D01*
X29329884Y-9906000D01*
X29345123Y-9901525D01*
X29346328Y-9900135D01*
X29347999Y-9892452D01*
X29347999Y-9215331D01*
X29347629Y-9208510D01*
X29342105Y-9157648D01*
X29338479Y-9142396D01*
X29293324Y-9021946D01*
X29284786Y-9006351D01*
X29208285Y-8904276D01*
X29195724Y-8891715D01*
X29093649Y-8815214D01*
X29078052Y-8806675D01*
X29019415Y-8784693D01*
X28962650Y-8742052D01*
X28937950Y-8675490D01*
X28953157Y-8606141D01*
X28974703Y-8577461D01*
X29012641Y-8539654D01*
X29016303Y-8536005D01*
X29151458Y-8347917D01*
X29198641Y-8252450D01*
X29251784Y-8144922D01*
X29251785Y-8144920D01*
X29254078Y-8140280D01*
X29321408Y-7918671D01*
X29351640Y-7689041D01*
X29353327Y-7620000D01*
X29340037Y-7458349D01*
X29334773Y-7394318D01*
X29334772Y-7394312D01*
X29334349Y-7389167D01*
X29277925Y-7164533D01*
X29185570Y-6952131D01*
X29059764Y-6757665D01*
X28903887Y-6586358D01*
X28899836Y-6583159D01*
X28899832Y-6583155D01*
X28726177Y-6446011D01*
X28726172Y-6446008D01*
X28722123Y-6442810D01*
X28717607Y-6440317D01*
X28717604Y-6440315D01*
X28523879Y-6333373D01*
X28523875Y-6333371D01*
X28519355Y-6330876D01*
X28514486Y-6329152D01*
X28514482Y-6329150D01*
X28305903Y-6255288D01*
X28305899Y-6255287D01*
X28301028Y-6253562D01*
X28295935Y-6252655D01*
X28295932Y-6252654D01*
X28078095Y-6213851D01*
X28078089Y-6213850D01*
X28073006Y-6212945D01*
X27865888Y-6210415D01*
X27798017Y-6189582D01*
X27778332Y-6173519D01*
X25464981Y-3860168D01*
X25452140Y-3845135D01*
X25447746Y-3839087D01*
X25447745Y-3839086D01*
X25443866Y-3833747D01*
X25393041Y-3787984D01*
X25388256Y-3783443D01*
X25373741Y-3768928D01*
X25366282Y-3762888D01*
X25357784Y-3756006D01*
X25352769Y-3751722D01*
X25306855Y-3710381D01*
X25306850Y-3710377D01*
X25301944Y-3705960D01*
X25296228Y-3702660D01*
X25296224Y-3702657D01*
X25289763Y-3698927D01*
X25273466Y-3687727D01*
X25267658Y-3683024D01*
X25262530Y-3678871D01*
X25261853Y-3678526D01*
X25217029Y-3626293D01*
X25207262Y-3555971D01*
X25237064Y-3491532D01*
X25296973Y-3453435D01*
X25331892Y-3448500D01*
X31956497Y-3448500D01*
X32024618Y-3468502D01*
X32045592Y-3485405D01*
X36018536Y-7458349D01*
X36052562Y-7520661D01*
X36054727Y-7560834D01*
X36052644Y-7580326D01*
X36052644Y-7580333D01*
X36052095Y-7585469D01*
X36052392Y-7590622D01*
X36052392Y-7590625D01*
X36058067Y-7689041D01*
X36065427Y-7816697D01*
X36066564Y-7821743D01*
X36066565Y-7821749D01*
X36098741Y-7964523D01*
X36116346Y-8042642D01*
X36118288Y-8047424D01*
X36118289Y-8047428D01*
X36201540Y-8252450D01*
X36203484Y-8257237D01*
X36324501Y-8454719D01*
X36327882Y-8458622D01*
X36436653Y-8584191D01*
X36466135Y-8648776D01*
X36456020Y-8719049D01*
X36409519Y-8772697D01*
X36385646Y-8784670D01*
X36326944Y-8806677D01*
X36311351Y-8815214D01*
X36209276Y-8891715D01*
X36196715Y-8904276D01*
X36120214Y-9006351D01*
X36111676Y-9021946D01*
X36066522Y-9142394D01*
X36062895Y-9157649D01*
X36057369Y-9208514D01*
X36057000Y-9215328D01*
X36057000Y-9887885D01*
X36061475Y-9903124D01*
X36062865Y-9904329D01*
X36070548Y-9906000D01*
X38854884Y-9906000D01*
X38870123Y-9901525D01*
X38871328Y-9900135D01*
X38872999Y-9892452D01*
X38872999Y-9215331D01*
X38872629Y-9208510D01*
X38867105Y-9157648D01*
X38863479Y-9142396D01*
X38818324Y-9021946D01*
X38809786Y-9006351D01*
X38733285Y-8904276D01*
X38720724Y-8891715D01*
X38618649Y-8815214D01*
X38603052Y-8806675D01*
X38544415Y-8784693D01*
X38487650Y-8742052D01*
X38462950Y-8675490D01*
X38478157Y-8606141D01*
X38499703Y-8577461D01*
X38537641Y-8539654D01*
X38541303Y-8536005D01*
X38676458Y-8347917D01*
X38723641Y-8252450D01*
X38776784Y-8144922D01*
X38776785Y-8144920D01*
X38779078Y-8140280D01*
X38846408Y-7918671D01*
X38876640Y-7689041D01*
X38878327Y-7620000D01*
X38865037Y-7458349D01*
X38859773Y-7394318D01*
X38859772Y-7394312D01*
X38859349Y-7389167D01*
X38802925Y-7164533D01*
X38710570Y-6952131D01*
X38584764Y-6757665D01*
X38428887Y-6586358D01*
X38424836Y-6583159D01*
X38424832Y-6583155D01*
X38251177Y-6446011D01*
X38251172Y-6446008D01*
X38247123Y-6442810D01*
X38242607Y-6440317D01*
X38242604Y-6440315D01*
X38048879Y-6333373D01*
X38048875Y-6333371D01*
X38044355Y-6330876D01*
X38039486Y-6329152D01*
X38039482Y-6329150D01*
X37830903Y-6255288D01*
X37830899Y-6255287D01*
X37826028Y-6253562D01*
X37820935Y-6252655D01*
X37820932Y-6252654D01*
X37603095Y-6213851D01*
X37603089Y-6213850D01*
X37598006Y-6212945D01*
X37390888Y-6210415D01*
X37323017Y-6189582D01*
X37303332Y-6173519D01*
X33523408Y-2393595D01*
X33489382Y-2331283D01*
X33494447Y-2260468D01*
X33536994Y-2203632D01*
X33603514Y-2178821D01*
X33612503Y-2178500D01*
X40211497Y-2178500D01*
X40279618Y-2198502D01*
X40300592Y-2215405D01*
X45543536Y-7458349D01*
X45577562Y-7520661D01*
X45579727Y-7560834D01*
X45577644Y-7580326D01*
X45577644Y-7580333D01*
X45577095Y-7585469D01*
X45577392Y-7590622D01*
X45577392Y-7590625D01*
X45583067Y-7689041D01*
X45590427Y-7816697D01*
X45591564Y-7821743D01*
X45591565Y-7821749D01*
X45623741Y-7964523D01*
X45641346Y-8042642D01*
X45643288Y-8047424D01*
X45643289Y-8047428D01*
X45726540Y-8252450D01*
X45728484Y-8257237D01*
X45849501Y-8454719D01*
X45852882Y-8458622D01*
X45961653Y-8584191D01*
X45991135Y-8648776D01*
X45981020Y-8719049D01*
X45934519Y-8772697D01*
X45910646Y-8784670D01*
X45851944Y-8806677D01*
X45836351Y-8815214D01*
X45734276Y-8891715D01*
X45721715Y-8904276D01*
X45645214Y-9006351D01*
X45636676Y-9021946D01*
X45591522Y-9142394D01*
X45587895Y-9157649D01*
X45582369Y-9208514D01*
X45582000Y-9215328D01*
X45582000Y-9887885D01*
X45586475Y-9903124D01*
X45587865Y-9904329D01*
X45595548Y-9906000D01*
X48379884Y-9906000D01*
X48395123Y-9901525D01*
X48396328Y-9900135D01*
X48397999Y-9892452D01*
X48397999Y-9215331D01*
X48397629Y-9208510D01*
X48392105Y-9157648D01*
X48388479Y-9142396D01*
X48343324Y-9021946D01*
X48334786Y-9006351D01*
X48258285Y-8904276D01*
X48245724Y-8891715D01*
X48143649Y-8815214D01*
X48128052Y-8806675D01*
X48069415Y-8784693D01*
X48012650Y-8742052D01*
X47987950Y-8675490D01*
X48003157Y-8606141D01*
X48024703Y-8577461D01*
X48062641Y-8539654D01*
X48066303Y-8536005D01*
X48201458Y-8347917D01*
X48248641Y-8252450D01*
X48301784Y-8144922D01*
X48301785Y-8144920D01*
X48304078Y-8140280D01*
X48371408Y-7918671D01*
X48401640Y-7689041D01*
X48403327Y-7620000D01*
X48390037Y-7458349D01*
X48384773Y-7394318D01*
X48384772Y-7394312D01*
X48384349Y-7389167D01*
X48327925Y-7164533D01*
X48235570Y-6952131D01*
X48109764Y-6757665D01*
X47953887Y-6586358D01*
X47949836Y-6583159D01*
X47949832Y-6583155D01*
X47776177Y-6446011D01*
X47776172Y-6446008D01*
X47772123Y-6442810D01*
X47767607Y-6440317D01*
X47767604Y-6440315D01*
X47573879Y-6333373D01*
X47573875Y-6333371D01*
X47569355Y-6330876D01*
X47564486Y-6329152D01*
X47564482Y-6329150D01*
X47355903Y-6255288D01*
X47355899Y-6255287D01*
X47351028Y-6253562D01*
X47345935Y-6252655D01*
X47345932Y-6252654D01*
X47128095Y-6213851D01*
X47128089Y-6213850D01*
X47123006Y-6212945D01*
X46915888Y-6210415D01*
X46848017Y-6189582D01*
X46828332Y-6173519D01*
X43829813Y-3175000D01*
X49186526Y-3175000D01*
X49206391Y-3427403D01*
X49207545Y-3432210D01*
X49207546Y-3432216D01*
X49236174Y-3551458D01*
X49265495Y-3673591D01*
X49267388Y-3678162D01*
X49267389Y-3678164D01*
X49342778Y-3860168D01*
X49362384Y-3907502D01*
X49494672Y-4123376D01*
X49659102Y-4315898D01*
X49851624Y-4480328D01*
X50067498Y-4612616D01*
X50072068Y-4614509D01*
X50072072Y-4614511D01*
X50296836Y-4707611D01*
X50301409Y-4709505D01*
X50386032Y-4729821D01*
X50542784Y-4767454D01*
X50542790Y-4767455D01*
X50547597Y-4768609D01*
X50647416Y-4776465D01*
X50734345Y-4783307D01*
X50734352Y-4783307D01*
X50736801Y-4783500D01*
X50863199Y-4783500D01*
X50865648Y-4783307D01*
X50865655Y-4783307D01*
X50952584Y-4776465D01*
X51052403Y-4768609D01*
X51057210Y-4767455D01*
X51057216Y-4767454D01*
X51213968Y-4729821D01*
X51298591Y-4709505D01*
X51303164Y-4707611D01*
X51527928Y-4614511D01*
X51527932Y-4614509D01*
X51532502Y-4612616D01*
X51748376Y-4480328D01*
X51940898Y-4315898D01*
X52105328Y-4123376D01*
X52237616Y-3907502D01*
X52257223Y-3860168D01*
X52332611Y-3678164D01*
X52332612Y-3678162D01*
X52334505Y-3673591D01*
X52363826Y-3551458D01*
X52392454Y-3432216D01*
X52392455Y-3432210D01*
X52393609Y-3427403D01*
X52413474Y-3175000D01*
X52393609Y-2922597D01*
X52334505Y-2676409D01*
X52295682Y-2582681D01*
X52239511Y-2447072D01*
X52239509Y-2447068D01*
X52237616Y-2442498D01*
X52105328Y-2226624D01*
X51940898Y-2034102D01*
X51748376Y-1869672D01*
X51532502Y-1737384D01*
X51527932Y-1735491D01*
X51527928Y-1735489D01*
X51303164Y-1642389D01*
X51303162Y-1642388D01*
X51298591Y-1640495D01*
X51213968Y-1620179D01*
X51057216Y-1582546D01*
X51057210Y-1582545D01*
X51052403Y-1581391D01*
X50952584Y-1573535D01*
X50865655Y-1566693D01*
X50865648Y-1566693D01*
X50863199Y-1566500D01*
X50736801Y-1566500D01*
X50734352Y-1566693D01*
X50734345Y-1566693D01*
X50647416Y-1573535D01*
X50547597Y-1581391D01*
X50542790Y-1582545D01*
X50542784Y-1582546D01*
X50386032Y-1620179D01*
X50301409Y-1640495D01*
X50296838Y-1642388D01*
X50296836Y-1642389D01*
X50072072Y-1735489D01*
X50072068Y-1735491D01*
X50067498Y-1737384D01*
X49851624Y-1869672D01*
X49659102Y-2034102D01*
X49494672Y-2226624D01*
X49362384Y-2442498D01*
X49360491Y-2447068D01*
X49360489Y-2447072D01*
X49304318Y-2582681D01*
X49265495Y-2676409D01*
X49206391Y-2922597D01*
X49186526Y-3175000D01*
X43829813Y-3175000D01*
X41377908Y-723095D01*
X41343882Y-660783D01*
X41348947Y-589968D01*
X41391494Y-533132D01*
X41458014Y-508321D01*
X41467003Y-508000D01*
X51385672Y-508000D01*
X51405057Y-509500D01*
X51419858Y-511805D01*
X51419861Y-511805D01*
X51428730Y-513186D01*
X51444999Y-511059D01*
X51469567Y-510266D01*
X51691985Y-524844D01*
X51708326Y-526995D01*
X51952824Y-575629D01*
X51968743Y-579895D01*
X52204790Y-660022D01*
X52220017Y-666329D01*
X52443592Y-776584D01*
X52457865Y-784825D01*
X52665133Y-923316D01*
X52678210Y-933349D01*
X52865632Y-1097714D01*
X52877286Y-1109368D01*
X53041651Y-1296790D01*
X53051684Y-1309867D01*
X53190175Y-1517135D01*
X53198416Y-1531408D01*
X53308671Y-1754983D01*
X53314978Y-1770210D01*
X53395105Y-2006257D01*
X53399371Y-2022176D01*
X53448005Y-2266673D01*
X53450156Y-2283014D01*
X53464264Y-2498268D01*
X53463239Y-2521304D01*
X53463196Y-2524854D01*
X53461814Y-2533730D01*
X53464274Y-2552539D01*
X53465936Y-2565251D01*
X53467000Y-2581589D01*
X53467000Y-35510672D01*
X53465500Y-35530056D01*
X53461814Y-35553730D01*
X53463941Y-35569999D01*
X53464734Y-35594567D01*
X53450156Y-35816985D01*
X53448005Y-35833326D01*
X53399371Y-36077824D01*
X53395105Y-36093743D01*
X53314978Y-36329790D01*
X53308671Y-36345017D01*
X53198416Y-36568592D01*
X53190175Y-36582865D01*
X53051684Y-36790133D01*
X53041651Y-36803210D01*
X52877286Y-36990632D01*
X52865632Y-37002286D01*
X52722874Y-37127482D01*
X52678210Y-37166651D01*
X52665133Y-37176684D01*
X52457865Y-37315175D01*
X52443592Y-37323416D01*
X52220017Y-37433671D01*
X52204790Y-37439978D01*
X51968743Y-37520105D01*
X51952824Y-37524371D01*
X51708327Y-37573005D01*
X51691986Y-37575156D01*
X51476732Y-37589264D01*
X51453696Y-37588239D01*
X51450146Y-37588196D01*
X51441270Y-37586814D01*
X51409749Y-37590936D01*
X51393411Y-37592000D01*
X2624477Y-37592000D01*
X2590554Y-37587348D01*
X2376225Y-37527432D01*
X2363979Y-37523321D01*
X2145603Y-37437323D01*
X2104030Y-37420951D01*
X2092278Y-37415612D01*
X2022910Y-37379699D01*
X1844175Y-37287165D01*
X1833024Y-37280646D01*
X1599387Y-37127482D01*
X1588962Y-37119856D01*
X1372216Y-36943563D01*
X1362626Y-36934909D01*
X1165091Y-36737374D01*
X1156437Y-36727784D01*
X980144Y-36511038D01*
X972518Y-36500613D01*
X819354Y-36266976D01*
X812835Y-36255825D01*
X684390Y-36007726D01*
X679047Y-35995966D01*
X576679Y-35736021D01*
X572568Y-35723775D01*
X512652Y-35509446D01*
X508000Y-35475523D01*
X508000Y-34925000D01*
X1561526Y-34925000D01*
X1581391Y-35177403D01*
X1640495Y-35423591D01*
X1642388Y-35428162D01*
X1642389Y-35428164D01*
X1712107Y-35596477D01*
X1737384Y-35657502D01*
X1869672Y-35873376D01*
X2034102Y-36065898D01*
X2226624Y-36230328D01*
X2442498Y-36362616D01*
X2447068Y-36364509D01*
X2447072Y-36364511D01*
X2671836Y-36457611D01*
X2676409Y-36459505D01*
X2761032Y-36479821D01*
X2917784Y-36517454D01*
X2917790Y-36517455D01*
X2922597Y-36518609D01*
X3022416Y-36526465D01*
X3109345Y-36533307D01*
X3109352Y-36533307D01*
X3111801Y-36533500D01*
X3238199Y-36533500D01*
X3240648Y-36533307D01*
X3240655Y-36533307D01*
X3327584Y-36526465D01*
X3427403Y-36518609D01*
X3432210Y-36517455D01*
X3432216Y-36517454D01*
X3588968Y-36479821D01*
X3673591Y-36459505D01*
X3678164Y-36457611D01*
X3902928Y-36364511D01*
X3902932Y-36364509D01*
X3907502Y-36362616D01*
X4123376Y-36230328D01*
X4315898Y-36065898D01*
X4480328Y-35873376D01*
X4612616Y-35657502D01*
X4637894Y-35596477D01*
X4707611Y-35428164D01*
X4707612Y-35428162D01*
X4709505Y-35423591D01*
X4768609Y-35177403D01*
X4788474Y-34925000D01*
X49186526Y-34925000D01*
X49206391Y-35177403D01*
X49265495Y-35423591D01*
X49267388Y-35428162D01*
X49267389Y-35428164D01*
X49337107Y-35596477D01*
X49362384Y-35657502D01*
X49494672Y-35873376D01*
X49659102Y-36065898D01*
X49851624Y-36230328D01*
X50067498Y-36362616D01*
X50072068Y-36364509D01*
X50072072Y-36364511D01*
X50296836Y-36457611D01*
X50301409Y-36459505D01*
X50386032Y-36479821D01*
X50542784Y-36517454D01*
X50542790Y-36517455D01*
X50547597Y-36518609D01*
X50647416Y-36526465D01*
X50734345Y-36533307D01*
X50734352Y-36533307D01*
X50736801Y-36533500D01*
X50863199Y-36533500D01*
X50865648Y-36533307D01*
X50865655Y-36533307D01*
X50952584Y-36526465D01*
X51052403Y-36518609D01*
X51057210Y-36517455D01*
X51057216Y-36517454D01*
X51213968Y-36479821D01*
X51298591Y-36459505D01*
X51303164Y-36457611D01*
X51527928Y-36364511D01*
X51527932Y-36364509D01*
X51532502Y-36362616D01*
X51748376Y-36230328D01*
X51940898Y-36065898D01*
X52105328Y-35873376D01*
X52237616Y-35657502D01*
X52262894Y-35596477D01*
X52332611Y-35428164D01*
X52332612Y-35428162D01*
X52334505Y-35423591D01*
X52393609Y-35177403D01*
X52413474Y-34925000D01*
X52393609Y-34672597D01*
X52334505Y-34426409D01*
X52237616Y-34192498D01*
X52105328Y-33976624D01*
X51940898Y-33784102D01*
X51748376Y-33619672D01*
X51532502Y-33487384D01*
X51527932Y-33485491D01*
X51527928Y-33485489D01*
X51303164Y-33392389D01*
X51303162Y-33392388D01*
X51298591Y-33390495D01*
X51213968Y-33370179D01*
X51057216Y-33332546D01*
X51057210Y-33332545D01*
X51052403Y-33331391D01*
X50952584Y-33323535D01*
X50865655Y-33316693D01*
X50865648Y-33316693D01*
X50863199Y-33316500D01*
X50736801Y-33316500D01*
X50734352Y-33316693D01*
X50734345Y-33316693D01*
X50647416Y-33323535D01*
X50547597Y-33331391D01*
X50542790Y-33332545D01*
X50542784Y-33332546D01*
X50386032Y-33370179D01*
X50301409Y-33390495D01*
X50296838Y-33392388D01*
X50296836Y-33392389D01*
X50072072Y-33485489D01*
X50072068Y-33485491D01*
X50067498Y-33487384D01*
X49851624Y-33619672D01*
X49659102Y-33784102D01*
X49494672Y-33976624D01*
X49362384Y-34192498D01*
X49265495Y-34426409D01*
X49206391Y-34672597D01*
X49186526Y-34925000D01*
X4788474Y-34925000D01*
X4768609Y-34672597D01*
X4709505Y-34426409D01*
X4612616Y-34192498D01*
X4480328Y-33976624D01*
X4315898Y-33784102D01*
X4123376Y-33619672D01*
X3907502Y-33487384D01*
X3902932Y-33485491D01*
X3902928Y-33485489D01*
X3678164Y-33392389D01*
X3678162Y-33392388D01*
X3673591Y-33390495D01*
X3588968Y-33370179D01*
X3432216Y-33332546D01*
X3432210Y-33332545D01*
X3427403Y-33331391D01*
X3327584Y-33323535D01*
X3240655Y-33316693D01*
X3240648Y-33316693D01*
X3238199Y-33316500D01*
X3111801Y-33316500D01*
X3109352Y-33316693D01*
X3109345Y-33316693D01*
X3022416Y-33323535D01*
X2922597Y-33331391D01*
X2917790Y-33332545D01*
X2917784Y-33332546D01*
X2761032Y-33370179D01*
X2676409Y-33390495D01*
X2671838Y-33392388D01*
X2671836Y-33392389D01*
X2447072Y-33485489D01*
X2447068Y-33485491D01*
X2442498Y-33487384D01*
X2226624Y-33619672D01*
X2034102Y-33784102D01*
X1869672Y-33976624D01*
X1737384Y-34192498D01*
X1640495Y-34426409D01*
X1581391Y-34672597D01*
X1561526Y-34925000D01*
X508000Y-34925000D01*
X508000Y-29567679D01*
X1398237Y-29567679D01*
X1398582Y-29574266D01*
X1398582Y-29574271D01*
X1401816Y-29635969D01*
X1401989Y-29642563D01*
X1401989Y-29663099D01*
X1402333Y-29666371D01*
X1402333Y-29666373D01*
X1404136Y-29683531D01*
X1404653Y-29690105D01*
X1408232Y-29758392D01*
X1409942Y-29764773D01*
X1409942Y-29764775D01*
X1411872Y-29771980D01*
X1415474Y-29791414D01*
X1416255Y-29798843D01*
X1416257Y-29798852D01*
X1416947Y-29805417D01*
X1438089Y-29870486D01*
X1439958Y-29876794D01*
X1455609Y-29935203D01*
X1457660Y-29942859D01*
X1464048Y-29955396D01*
X1471614Y-29973662D01*
X1475962Y-29987045D01*
X1479265Y-29992767D01*
X1479266Y-29992768D01*
X1510156Y-30046271D01*
X1513303Y-30052066D01*
X1544360Y-30113019D01*
X1548513Y-30118147D01*
X1548514Y-30118149D01*
X1553216Y-30123955D01*
X1564416Y-30140252D01*
X1568146Y-30146713D01*
X1568149Y-30146717D01*
X1571449Y-30152433D01*
X1575866Y-30157339D01*
X1575870Y-30157344D01*
X1617211Y-30203258D01*
X1621495Y-30208273D01*
X1634417Y-30224230D01*
X1648932Y-30238745D01*
X1653473Y-30243530D01*
X1699236Y-30294355D01*
X1704575Y-30298234D01*
X1704576Y-30298235D01*
X1710624Y-30302629D01*
X1725657Y-30315470D01*
X5015019Y-33604832D01*
X5027860Y-33619865D01*
X5036134Y-33631253D01*
X5041043Y-33635673D01*
X5086959Y-33677016D01*
X5091744Y-33681557D01*
X5106259Y-33696072D01*
X5108823Y-33698148D01*
X5122216Y-33708994D01*
X5127231Y-33713278D01*
X5173145Y-33754619D01*
X5173150Y-33754623D01*
X5178056Y-33759040D01*
X5183772Y-33762340D01*
X5183776Y-33762343D01*
X5190237Y-33766073D01*
X5206533Y-33777273D01*
X5217470Y-33786129D01*
X5223348Y-33789124D01*
X5223351Y-33789126D01*
X5278426Y-33817188D01*
X5284223Y-33820336D01*
X5337721Y-33851223D01*
X5343444Y-33854527D01*
X5356826Y-33858875D01*
X5375085Y-33866438D01*
X5387630Y-33872830D01*
X5394000Y-33874537D01*
X5394003Y-33874538D01*
X5433074Y-33885007D01*
X5453712Y-33890537D01*
X5460025Y-33892407D01*
X5525072Y-33913542D01*
X5539075Y-33915014D01*
X5558504Y-33918615D01*
X5572097Y-33922257D01*
X5578694Y-33922603D01*
X5578696Y-33922603D01*
X5640384Y-33925836D01*
X5646958Y-33926353D01*
X5664116Y-33928156D01*
X5664118Y-33928156D01*
X5667390Y-33928500D01*
X5687926Y-33928500D01*
X5694520Y-33928673D01*
X5756218Y-33931907D01*
X5756223Y-33931907D01*
X5762810Y-33932252D01*
X5769326Y-33931220D01*
X5769327Y-33931220D01*
X5776707Y-33930051D01*
X5796417Y-33928500D01*
X46908583Y-33928500D01*
X46928292Y-33930051D01*
X46942190Y-33932252D01*
X46948777Y-33931907D01*
X46948782Y-33931907D01*
X47010480Y-33928673D01*
X47017074Y-33928500D01*
X47037610Y-33928500D01*
X47040882Y-33928156D01*
X47040884Y-33928156D01*
X47058042Y-33926353D01*
X47064616Y-33925836D01*
X47126308Y-33922603D01*
X47126312Y-33922602D01*
X47132903Y-33922257D01*
X47139284Y-33920547D01*
X47139286Y-33920547D01*
X47146491Y-33918617D01*
X47165925Y-33915015D01*
X47173354Y-33914234D01*
X47173363Y-33914232D01*
X47179928Y-33913542D01*
X47244997Y-33892400D01*
X47251299Y-33890533D01*
X47317370Y-33872829D01*
X47329908Y-33866440D01*
X47348174Y-33858875D01*
X47355272Y-33856569D01*
X47355274Y-33856568D01*
X47361556Y-33854527D01*
X47420785Y-33820331D01*
X47426579Y-33817185D01*
X47487530Y-33786129D01*
X47498467Y-33777273D01*
X47514763Y-33766073D01*
X47521224Y-33762343D01*
X47521228Y-33762340D01*
X47526944Y-33759040D01*
X47531850Y-33754623D01*
X47531855Y-33754619D01*
X47577769Y-33713278D01*
X47582784Y-33708994D01*
X47596177Y-33698148D01*
X47598741Y-33696072D01*
X47613256Y-33681557D01*
X47618041Y-33677016D01*
X47663957Y-33635673D01*
X47668866Y-33631253D01*
X47677140Y-33619865D01*
X47689981Y-33604832D01*
X49466136Y-31828677D01*
X49528448Y-31794651D01*
X49544246Y-31792252D01*
X49622904Y-31785370D01*
X49752606Y-31774023D01*
X49752611Y-31774022D01*
X49758087Y-31773543D01*
X49763400Y-31772119D01*
X49763402Y-31772119D01*
X49973933Y-31715707D01*
X49973935Y-31715706D01*
X49979243Y-31714284D01*
X49985235Y-31711490D01*
X50181762Y-31619849D01*
X50181767Y-31619846D01*
X50186749Y-31617523D01*
X50307046Y-31533290D01*
X50369789Y-31489357D01*
X50369792Y-31489355D01*
X50374300Y-31486198D01*
X50536198Y-31324300D01*
X50667523Y-31136749D01*
X50669846Y-31131767D01*
X50669849Y-31131762D01*
X50761961Y-30934225D01*
X50761961Y-30934224D01*
X50764284Y-30929243D01*
X50823543Y-30708087D01*
X50843498Y-30480000D01*
X50823543Y-30251913D01*
X50786326Y-30113019D01*
X50765707Y-30036067D01*
X50765706Y-30036065D01*
X50764284Y-30030757D01*
X50710148Y-29914661D01*
X50669849Y-29828238D01*
X50669846Y-29828233D01*
X50667523Y-29823251D01*
X50555383Y-29663099D01*
X50539357Y-29640211D01*
X50539355Y-29640208D01*
X50536198Y-29635700D01*
X50374300Y-29473802D01*
X50369792Y-29470645D01*
X50369789Y-29470643D01*
X50231330Y-29373693D01*
X50186749Y-29342477D01*
X50181767Y-29340154D01*
X50181762Y-29340151D01*
X49984225Y-29248039D01*
X49984224Y-29248039D01*
X49979243Y-29245716D01*
X49973935Y-29244294D01*
X49973933Y-29244293D01*
X49763402Y-29187881D01*
X49763400Y-29187881D01*
X49758087Y-29186457D01*
X49530000Y-29166502D01*
X49301913Y-29186457D01*
X49296600Y-29187881D01*
X49296598Y-29187881D01*
X49086067Y-29244293D01*
X49086065Y-29244294D01*
X49080757Y-29245716D01*
X49075776Y-29248039D01*
X49075775Y-29248039D01*
X48878238Y-29340151D01*
X48878233Y-29340154D01*
X48873251Y-29342477D01*
X48828670Y-29373693D01*
X48690211Y-29470643D01*
X48690208Y-29470645D01*
X48685700Y-29473802D01*
X48523802Y-29635700D01*
X48520645Y-29640208D01*
X48520643Y-29640211D01*
X48504617Y-29663099D01*
X48392477Y-29823251D01*
X48390154Y-29828233D01*
X48390151Y-29828238D01*
X48374195Y-29862457D01*
X48327278Y-29915742D01*
X48259001Y-29935203D01*
X48191041Y-29914661D01*
X48145805Y-29862457D01*
X48129849Y-29828238D01*
X48129846Y-29828233D01*
X48127523Y-29823251D01*
X48015383Y-29663099D01*
X47999357Y-29640211D01*
X47999355Y-29640208D01*
X47996198Y-29635700D01*
X47834300Y-29473802D01*
X47829792Y-29470645D01*
X47829789Y-29470643D01*
X47691330Y-29373693D01*
X47646749Y-29342477D01*
X47641767Y-29340154D01*
X47641762Y-29340151D01*
X47444225Y-29248039D01*
X47444224Y-29248039D01*
X47439243Y-29245716D01*
X47433935Y-29244294D01*
X47433933Y-29244293D01*
X47223402Y-29187881D01*
X47223400Y-29187881D01*
X47218087Y-29186457D01*
X46990000Y-29166502D01*
X46761913Y-29186457D01*
X46756600Y-29187881D01*
X46756598Y-29187881D01*
X46546067Y-29244293D01*
X46546065Y-29244294D01*
X46540757Y-29245716D01*
X46535776Y-29248039D01*
X46535775Y-29248039D01*
X46338238Y-29340151D01*
X46338233Y-29340154D01*
X46333251Y-29342477D01*
X46288670Y-29373693D01*
X46150211Y-29470643D01*
X46150208Y-29470645D01*
X46145700Y-29473802D01*
X45983802Y-29635700D01*
X45980645Y-29640208D01*
X45980643Y-29640211D01*
X45964617Y-29663099D01*
X45852477Y-29823251D01*
X45850154Y-29828233D01*
X45850151Y-29828238D01*
X45834195Y-29862457D01*
X45787278Y-29915742D01*
X45719001Y-29935203D01*
X45651041Y-29914661D01*
X45605805Y-29862457D01*
X45589849Y-29828238D01*
X45589846Y-29828233D01*
X45587523Y-29823251D01*
X45475383Y-29663099D01*
X45459357Y-29640211D01*
X45459355Y-29640208D01*
X45456198Y-29635700D01*
X45294300Y-29473802D01*
X45289792Y-29470645D01*
X45289789Y-29470643D01*
X45151330Y-29373693D01*
X45106749Y-29342477D01*
X45101767Y-29340154D01*
X45101762Y-29340151D01*
X44904225Y-29248039D01*
X44904224Y-29248039D01*
X44899243Y-29245716D01*
X44893935Y-29244294D01*
X44893933Y-29244293D01*
X44683402Y-29187881D01*
X44683400Y-29187881D01*
X44678087Y-29186457D01*
X44450000Y-29166502D01*
X44221913Y-29186457D01*
X44216600Y-29187881D01*
X44216598Y-29187881D01*
X44006067Y-29244293D01*
X44006065Y-29244294D01*
X44000757Y-29245716D01*
X43995776Y-29248039D01*
X43995775Y-29248039D01*
X43798238Y-29340151D01*
X43798233Y-29340154D01*
X43793251Y-29342477D01*
X43748670Y-29373693D01*
X43610211Y-29470643D01*
X43610208Y-29470645D01*
X43605700Y-29473802D01*
X43443802Y-29635700D01*
X43440645Y-29640208D01*
X43440643Y-29640211D01*
X43424617Y-29663099D01*
X43312477Y-29823251D01*
X43310154Y-29828233D01*
X43310151Y-29828238D01*
X43294195Y-29862457D01*
X43247278Y-29915742D01*
X43179001Y-29935203D01*
X43111041Y-29914661D01*
X43065805Y-29862457D01*
X43049849Y-29828238D01*
X43049846Y-29828233D01*
X43047523Y-29823251D01*
X42935383Y-29663099D01*
X42919357Y-29640211D01*
X42919355Y-29640208D01*
X42916198Y-29635700D01*
X42754300Y-29473802D01*
X42749792Y-29470645D01*
X42749789Y-29470643D01*
X42611330Y-29373693D01*
X42566749Y-29342477D01*
X42561767Y-29340154D01*
X42561762Y-29340151D01*
X42364225Y-29248039D01*
X42364224Y-29248039D01*
X42359243Y-29245716D01*
X42353935Y-29244294D01*
X42353933Y-29244293D01*
X42143402Y-29187881D01*
X42143400Y-29187881D01*
X42138087Y-29186457D01*
X41910000Y-29166502D01*
X41681913Y-29186457D01*
X41676600Y-29187881D01*
X41676598Y-29187881D01*
X41466067Y-29244293D01*
X41466065Y-29244294D01*
X41460757Y-29245716D01*
X41455776Y-29248039D01*
X41455775Y-29248039D01*
X41258238Y-29340151D01*
X41258233Y-29340154D01*
X41253251Y-29342477D01*
X41208670Y-29373693D01*
X41070211Y-29470643D01*
X41070208Y-29470645D01*
X41065700Y-29473802D01*
X40903802Y-29635700D01*
X40900645Y-29640208D01*
X40900643Y-29640211D01*
X40884617Y-29663099D01*
X40772477Y-29823251D01*
X40770154Y-29828233D01*
X40770151Y-29828238D01*
X40754195Y-29862457D01*
X40707278Y-29915742D01*
X40639001Y-29935203D01*
X40571041Y-29914661D01*
X40525805Y-29862457D01*
X40509849Y-29828238D01*
X40509846Y-29828233D01*
X40507523Y-29823251D01*
X40395383Y-29663099D01*
X40379357Y-29640211D01*
X40379355Y-29640208D01*
X40376198Y-29635700D01*
X40214300Y-29473802D01*
X40209792Y-29470645D01*
X40209789Y-29470643D01*
X40071330Y-29373693D01*
X40026749Y-29342477D01*
X40021767Y-29340154D01*
X40021762Y-29340151D01*
X39824225Y-29248039D01*
X39824224Y-29248039D01*
X39819243Y-29245716D01*
X39813935Y-29244294D01*
X39813933Y-29244293D01*
X39603402Y-29187881D01*
X39603400Y-29187881D01*
X39598087Y-29186457D01*
X39370000Y-29166502D01*
X39141913Y-29186457D01*
X39136600Y-29187881D01*
X39136598Y-29187881D01*
X38926067Y-29244293D01*
X38926065Y-29244294D01*
X38920757Y-29245716D01*
X38915776Y-29248039D01*
X38915775Y-29248039D01*
X38718238Y-29340151D01*
X38718233Y-29340154D01*
X38713251Y-29342477D01*
X38668670Y-29373693D01*
X38530211Y-29470643D01*
X38530208Y-29470645D01*
X38525700Y-29473802D01*
X38363802Y-29635700D01*
X38360645Y-29640208D01*
X38360643Y-29640211D01*
X38344617Y-29663099D01*
X38232477Y-29823251D01*
X38230154Y-29828233D01*
X38230151Y-29828238D01*
X38214195Y-29862457D01*
X38167278Y-29915742D01*
X38099001Y-29935203D01*
X38031041Y-29914661D01*
X37985805Y-29862457D01*
X37969849Y-29828238D01*
X37969846Y-29828233D01*
X37967523Y-29823251D01*
X37855383Y-29663099D01*
X37839357Y-29640211D01*
X37839355Y-29640208D01*
X37836198Y-29635700D01*
X37674300Y-29473802D01*
X37669792Y-29470645D01*
X37669789Y-29470643D01*
X37531330Y-29373693D01*
X37486749Y-29342477D01*
X37481767Y-29340154D01*
X37481762Y-29340151D01*
X37284225Y-29248039D01*
X37284224Y-29248039D01*
X37279243Y-29245716D01*
X37273935Y-29244294D01*
X37273933Y-29244293D01*
X37063402Y-29187881D01*
X37063400Y-29187881D01*
X37058087Y-29186457D01*
X36830000Y-29166502D01*
X36601913Y-29186457D01*
X36596600Y-29187881D01*
X36596598Y-29187881D01*
X36386067Y-29244293D01*
X36386065Y-29244294D01*
X36380757Y-29245716D01*
X36375776Y-29248039D01*
X36375775Y-29248039D01*
X36178238Y-29340151D01*
X36178233Y-29340154D01*
X36173251Y-29342477D01*
X36128670Y-29373693D01*
X35990211Y-29470643D01*
X35990208Y-29470645D01*
X35985700Y-29473802D01*
X35823802Y-29635700D01*
X35820645Y-29640208D01*
X35820643Y-29640211D01*
X35804617Y-29663099D01*
X35692477Y-29823251D01*
X35690154Y-29828233D01*
X35690151Y-29828238D01*
X35674195Y-29862457D01*
X35627278Y-29915742D01*
X35559001Y-29935203D01*
X35491041Y-29914661D01*
X35445805Y-29862457D01*
X35429849Y-29828238D01*
X35429846Y-29828233D01*
X35427523Y-29823251D01*
X35315383Y-29663099D01*
X35299357Y-29640211D01*
X35299355Y-29640208D01*
X35296198Y-29635700D01*
X35134300Y-29473802D01*
X35129792Y-29470645D01*
X35129789Y-29470643D01*
X34991330Y-29373693D01*
X34946749Y-29342477D01*
X34941767Y-29340154D01*
X34941762Y-29340151D01*
X34744225Y-29248039D01*
X34744224Y-29248039D01*
X34739243Y-29245716D01*
X34733935Y-29244294D01*
X34733933Y-29244293D01*
X34523402Y-29187881D01*
X34523400Y-29187881D01*
X34518087Y-29186457D01*
X34290000Y-29166502D01*
X34061913Y-29186457D01*
X34056600Y-29187881D01*
X34056598Y-29187881D01*
X33846067Y-29244293D01*
X33846065Y-29244294D01*
X33840757Y-29245716D01*
X33835776Y-29248039D01*
X33835775Y-29248039D01*
X33638238Y-29340151D01*
X33638233Y-29340154D01*
X33633251Y-29342477D01*
X33588670Y-29373693D01*
X33450211Y-29470643D01*
X33450208Y-29470645D01*
X33445700Y-29473802D01*
X33283802Y-29635700D01*
X33280645Y-29640208D01*
X33280643Y-29640211D01*
X33264617Y-29663099D01*
X33152477Y-29823251D01*
X33150154Y-29828233D01*
X33150151Y-29828238D01*
X33134195Y-29862457D01*
X33087278Y-29915742D01*
X33019001Y-29935203D01*
X32951041Y-29914661D01*
X32905805Y-29862457D01*
X32889849Y-29828238D01*
X32889846Y-29828233D01*
X32887523Y-29823251D01*
X32775383Y-29663099D01*
X32759357Y-29640211D01*
X32759355Y-29640208D01*
X32756198Y-29635700D01*
X32594300Y-29473802D01*
X32589792Y-29470645D01*
X32589789Y-29470643D01*
X32451330Y-29373693D01*
X32406749Y-29342477D01*
X32401767Y-29340154D01*
X32401762Y-29340151D01*
X32204225Y-29248039D01*
X32204224Y-29248039D01*
X32199243Y-29245716D01*
X32193935Y-29244294D01*
X32193933Y-29244293D01*
X31983402Y-29187881D01*
X31983400Y-29187881D01*
X31978087Y-29186457D01*
X31750000Y-29166502D01*
X31521913Y-29186457D01*
X31516600Y-29187881D01*
X31516598Y-29187881D01*
X31306067Y-29244293D01*
X31306065Y-29244294D01*
X31300757Y-29245716D01*
X31295776Y-29248039D01*
X31295775Y-29248039D01*
X31098238Y-29340151D01*
X31098233Y-29340154D01*
X31093251Y-29342477D01*
X31048670Y-29373693D01*
X30910211Y-29470643D01*
X30910208Y-29470645D01*
X30905700Y-29473802D01*
X30743802Y-29635700D01*
X30740645Y-29640208D01*
X30740643Y-29640211D01*
X30724617Y-29663099D01*
X30612477Y-29823251D01*
X30610154Y-29828233D01*
X30610151Y-29828238D01*
X30594195Y-29862457D01*
X30547278Y-29915742D01*
X30479001Y-29935203D01*
X30411041Y-29914661D01*
X30365805Y-29862457D01*
X30349849Y-29828238D01*
X30349846Y-29828233D01*
X30347523Y-29823251D01*
X30235383Y-29663099D01*
X30219357Y-29640211D01*
X30219355Y-29640208D01*
X30216198Y-29635700D01*
X30054300Y-29473802D01*
X30049792Y-29470645D01*
X30049789Y-29470643D01*
X29911330Y-29373693D01*
X29866749Y-29342477D01*
X29861767Y-29340154D01*
X29861762Y-29340151D01*
X29664225Y-29248039D01*
X29664224Y-29248039D01*
X29659243Y-29245716D01*
X29653935Y-29244294D01*
X29653933Y-29244293D01*
X29443402Y-29187881D01*
X29443400Y-29187881D01*
X29438087Y-29186457D01*
X29210000Y-29166502D01*
X28981913Y-29186457D01*
X28976600Y-29187881D01*
X28976598Y-29187881D01*
X28766067Y-29244293D01*
X28766065Y-29244294D01*
X28760757Y-29245716D01*
X28755776Y-29248039D01*
X28755775Y-29248039D01*
X28558238Y-29340151D01*
X28558233Y-29340154D01*
X28553251Y-29342477D01*
X28508670Y-29373693D01*
X28370211Y-29470643D01*
X28370208Y-29470645D01*
X28365700Y-29473802D01*
X28203802Y-29635700D01*
X28200645Y-29640208D01*
X28200643Y-29640211D01*
X28184617Y-29663099D01*
X28072477Y-29823251D01*
X28070154Y-29828233D01*
X28070151Y-29828238D01*
X28054195Y-29862457D01*
X28007278Y-29915742D01*
X27939001Y-29935203D01*
X27871041Y-29914661D01*
X27825805Y-29862457D01*
X27809849Y-29828238D01*
X27809846Y-29828233D01*
X27807523Y-29823251D01*
X27695383Y-29663099D01*
X27679357Y-29640211D01*
X27679355Y-29640208D01*
X27676198Y-29635700D01*
X27514300Y-29473802D01*
X27509792Y-29470645D01*
X27509789Y-29470643D01*
X27371330Y-29373693D01*
X27326749Y-29342477D01*
X27321767Y-29340154D01*
X27321762Y-29340151D01*
X27124225Y-29248039D01*
X27124224Y-29248039D01*
X27119243Y-29245716D01*
X27113935Y-29244294D01*
X27113933Y-29244293D01*
X26903402Y-29187881D01*
X26903400Y-29187881D01*
X26898087Y-29186457D01*
X26670000Y-29166502D01*
X26441913Y-29186457D01*
X26436600Y-29187881D01*
X26436598Y-29187881D01*
X26226067Y-29244293D01*
X26226065Y-29244294D01*
X26220757Y-29245716D01*
X26215776Y-29248039D01*
X26215775Y-29248039D01*
X26018238Y-29340151D01*
X26018233Y-29340154D01*
X26013251Y-29342477D01*
X25968670Y-29373693D01*
X25830211Y-29470643D01*
X25830208Y-29470645D01*
X25825700Y-29473802D01*
X25663802Y-29635700D01*
X25660645Y-29640208D01*
X25660643Y-29640211D01*
X25644617Y-29663099D01*
X25532477Y-29823251D01*
X25530154Y-29828233D01*
X25530151Y-29828238D01*
X25514195Y-29862457D01*
X25467278Y-29915742D01*
X25399001Y-29935203D01*
X25331041Y-29914661D01*
X25285805Y-29862457D01*
X25269849Y-29828238D01*
X25269846Y-29828233D01*
X25267523Y-29823251D01*
X25155383Y-29663099D01*
X25139357Y-29640211D01*
X25139355Y-29640208D01*
X25136198Y-29635700D01*
X24974300Y-29473802D01*
X24969792Y-29470645D01*
X24969789Y-29470643D01*
X24831330Y-29373693D01*
X24786749Y-29342477D01*
X24781767Y-29340154D01*
X24781762Y-29340151D01*
X24584225Y-29248039D01*
X24584224Y-29248039D01*
X24579243Y-29245716D01*
X24573935Y-29244294D01*
X24573933Y-29244293D01*
X24363402Y-29187881D01*
X24363400Y-29187881D01*
X24358087Y-29186457D01*
X24130000Y-29166502D01*
X23901913Y-29186457D01*
X23896600Y-29187881D01*
X23896598Y-29187881D01*
X23686067Y-29244293D01*
X23686065Y-29244294D01*
X23680757Y-29245716D01*
X23675776Y-29248039D01*
X23675775Y-29248039D01*
X23478238Y-29340151D01*
X23478233Y-29340154D01*
X23473251Y-29342477D01*
X23428670Y-29373693D01*
X23290211Y-29470643D01*
X23290208Y-29470645D01*
X23285700Y-29473802D01*
X23123802Y-29635700D01*
X23120645Y-29640208D01*
X23120643Y-29640211D01*
X23104617Y-29663099D01*
X22992477Y-29823251D01*
X22990154Y-29828233D01*
X22990151Y-29828238D01*
X22974195Y-29862457D01*
X22927278Y-29915742D01*
X22859001Y-29935203D01*
X22791041Y-29914661D01*
X22745805Y-29862457D01*
X22729849Y-29828238D01*
X22729846Y-29828233D01*
X22727523Y-29823251D01*
X22615383Y-29663099D01*
X22599357Y-29640211D01*
X22599355Y-29640208D01*
X22596198Y-29635700D01*
X22434300Y-29473802D01*
X22429792Y-29470645D01*
X22429789Y-29470643D01*
X22291330Y-29373693D01*
X22246749Y-29342477D01*
X22241767Y-29340154D01*
X22241762Y-29340151D01*
X22044225Y-29248039D01*
X22044224Y-29248039D01*
X22039243Y-29245716D01*
X22033935Y-29244294D01*
X22033933Y-29244293D01*
X21823402Y-29187881D01*
X21823400Y-29187881D01*
X21818087Y-29186457D01*
X21590000Y-29166502D01*
X21361913Y-29186457D01*
X21356600Y-29187881D01*
X21356598Y-29187881D01*
X21146067Y-29244293D01*
X21146065Y-29244294D01*
X21140757Y-29245716D01*
X21135776Y-29248039D01*
X21135775Y-29248039D01*
X20938238Y-29340151D01*
X20938233Y-29340154D01*
X20933251Y-29342477D01*
X20888670Y-29373693D01*
X20750211Y-29470643D01*
X20750208Y-29470645D01*
X20745700Y-29473802D01*
X20583802Y-29635700D01*
X20580645Y-29640208D01*
X20580643Y-29640211D01*
X20564617Y-29663099D01*
X20452477Y-29823251D01*
X20450154Y-29828233D01*
X20450151Y-29828238D01*
X20434195Y-29862457D01*
X20387278Y-29915742D01*
X20319001Y-29935203D01*
X20251041Y-29914661D01*
X20205805Y-29862457D01*
X20189849Y-29828238D01*
X20189846Y-29828233D01*
X20187523Y-29823251D01*
X20075383Y-29663099D01*
X20059357Y-29640211D01*
X20059355Y-29640208D01*
X20056198Y-29635700D01*
X19894300Y-29473802D01*
X19889792Y-29470645D01*
X19889789Y-29470643D01*
X19751330Y-29373693D01*
X19706749Y-29342477D01*
X19701767Y-29340154D01*
X19701762Y-29340151D01*
X19504225Y-29248039D01*
X19504224Y-29248039D01*
X19499243Y-29245716D01*
X19493935Y-29244294D01*
X19493933Y-29244293D01*
X19283402Y-29187881D01*
X19283400Y-29187881D01*
X19278087Y-29186457D01*
X19050000Y-29166502D01*
X18821913Y-29186457D01*
X18816600Y-29187881D01*
X18816598Y-29187881D01*
X18606067Y-29244293D01*
X18606065Y-29244294D01*
X18600757Y-29245716D01*
X18595776Y-29248039D01*
X18595775Y-29248039D01*
X18398238Y-29340151D01*
X18398233Y-29340154D01*
X18393251Y-29342477D01*
X18348670Y-29373693D01*
X18210211Y-29470643D01*
X18210208Y-29470645D01*
X18205700Y-29473802D01*
X18043802Y-29635700D01*
X18040645Y-29640208D01*
X18040643Y-29640211D01*
X18024617Y-29663099D01*
X17912477Y-29823251D01*
X17910154Y-29828233D01*
X17910151Y-29828238D01*
X17893919Y-29863049D01*
X17847002Y-29916334D01*
X17778725Y-29935795D01*
X17710765Y-29915253D01*
X17665529Y-29863049D01*
X17649414Y-29828489D01*
X17643931Y-29818993D01*
X17518972Y-29640533D01*
X17511916Y-29632125D01*
X17357875Y-29478084D01*
X17349467Y-29471028D01*
X17171007Y-29346069D01*
X17161511Y-29340586D01*
X16964053Y-29248510D01*
X16953761Y-29244764D01*
X16781497Y-29198606D01*
X16767401Y-29198942D01*
X16764000Y-29206884D01*
X16764000Y-31747967D01*
X16767973Y-31761498D01*
X16776522Y-31762727D01*
X16953761Y-31715236D01*
X16964053Y-31711490D01*
X17161511Y-31619414D01*
X17171007Y-31613931D01*
X17349467Y-31488972D01*
X17357875Y-31481916D01*
X17511916Y-31327875D01*
X17518972Y-31319467D01*
X17643931Y-31141007D01*
X17649414Y-31131511D01*
X17665529Y-31096951D01*
X17712446Y-31043666D01*
X17780723Y-31024205D01*
X17848683Y-31044747D01*
X17893919Y-31096951D01*
X17910151Y-31131762D01*
X17910154Y-31131767D01*
X17912477Y-31136749D01*
X18043802Y-31324300D01*
X18205700Y-31486198D01*
X18210208Y-31489355D01*
X18210211Y-31489357D01*
X18272954Y-31533290D01*
X18393251Y-31617523D01*
X18398233Y-31619846D01*
X18398238Y-31619849D01*
X18594765Y-31711490D01*
X18600757Y-31714284D01*
X18606065Y-31715706D01*
X18606067Y-31715707D01*
X18816598Y-31772119D01*
X18816600Y-31772119D01*
X18821913Y-31773543D01*
X19050000Y-31793498D01*
X19278087Y-31773543D01*
X19283400Y-31772119D01*
X19283402Y-31772119D01*
X19493933Y-31715707D01*
X19493935Y-31715706D01*
X19499243Y-31714284D01*
X19505235Y-31711490D01*
X19701762Y-31619849D01*
X19701767Y-31619846D01*
X19706749Y-31617523D01*
X19827046Y-31533290D01*
X19889789Y-31489357D01*
X19889792Y-31489355D01*
X19894300Y-31486198D01*
X20056198Y-31324300D01*
X20187523Y-31136749D01*
X20189846Y-31131767D01*
X20189849Y-31131762D01*
X20205805Y-31097543D01*
X20252722Y-31044258D01*
X20320999Y-31024797D01*
X20388959Y-31045339D01*
X20434195Y-31097543D01*
X20450151Y-31131762D01*
X20450154Y-31131767D01*
X20452477Y-31136749D01*
X20583802Y-31324300D01*
X20745700Y-31486198D01*
X20750208Y-31489355D01*
X20750211Y-31489357D01*
X20812954Y-31533290D01*
X20933251Y-31617523D01*
X20938233Y-31619846D01*
X20938238Y-31619849D01*
X21134765Y-31711490D01*
X21140757Y-31714284D01*
X21146065Y-31715706D01*
X21146067Y-31715707D01*
X21356598Y-31772119D01*
X21356600Y-31772119D01*
X21361913Y-31773543D01*
X21590000Y-31793498D01*
X21818087Y-31773543D01*
X21823400Y-31772119D01*
X21823402Y-31772119D01*
X22033933Y-31715707D01*
X22033935Y-31715706D01*
X22039243Y-31714284D01*
X22045235Y-31711490D01*
X22241762Y-31619849D01*
X22241767Y-31619846D01*
X22246749Y-31617523D01*
X22367046Y-31533290D01*
X22429789Y-31489357D01*
X22429792Y-31489355D01*
X22434300Y-31486198D01*
X22596198Y-31324300D01*
X22727523Y-31136749D01*
X22729846Y-31131767D01*
X22729849Y-31131762D01*
X22745805Y-31097543D01*
X22792722Y-31044258D01*
X22860999Y-31024797D01*
X22928959Y-31045339D01*
X22974195Y-31097543D01*
X22990151Y-31131762D01*
X22990154Y-31131767D01*
X22992477Y-31136749D01*
X23123802Y-31324300D01*
X23285700Y-31486198D01*
X23290208Y-31489355D01*
X23290211Y-31489357D01*
X23352954Y-31533290D01*
X23473251Y-31617523D01*
X23478233Y-31619846D01*
X23478238Y-31619849D01*
X23674765Y-31711490D01*
X23680757Y-31714284D01*
X23686065Y-31715706D01*
X23686067Y-31715707D01*
X23896598Y-31772119D01*
X23896600Y-31772119D01*
X23901913Y-31773543D01*
X24130000Y-31793498D01*
X24358087Y-31773543D01*
X24363400Y-31772119D01*
X24363402Y-31772119D01*
X24573933Y-31715707D01*
X24573935Y-31715706D01*
X24579243Y-31714284D01*
X24585235Y-31711490D01*
X24781762Y-31619849D01*
X24781767Y-31619846D01*
X24786749Y-31617523D01*
X24907046Y-31533290D01*
X24969789Y-31489357D01*
X24969792Y-31489355D01*
X24974300Y-31486198D01*
X25136198Y-31324300D01*
X25267523Y-31136749D01*
X25269846Y-31131767D01*
X25269849Y-31131762D01*
X25285805Y-31097543D01*
X25332722Y-31044258D01*
X25400999Y-31024797D01*
X25468959Y-31045339D01*
X25514195Y-31097543D01*
X25530151Y-31131762D01*
X25530154Y-31131767D01*
X25532477Y-31136749D01*
X25663802Y-31324300D01*
X25825700Y-31486198D01*
X25830208Y-31489355D01*
X25830211Y-31489357D01*
X25892954Y-31533290D01*
X26013251Y-31617523D01*
X26018233Y-31619846D01*
X26018238Y-31619849D01*
X26214765Y-31711490D01*
X26220757Y-31714284D01*
X26226065Y-31715706D01*
X26226067Y-31715707D01*
X26436598Y-31772119D01*
X26436600Y-31772119D01*
X26441913Y-31773543D01*
X26670000Y-31793498D01*
X26898087Y-31773543D01*
X26903400Y-31772119D01*
X26903402Y-31772119D01*
X27113933Y-31715707D01*
X27113935Y-31715706D01*
X27119243Y-31714284D01*
X27125235Y-31711490D01*
X27321762Y-31619849D01*
X27321767Y-31619846D01*
X27326749Y-31617523D01*
X27447046Y-31533290D01*
X27509789Y-31489357D01*
X27509792Y-31489355D01*
X27514300Y-31486198D01*
X27676198Y-31324300D01*
X27807523Y-31136749D01*
X27809846Y-31131767D01*
X27809849Y-31131762D01*
X27825805Y-31097543D01*
X27872722Y-31044258D01*
X27940999Y-31024797D01*
X28008959Y-31045339D01*
X28054195Y-31097543D01*
X28070151Y-31131762D01*
X28070154Y-31131767D01*
X28072477Y-31136749D01*
X28203802Y-31324300D01*
X28365700Y-31486198D01*
X28370208Y-31489355D01*
X28370211Y-31489357D01*
X28432954Y-31533290D01*
X28553251Y-31617523D01*
X28558233Y-31619846D01*
X28558238Y-31619849D01*
X28754765Y-31711490D01*
X28760757Y-31714284D01*
X28766065Y-31715706D01*
X28766067Y-31715707D01*
X28976598Y-31772119D01*
X28976600Y-31772119D01*
X28981913Y-31773543D01*
X29210000Y-31793498D01*
X29438087Y-31773543D01*
X29443400Y-31772119D01*
X29443402Y-31772119D01*
X29653933Y-31715707D01*
X29653935Y-31715706D01*
X29659243Y-31714284D01*
X29665235Y-31711490D01*
X29861762Y-31619849D01*
X29861767Y-31619846D01*
X29866749Y-31617523D01*
X29987046Y-31533290D01*
X30049789Y-31489357D01*
X30049792Y-31489355D01*
X30054300Y-31486198D01*
X30216198Y-31324300D01*
X30347523Y-31136749D01*
X30349846Y-31131767D01*
X30349849Y-31131762D01*
X30365805Y-31097543D01*
X30412722Y-31044258D01*
X30480999Y-31024797D01*
X30548959Y-31045339D01*
X30594195Y-31097543D01*
X30610151Y-31131762D01*
X30610154Y-31131767D01*
X30612477Y-31136749D01*
X30743802Y-31324300D01*
X30905700Y-31486198D01*
X30910208Y-31489355D01*
X30910211Y-31489357D01*
X30972954Y-31533290D01*
X31093251Y-31617523D01*
X31098233Y-31619846D01*
X31098238Y-31619849D01*
X31294765Y-31711490D01*
X31300757Y-31714284D01*
X31306065Y-31715706D01*
X31306067Y-31715707D01*
X31516598Y-31772119D01*
X31516600Y-31772119D01*
X31521913Y-31773543D01*
X31750000Y-31793498D01*
X31978087Y-31773543D01*
X31983400Y-31772119D01*
X31983402Y-31772119D01*
X32193933Y-31715707D01*
X32193935Y-31715706D01*
X32199243Y-31714284D01*
X32205235Y-31711490D01*
X32401762Y-31619849D01*
X32401767Y-31619846D01*
X32406749Y-31617523D01*
X32527046Y-31533290D01*
X32589789Y-31489357D01*
X32589792Y-31489355D01*
X32594300Y-31486198D01*
X32756198Y-31324300D01*
X32887523Y-31136749D01*
X32889846Y-31131767D01*
X32889849Y-31131762D01*
X32905805Y-31097543D01*
X32952722Y-31044258D01*
X33020999Y-31024797D01*
X33088959Y-31045339D01*
X33134195Y-31097543D01*
X33150151Y-31131762D01*
X33150154Y-31131767D01*
X33152477Y-31136749D01*
X33283802Y-31324300D01*
X33445700Y-31486198D01*
X33450208Y-31489355D01*
X33450211Y-31489357D01*
X33512954Y-31533290D01*
X33633251Y-31617523D01*
X33638233Y-31619846D01*
X33638238Y-31619849D01*
X33834765Y-31711490D01*
X33840757Y-31714284D01*
X33846065Y-31715706D01*
X33846067Y-31715707D01*
X34056598Y-31772119D01*
X34056600Y-31772119D01*
X34061913Y-31773543D01*
X34290000Y-31793498D01*
X34518087Y-31773543D01*
X34523400Y-31772119D01*
X34523402Y-31772119D01*
X34733933Y-31715707D01*
X34733935Y-31715706D01*
X34739243Y-31714284D01*
X34745235Y-31711490D01*
X34941762Y-31619849D01*
X34941767Y-31619846D01*
X34946749Y-31617523D01*
X35067046Y-31533290D01*
X35129789Y-31489357D01*
X35129792Y-31489355D01*
X35134300Y-31486198D01*
X35296198Y-31324300D01*
X35427523Y-31136749D01*
X35429846Y-31131767D01*
X35429849Y-31131762D01*
X35445805Y-31097543D01*
X35492722Y-31044258D01*
X35560999Y-31024797D01*
X35628959Y-31045339D01*
X35674195Y-31097543D01*
X35690151Y-31131762D01*
X35690154Y-31131767D01*
X35692477Y-31136749D01*
X35823802Y-31324300D01*
X35985700Y-31486198D01*
X35990208Y-31489355D01*
X35990211Y-31489357D01*
X36052954Y-31533290D01*
X36173251Y-31617523D01*
X36178233Y-31619846D01*
X36178238Y-31619849D01*
X36374765Y-31711490D01*
X36380757Y-31714284D01*
X36386065Y-31715706D01*
X36386067Y-31715707D01*
X36596598Y-31772119D01*
X36596600Y-31772119D01*
X36601913Y-31773543D01*
X36830000Y-31793498D01*
X37058087Y-31773543D01*
X37063400Y-31772119D01*
X37063402Y-31772119D01*
X37273933Y-31715707D01*
X37273935Y-31715706D01*
X37279243Y-31714284D01*
X37285235Y-31711490D01*
X37481762Y-31619849D01*
X37481767Y-31619846D01*
X37486749Y-31617523D01*
X37607046Y-31533290D01*
X37669789Y-31489357D01*
X37669792Y-31489355D01*
X37674300Y-31486198D01*
X37836198Y-31324300D01*
X37967523Y-31136749D01*
X37969846Y-31131767D01*
X37969849Y-31131762D01*
X37985805Y-31097543D01*
X38032722Y-31044258D01*
X38100999Y-31024797D01*
X38168959Y-31045339D01*
X38214195Y-31097543D01*
X38230151Y-31131762D01*
X38230154Y-31131767D01*
X38232477Y-31136749D01*
X38363802Y-31324300D01*
X38525700Y-31486198D01*
X38530208Y-31489355D01*
X38530211Y-31489357D01*
X38592954Y-31533290D01*
X38713251Y-31617523D01*
X38718233Y-31619846D01*
X38718238Y-31619849D01*
X38914765Y-31711490D01*
X38920757Y-31714284D01*
X38926065Y-31715706D01*
X38926067Y-31715707D01*
X39136598Y-31772119D01*
X39136600Y-31772119D01*
X39141913Y-31773543D01*
X39370000Y-31793498D01*
X39598087Y-31773543D01*
X39603400Y-31772119D01*
X39603402Y-31772119D01*
X39813933Y-31715707D01*
X39813935Y-31715706D01*
X39819243Y-31714284D01*
X39825235Y-31711490D01*
X40021762Y-31619849D01*
X40021767Y-31619846D01*
X40026749Y-31617523D01*
X40147046Y-31533290D01*
X40209789Y-31489357D01*
X40209792Y-31489355D01*
X40214300Y-31486198D01*
X40376198Y-31324300D01*
X40507523Y-31136749D01*
X40509846Y-31131767D01*
X40509849Y-31131762D01*
X40525805Y-31097543D01*
X40572722Y-31044258D01*
X40640999Y-31024797D01*
X40708959Y-31045339D01*
X40754195Y-31097543D01*
X40770151Y-31131762D01*
X40770154Y-31131767D01*
X40772477Y-31136749D01*
X40903802Y-31324300D01*
X41065700Y-31486198D01*
X41070208Y-31489355D01*
X41070211Y-31489357D01*
X41132954Y-31533290D01*
X41253251Y-31617523D01*
X41258233Y-31619846D01*
X41258238Y-31619849D01*
X41454765Y-31711490D01*
X41460757Y-31714284D01*
X41466065Y-31715706D01*
X41466067Y-31715707D01*
X41676598Y-31772119D01*
X41676600Y-31772119D01*
X41681913Y-31773543D01*
X41910000Y-31793498D01*
X42138087Y-31773543D01*
X42143400Y-31772119D01*
X42143402Y-31772119D01*
X42353933Y-31715707D01*
X42353935Y-31715706D01*
X42359243Y-31714284D01*
X42365235Y-31711490D01*
X42561762Y-31619849D01*
X42561767Y-31619846D01*
X42566749Y-31617523D01*
X42687046Y-31533290D01*
X42749789Y-31489357D01*
X42749792Y-31489355D01*
X42754300Y-31486198D01*
X42916198Y-31324300D01*
X43047523Y-31136749D01*
X43049846Y-31131767D01*
X43049849Y-31131762D01*
X43065805Y-31097543D01*
X43112722Y-31044258D01*
X43180999Y-31024797D01*
X43248959Y-31045339D01*
X43294195Y-31097543D01*
X43310151Y-31131762D01*
X43310154Y-31131767D01*
X43312477Y-31136749D01*
X43443802Y-31324300D01*
X43605700Y-31486198D01*
X43610208Y-31489355D01*
X43610211Y-31489357D01*
X43672954Y-31533290D01*
X43793251Y-31617523D01*
X43798233Y-31619846D01*
X43798238Y-31619849D01*
X43994765Y-31711490D01*
X44000757Y-31714284D01*
X44006065Y-31715706D01*
X44006067Y-31715707D01*
X44216598Y-31772119D01*
X44216600Y-31772119D01*
X44221913Y-31773543D01*
X44450000Y-31793498D01*
X44678087Y-31773543D01*
X44683400Y-31772119D01*
X44683402Y-31772119D01*
X44893933Y-31715707D01*
X44893935Y-31715706D01*
X44899243Y-31714284D01*
X44905235Y-31711490D01*
X45101762Y-31619849D01*
X45101767Y-31619846D01*
X45106749Y-31617523D01*
X45227046Y-31533290D01*
X45289789Y-31489357D01*
X45289792Y-31489355D01*
X45294300Y-31486198D01*
X45456198Y-31324300D01*
X45587523Y-31136749D01*
X45589846Y-31131767D01*
X45589849Y-31131762D01*
X45605805Y-31097543D01*
X45652722Y-31044258D01*
X45720999Y-31024797D01*
X45788959Y-31045339D01*
X45834195Y-31097543D01*
X45850151Y-31131762D01*
X45850154Y-31131767D01*
X45852477Y-31136749D01*
X45983802Y-31324300D01*
X46145700Y-31486198D01*
X46150208Y-31489355D01*
X46150211Y-31489357D01*
X46212954Y-31533290D01*
X46333251Y-31617523D01*
X46338233Y-31619846D01*
X46338238Y-31619849D01*
X46534765Y-31711490D01*
X46540757Y-31714284D01*
X46546064Y-31715706D01*
X46700748Y-31757154D01*
X46761370Y-31794106D01*
X46792392Y-31857967D01*
X46783963Y-31928461D01*
X46757231Y-31967956D01*
X46650592Y-32074595D01*
X46588280Y-32108621D01*
X46561497Y-32111500D01*
X6143503Y-32111500D01*
X6075382Y-32091498D01*
X6054408Y-32074595D01*
X5952751Y-31972938D01*
X5918725Y-31910626D01*
X5923790Y-31839811D01*
X5966337Y-31782975D01*
X6032857Y-31758164D01*
X6066965Y-31760372D01*
X6179686Y-31783305D01*
X6312389Y-31788171D01*
X6410087Y-31791754D01*
X6410091Y-31791754D01*
X6415251Y-31791943D01*
X6420371Y-31791287D01*
X6420373Y-31791287D01*
X6493235Y-31781953D01*
X6649063Y-31761991D01*
X6654012Y-31760506D01*
X6654018Y-31760505D01*
X6817393Y-31711490D01*
X6874844Y-31694254D01*
X7086529Y-31590550D01*
X7090732Y-31587552D01*
X7090737Y-31587549D01*
X7274231Y-31456664D01*
X7274233Y-31456662D01*
X7278435Y-31453665D01*
X7282090Y-31450023D01*
X7282098Y-31450016D01*
X7306950Y-31425250D01*
X7369321Y-31391333D01*
X7395890Y-31388500D01*
X12975812Y-31388500D01*
X13043933Y-31408502D01*
X13064907Y-31425405D01*
X13125700Y-31486198D01*
X13130208Y-31489355D01*
X13130211Y-31489357D01*
X13192954Y-31533290D01*
X13313251Y-31617523D01*
X13318233Y-31619846D01*
X13318238Y-31619849D01*
X13514765Y-31711490D01*
X13520757Y-31714284D01*
X13526065Y-31715706D01*
X13526067Y-31715707D01*
X13736598Y-31772119D01*
X13736600Y-31772119D01*
X13741913Y-31773543D01*
X13970000Y-31793498D01*
X14198087Y-31773543D01*
X14203400Y-31772119D01*
X14203402Y-31772119D01*
X14413933Y-31715707D01*
X14413935Y-31715706D01*
X14419243Y-31714284D01*
X14425235Y-31711490D01*
X14621762Y-31619849D01*
X14621767Y-31619846D01*
X14626749Y-31617523D01*
X14747046Y-31533290D01*
X14809789Y-31489357D01*
X14809792Y-31489355D01*
X14814300Y-31486198D01*
X14976198Y-31324300D01*
X15107523Y-31136749D01*
X15109846Y-31131767D01*
X15109849Y-31131762D01*
X15126081Y-31096951D01*
X15172998Y-31043666D01*
X15241275Y-31024205D01*
X15309235Y-31044747D01*
X15354471Y-31096951D01*
X15370586Y-31131511D01*
X15376069Y-31141007D01*
X15501028Y-31319467D01*
X15508084Y-31327875D01*
X15662125Y-31481916D01*
X15670533Y-31488972D01*
X15848993Y-31613931D01*
X15858489Y-31619414D01*
X16055947Y-31711490D01*
X16066239Y-31715236D01*
X16238503Y-31761394D01*
X16252599Y-31761058D01*
X16256000Y-31753116D01*
X16256000Y-29212033D01*
X16252027Y-29198502D01*
X16243478Y-29197273D01*
X16066239Y-29244764D01*
X16055947Y-29248510D01*
X15858489Y-29340586D01*
X15848993Y-29346069D01*
X15670533Y-29471028D01*
X15662125Y-29478084D01*
X15508084Y-29632125D01*
X15501028Y-29640533D01*
X15376069Y-29818993D01*
X15370586Y-29828489D01*
X15354471Y-29863049D01*
X15307554Y-29916334D01*
X15239277Y-29935795D01*
X15171317Y-29915253D01*
X15126081Y-29863049D01*
X15109849Y-29828238D01*
X15109846Y-29828233D01*
X15107523Y-29823251D01*
X14995383Y-29663099D01*
X14979357Y-29640211D01*
X14979355Y-29640208D01*
X14976198Y-29635700D01*
X14814300Y-29473802D01*
X14809792Y-29470645D01*
X14809789Y-29470643D01*
X14671330Y-29373693D01*
X14626749Y-29342477D01*
X14621767Y-29340154D01*
X14621762Y-29340151D01*
X14424225Y-29248039D01*
X14424224Y-29248039D01*
X14419243Y-29245716D01*
X14413935Y-29244294D01*
X14413933Y-29244293D01*
X14203402Y-29187881D01*
X14203400Y-29187881D01*
X14198087Y-29186457D01*
X13970000Y-29166502D01*
X13741913Y-29186457D01*
X13736600Y-29187881D01*
X13736598Y-29187881D01*
X13526067Y-29244293D01*
X13526065Y-29244294D01*
X13520757Y-29245716D01*
X13515776Y-29248039D01*
X13515775Y-29248039D01*
X13318238Y-29340151D01*
X13318233Y-29340154D01*
X13313251Y-29342477D01*
X13268670Y-29373693D01*
X13130211Y-29470643D01*
X13130208Y-29470645D01*
X13125700Y-29473802D01*
X13064907Y-29534595D01*
X13002595Y-29568621D01*
X12975812Y-29571500D01*
X7619090Y-29571500D01*
X7550969Y-29551498D01*
X7513298Y-29513940D01*
X7498048Y-29490367D01*
X7477841Y-29422307D01*
X7497637Y-29354126D01*
X7529780Y-29319990D01*
X7533409Y-29317354D01*
X7539129Y-29314051D01*
X7544039Y-29309630D01*
X7544042Y-29309628D01*
X7589954Y-29268289D01*
X7594969Y-29264005D01*
X7608362Y-29253159D01*
X7610926Y-29251083D01*
X7625441Y-29236568D01*
X7630226Y-29232027D01*
X7676142Y-29190684D01*
X7681051Y-29186264D01*
X7689325Y-29174876D01*
X7702166Y-29159843D01*
X13056604Y-23805405D01*
X13118916Y-23771379D01*
X13145699Y-23768500D01*
X41828583Y-23768500D01*
X41848292Y-23770051D01*
X41862190Y-23772252D01*
X41868777Y-23771907D01*
X41868782Y-23771907D01*
X41930480Y-23768673D01*
X41937074Y-23768500D01*
X41957610Y-23768500D01*
X41960882Y-23768156D01*
X41960884Y-23768156D01*
X41978042Y-23766353D01*
X41984616Y-23765836D01*
X42046308Y-23762603D01*
X42046312Y-23762602D01*
X42052903Y-23762257D01*
X42059284Y-23760547D01*
X42059286Y-23760547D01*
X42066491Y-23758617D01*
X42085925Y-23755015D01*
X42093354Y-23754234D01*
X42093363Y-23754232D01*
X42099928Y-23753542D01*
X42164997Y-23732400D01*
X42171299Y-23730533D01*
X42237370Y-23712829D01*
X42249908Y-23706440D01*
X42268174Y-23698875D01*
X42275272Y-23696569D01*
X42275274Y-23696568D01*
X42281556Y-23694527D01*
X42340785Y-23660331D01*
X42346579Y-23657185D01*
X42407530Y-23626129D01*
X42418467Y-23617273D01*
X42434763Y-23606073D01*
X42441224Y-23602343D01*
X42441228Y-23602340D01*
X42446944Y-23599040D01*
X42451850Y-23594623D01*
X42451855Y-23594619D01*
X42497769Y-23553278D01*
X42502784Y-23548994D01*
X42516177Y-23538148D01*
X42518741Y-23536072D01*
X42533256Y-23521557D01*
X42538041Y-23517016D01*
X42583957Y-23475673D01*
X42588866Y-23471253D01*
X42597140Y-23459865D01*
X42609981Y-23444832D01*
X49466136Y-16588677D01*
X49528448Y-16554651D01*
X49544246Y-16552252D01*
X49622904Y-16545370D01*
X49752606Y-16534023D01*
X49752611Y-16534022D01*
X49758087Y-16533543D01*
X49763400Y-16532119D01*
X49763402Y-16532119D01*
X49973933Y-16475707D01*
X49973935Y-16475706D01*
X49979243Y-16474284D01*
X49985235Y-16471490D01*
X50181762Y-16379849D01*
X50181767Y-16379846D01*
X50186749Y-16377523D01*
X50328458Y-16278297D01*
X50369789Y-16249357D01*
X50369792Y-16249355D01*
X50374300Y-16246198D01*
X50536198Y-16084300D01*
X50667523Y-15896749D01*
X50669846Y-15891767D01*
X50669849Y-15891762D01*
X50761961Y-15694225D01*
X50761961Y-15694224D01*
X50764284Y-15689243D01*
X50823543Y-15468087D01*
X50843498Y-15240000D01*
X50823543Y-15011913D01*
X50821959Y-15006002D01*
X50765707Y-14796067D01*
X50765706Y-14796065D01*
X50764284Y-14790757D01*
X50710148Y-14674661D01*
X50669849Y-14588238D01*
X50669846Y-14588233D01*
X50667523Y-14583251D01*
X50536198Y-14395700D01*
X50374300Y-14233802D01*
X50369792Y-14230645D01*
X50369789Y-14230643D01*
X50291611Y-14175902D01*
X50186749Y-14102477D01*
X50181767Y-14100154D01*
X50181762Y-14100151D01*
X49984225Y-14008039D01*
X49984224Y-14008039D01*
X49979243Y-14005716D01*
X49973935Y-14004294D01*
X49973933Y-14004293D01*
X49763402Y-13947881D01*
X49763400Y-13947881D01*
X49758087Y-13946457D01*
X49530000Y-13926502D01*
X49301913Y-13946457D01*
X49296600Y-13947881D01*
X49296598Y-13947881D01*
X49086067Y-14004293D01*
X49086065Y-14004294D01*
X49080757Y-14005716D01*
X49075776Y-14008039D01*
X49075775Y-14008039D01*
X48878238Y-14100151D01*
X48878233Y-14100154D01*
X48873251Y-14102477D01*
X48768389Y-14175902D01*
X48690211Y-14230643D01*
X48690208Y-14230645D01*
X48685700Y-14233802D01*
X48523802Y-14395700D01*
X48392477Y-14583251D01*
X48390154Y-14588233D01*
X48390151Y-14588238D01*
X48374195Y-14622457D01*
X48327278Y-14675742D01*
X48259001Y-14695203D01*
X48191041Y-14674661D01*
X48145805Y-14622457D01*
X48129849Y-14588238D01*
X48129846Y-14588233D01*
X48127523Y-14583251D01*
X47996198Y-14395700D01*
X47834300Y-14233802D01*
X47829792Y-14230645D01*
X47829789Y-14230643D01*
X47751611Y-14175902D01*
X47646749Y-14102477D01*
X47641767Y-14100154D01*
X47641762Y-14100151D01*
X47444225Y-14008039D01*
X47444224Y-14008039D01*
X47439243Y-14005716D01*
X47433935Y-14004294D01*
X47433933Y-14004293D01*
X47223402Y-13947881D01*
X47223400Y-13947881D01*
X47218087Y-13946457D01*
X46990000Y-13926502D01*
X46761913Y-13946457D01*
X46756600Y-13947881D01*
X46756598Y-13947881D01*
X46546067Y-14004293D01*
X46546065Y-14004294D01*
X46540757Y-14005716D01*
X46535776Y-14008039D01*
X46535775Y-14008039D01*
X46338238Y-14100151D01*
X46338233Y-14100154D01*
X46333251Y-14102477D01*
X46228389Y-14175902D01*
X46150211Y-14230643D01*
X46150208Y-14230645D01*
X46145700Y-14233802D01*
X45983802Y-14395700D01*
X45852477Y-14583251D01*
X45850154Y-14588233D01*
X45850151Y-14588238D01*
X45834195Y-14622457D01*
X45787278Y-14675742D01*
X45719001Y-14695203D01*
X45651041Y-14674661D01*
X45605805Y-14622457D01*
X45589849Y-14588238D01*
X45589846Y-14588233D01*
X45587523Y-14583251D01*
X45456198Y-14395700D01*
X45294300Y-14233802D01*
X45289792Y-14230645D01*
X45289789Y-14230643D01*
X45211611Y-14175902D01*
X45106749Y-14102477D01*
X45101767Y-14100154D01*
X45101762Y-14100151D01*
X44904225Y-14008039D01*
X44904224Y-14008039D01*
X44899243Y-14005716D01*
X44893935Y-14004294D01*
X44893933Y-14004293D01*
X44683402Y-13947881D01*
X44683400Y-13947881D01*
X44678087Y-13946457D01*
X44450000Y-13926502D01*
X44221913Y-13946457D01*
X44216600Y-13947881D01*
X44216598Y-13947881D01*
X44006067Y-14004293D01*
X44006065Y-14004294D01*
X44000757Y-14005716D01*
X43995776Y-14008039D01*
X43995775Y-14008039D01*
X43798238Y-14100151D01*
X43798233Y-14100154D01*
X43793251Y-14102477D01*
X43688389Y-14175902D01*
X43610211Y-14230643D01*
X43610208Y-14230645D01*
X43605700Y-14233802D01*
X43443802Y-14395700D01*
X43312477Y-14583251D01*
X43310154Y-14588233D01*
X43310151Y-14588238D01*
X43294195Y-14622457D01*
X43247278Y-14675742D01*
X43179001Y-14695203D01*
X43111041Y-14674661D01*
X43065805Y-14622457D01*
X43049849Y-14588238D01*
X43049846Y-14588233D01*
X43047523Y-14583251D01*
X42916198Y-14395700D01*
X42754300Y-14233802D01*
X42749792Y-14230645D01*
X42749789Y-14230643D01*
X42671611Y-14175902D01*
X42566749Y-14102477D01*
X42561767Y-14100154D01*
X42561762Y-14100151D01*
X42364225Y-14008039D01*
X42364224Y-14008039D01*
X42359243Y-14005716D01*
X42353935Y-14004294D01*
X42353933Y-14004293D01*
X42143402Y-13947881D01*
X42143400Y-13947881D01*
X42138087Y-13946457D01*
X42132611Y-13945978D01*
X42132606Y-13945977D01*
X42002904Y-13934630D01*
X41924249Y-13927749D01*
X41858131Y-13901886D01*
X41846136Y-13891323D01*
X39434981Y-11480168D01*
X39422140Y-11465135D01*
X39417746Y-11459087D01*
X39417745Y-11459086D01*
X39413866Y-11453747D01*
X39363041Y-11407984D01*
X39358256Y-11403443D01*
X39343741Y-11388928D01*
X39336282Y-11382888D01*
X39327784Y-11376006D01*
X39322769Y-11371722D01*
X39276855Y-11330381D01*
X39276850Y-11330377D01*
X39271944Y-11325960D01*
X39266228Y-11322660D01*
X39266224Y-11322657D01*
X39259763Y-11318927D01*
X39243466Y-11307727D01*
X39237660Y-11303025D01*
X39237658Y-11303024D01*
X39232530Y-11298871D01*
X39171577Y-11267814D01*
X39165782Y-11264667D01*
X39112279Y-11233777D01*
X39112278Y-11233776D01*
X39106556Y-11230473D01*
X39100274Y-11228432D01*
X39100272Y-11228431D01*
X39093174Y-11226125D01*
X39074907Y-11218559D01*
X39062370Y-11212171D01*
X38996299Y-11194467D01*
X38989983Y-11192596D01*
X38981746Y-11189919D01*
X38960061Y-11182873D01*
X38901456Y-11142798D01*
X38885344Y-11104669D01*
X45582001Y-11104669D01*
X45582371Y-11111490D01*
X45587895Y-11162352D01*
X45591521Y-11177604D01*
X45636676Y-11298054D01*
X45645214Y-11313649D01*
X45721715Y-11415724D01*
X45734276Y-11428285D01*
X45836351Y-11504786D01*
X45851946Y-11513324D01*
X45972394Y-11558478D01*
X45987649Y-11562105D01*
X46038514Y-11567631D01*
X46045328Y-11568000D01*
X46717885Y-11568000D01*
X46733124Y-11563525D01*
X46734329Y-11562135D01*
X46736000Y-11554452D01*
X46736000Y-11549884D01*
X47244000Y-11549884D01*
X47248475Y-11565123D01*
X47249865Y-11566328D01*
X47257548Y-11567999D01*
X47934669Y-11567999D01*
X47941490Y-11567629D01*
X47992352Y-11562105D01*
X48007604Y-11558479D01*
X48128054Y-11513324D01*
X48143649Y-11504786D01*
X48245724Y-11428285D01*
X48258285Y-11415724D01*
X48334786Y-11313649D01*
X48343324Y-11298054D01*
X48388478Y-11177606D01*
X48392105Y-11162351D01*
X48397631Y-11111486D01*
X48398000Y-11104672D01*
X48398000Y-10432115D01*
X48393525Y-10416876D01*
X48392135Y-10415671D01*
X48384452Y-10414000D01*
X47262115Y-10414000D01*
X47246876Y-10418475D01*
X47245671Y-10419865D01*
X47244000Y-10427548D01*
X47244000Y-11549884D01*
X46736000Y-11549884D01*
X46736000Y-10432115D01*
X46731525Y-10416876D01*
X46730135Y-10415671D01*
X46722452Y-10414000D01*
X45600116Y-10414000D01*
X45584877Y-10418475D01*
X45583672Y-10419865D01*
X45582001Y-10427548D01*
X45582001Y-11104669D01*
X38885344Y-11104669D01*
X38873821Y-11077401D01*
X38873000Y-11063041D01*
X38873000Y-10432115D01*
X38868525Y-10416876D01*
X38867135Y-10415671D01*
X38859452Y-10414000D01*
X36075116Y-10414000D01*
X36059877Y-10418475D01*
X36058672Y-10419865D01*
X36057001Y-10427548D01*
X36057001Y-11030500D01*
X36036999Y-11098621D01*
X35983343Y-11145114D01*
X35931001Y-11156500D01*
X29474000Y-11156500D01*
X29405879Y-11136498D01*
X29359386Y-11082842D01*
X29348000Y-11030500D01*
X29348000Y-10432115D01*
X29343525Y-10416876D01*
X29342135Y-10415671D01*
X29334452Y-10414000D01*
X26550116Y-10414000D01*
X26534877Y-10418475D01*
X26533672Y-10419865D01*
X26532001Y-10427548D01*
X26532001Y-11030500D01*
X26511999Y-11098621D01*
X26458343Y-11145114D01*
X26406001Y-11156500D01*
X21314188Y-11156500D01*
X21246067Y-11136498D01*
X21225093Y-11119595D01*
X21164300Y-11058802D01*
X21159792Y-11055645D01*
X21159789Y-11055643D01*
X21081611Y-11000902D01*
X20976749Y-10927477D01*
X20971767Y-10925154D01*
X20971762Y-10925151D01*
X20774225Y-10833039D01*
X20774224Y-10833039D01*
X20769243Y-10830716D01*
X20763935Y-10829294D01*
X20763933Y-10829293D01*
X20553402Y-10772881D01*
X20553400Y-10772881D01*
X20548087Y-10771457D01*
X20320000Y-10751502D01*
X20091913Y-10771457D01*
X20086600Y-10772881D01*
X20086598Y-10772881D01*
X19876067Y-10829293D01*
X19876065Y-10829294D01*
X19870757Y-10830716D01*
X19865776Y-10833039D01*
X19865775Y-10833039D01*
X19668238Y-10925151D01*
X19668233Y-10925154D01*
X19663251Y-10927477D01*
X19558389Y-11000902D01*
X19480211Y-11055643D01*
X19480208Y-11055645D01*
X19475700Y-11058802D01*
X19313802Y-11220700D01*
X19310645Y-11225208D01*
X19310643Y-11225211D01*
X19261164Y-11295875D01*
X19182477Y-11408251D01*
X19180154Y-11413233D01*
X19180151Y-11413238D01*
X19137462Y-11504786D01*
X19085716Y-11615757D01*
X19026457Y-11836913D01*
X19006502Y-12065000D01*
X19026457Y-12293087D01*
X19085716Y-12514243D01*
X19088039Y-12519224D01*
X19088039Y-12519225D01*
X19173613Y-12702739D01*
X19184274Y-12772931D01*
X19155294Y-12837743D01*
X19095874Y-12876600D01*
X19059418Y-12881989D01*
X16123992Y-12881989D01*
X16055871Y-12861987D01*
X16034897Y-12845084D01*
X15318677Y-12128864D01*
X15284651Y-12066552D01*
X15282251Y-12050750D01*
X15264023Y-11842394D01*
X15264022Y-11842389D01*
X15263543Y-11836913D01*
X15204284Y-11615757D01*
X15152538Y-11504786D01*
X15109849Y-11413238D01*
X15109846Y-11413233D01*
X15107523Y-11408251D01*
X15028836Y-11295875D01*
X14979357Y-11225211D01*
X14979355Y-11225208D01*
X14976198Y-11220700D01*
X14814300Y-11058802D01*
X14809792Y-11055645D01*
X14809789Y-11055643D01*
X14731611Y-11000902D01*
X14626749Y-10927477D01*
X14621767Y-10925154D01*
X14621762Y-10925151D01*
X14424225Y-10833039D01*
X14424224Y-10833039D01*
X14419243Y-10830716D01*
X14413935Y-10829294D01*
X14413933Y-10829293D01*
X14203402Y-10772881D01*
X14203400Y-10772881D01*
X14198087Y-10771457D01*
X13970000Y-10751502D01*
X13741913Y-10771457D01*
X13736600Y-10772881D01*
X13736598Y-10772881D01*
X13526067Y-10829293D01*
X13526065Y-10829294D01*
X13520757Y-10830716D01*
X13515776Y-10833039D01*
X13515775Y-10833039D01*
X13318238Y-10925151D01*
X13318233Y-10925154D01*
X13313251Y-10927477D01*
X13208389Y-11000902D01*
X13130211Y-11055643D01*
X13130208Y-11055645D01*
X13125700Y-11058802D01*
X12963802Y-11220700D01*
X12960645Y-11225208D01*
X12960643Y-11225211D01*
X12911164Y-11295875D01*
X12832477Y-11408251D01*
X12830154Y-11413233D01*
X12830151Y-11413238D01*
X12787462Y-11504786D01*
X12735716Y-11615757D01*
X12676457Y-11836913D01*
X12656502Y-12065000D01*
X12676457Y-12293087D01*
X12735716Y-12514243D01*
X12738039Y-12519224D01*
X12738039Y-12519225D01*
X12830151Y-12716762D01*
X12830154Y-12716767D01*
X12832477Y-12721749D01*
X12835634Y-12726257D01*
X12944679Y-12881989D01*
X12963802Y-12909300D01*
X13125700Y-13071198D01*
X13130208Y-13074355D01*
X13130211Y-13074357D01*
X13132225Y-13075767D01*
X13313251Y-13202523D01*
X13318233Y-13204846D01*
X13318238Y-13204849D01*
X13515775Y-13296961D01*
X13520757Y-13299284D01*
X13526065Y-13300706D01*
X13526067Y-13300707D01*
X13736598Y-13357119D01*
X13736600Y-13357119D01*
X13741913Y-13358543D01*
X13747389Y-13359022D01*
X13747394Y-13359023D01*
X13874410Y-13370135D01*
X13955751Y-13377251D01*
X14021869Y-13403114D01*
X14033864Y-13413677D01*
X14336592Y-13716405D01*
X14370618Y-13778717D01*
X14365553Y-13849532D01*
X14323006Y-13906368D01*
X14256486Y-13931179D01*
X14247497Y-13931500D01*
X13121866Y-13931500D01*
X13059684Y-13938255D01*
X12923295Y-13989385D01*
X12806739Y-14076739D01*
X12719385Y-14193295D01*
X12668255Y-14329684D01*
X12661500Y-14391866D01*
X12661500Y-16088134D01*
X12668255Y-16150316D01*
X12719385Y-16286705D01*
X12806739Y-16403261D01*
X12923295Y-16490615D01*
X13059684Y-16541745D01*
X13121866Y-16548500D01*
X14818134Y-16548500D01*
X14880316Y-16541745D01*
X15016705Y-16490615D01*
X15133261Y-16403261D01*
X15220615Y-16286705D01*
X15271745Y-16150316D01*
X15272917Y-16139526D01*
X15273803Y-16137394D01*
X15274425Y-16134778D01*
X15274848Y-16134879D01*
X15300155Y-16073965D01*
X15358517Y-16033537D01*
X15429471Y-16031078D01*
X15490490Y-16067371D01*
X15497489Y-16076031D01*
X15500643Y-16079789D01*
X15503802Y-16084300D01*
X15665700Y-16246198D01*
X15670208Y-16249355D01*
X15670211Y-16249357D01*
X15711542Y-16278297D01*
X15853251Y-16377523D01*
X15858233Y-16379846D01*
X15858238Y-16379849D01*
X16054765Y-16471490D01*
X16060757Y-16474284D01*
X16066065Y-16475706D01*
X16066067Y-16475707D01*
X16276598Y-16532119D01*
X16276600Y-16532119D01*
X16281913Y-16533543D01*
X16510000Y-16553498D01*
X16738087Y-16533543D01*
X16743400Y-16532119D01*
X16743402Y-16532119D01*
X16953933Y-16475707D01*
X16953935Y-16475706D01*
X16959243Y-16474284D01*
X16965235Y-16471490D01*
X17161762Y-16379849D01*
X17161767Y-16379846D01*
X17166749Y-16377523D01*
X17308458Y-16278297D01*
X17349789Y-16249357D01*
X17349792Y-16249355D01*
X17354300Y-16246198D01*
X17516198Y-16084300D01*
X17647523Y-15896749D01*
X17649846Y-15891767D01*
X17649849Y-15891762D01*
X17665805Y-15857543D01*
X17712722Y-15804258D01*
X17780999Y-15784797D01*
X17848959Y-15805339D01*
X17894195Y-15857543D01*
X17910151Y-15891762D01*
X17910154Y-15891767D01*
X17912477Y-15896749D01*
X18043802Y-16084300D01*
X18205700Y-16246198D01*
X18210208Y-16249355D01*
X18210211Y-16249357D01*
X18251542Y-16278297D01*
X18393251Y-16377523D01*
X18398233Y-16379846D01*
X18398238Y-16379849D01*
X18594765Y-16471490D01*
X18600757Y-16474284D01*
X18606065Y-16475706D01*
X18606067Y-16475707D01*
X18816598Y-16532119D01*
X18816600Y-16532119D01*
X18821913Y-16533543D01*
X19050000Y-16553498D01*
X19278087Y-16533543D01*
X19283400Y-16532119D01*
X19283402Y-16532119D01*
X19493933Y-16475707D01*
X19493935Y-16475706D01*
X19499243Y-16474284D01*
X19505235Y-16471490D01*
X19701762Y-16379849D01*
X19701767Y-16379846D01*
X19706749Y-16377523D01*
X19848458Y-16278297D01*
X19889789Y-16249357D01*
X19889792Y-16249355D01*
X19894300Y-16246198D01*
X20056198Y-16084300D01*
X20187523Y-15896749D01*
X20189846Y-15891767D01*
X20189849Y-15891762D01*
X20206081Y-15856951D01*
X20252998Y-15803666D01*
X20321275Y-15784205D01*
X20389235Y-15804747D01*
X20434471Y-15856951D01*
X20450586Y-15891511D01*
X20456069Y-15901007D01*
X20581028Y-16079467D01*
X20588084Y-16087875D01*
X20742125Y-16241916D01*
X20750533Y-16248972D01*
X20928993Y-16373931D01*
X20938489Y-16379414D01*
X21135947Y-16471490D01*
X21146239Y-16475236D01*
X21318503Y-16521394D01*
X21332599Y-16521058D01*
X21336000Y-16513116D01*
X21336000Y-15112000D01*
X21356002Y-15043879D01*
X21409658Y-14997386D01*
X21462000Y-14986000D01*
X21718000Y-14986000D01*
X21786121Y-15006002D01*
X21832614Y-15059658D01*
X21844000Y-15112000D01*
X21844000Y-16507967D01*
X21847973Y-16521498D01*
X21856522Y-16522727D01*
X22033761Y-16475236D01*
X22044053Y-16471490D01*
X22241511Y-16379414D01*
X22251007Y-16373931D01*
X22429467Y-16248972D01*
X22437875Y-16241916D01*
X22591916Y-16087875D01*
X22598972Y-16079467D01*
X22723931Y-15901007D01*
X22729414Y-15891511D01*
X22745529Y-15856951D01*
X22792446Y-15803666D01*
X22860723Y-15784205D01*
X22928683Y-15804747D01*
X22973919Y-15856951D01*
X22990151Y-15891762D01*
X22990154Y-15891767D01*
X22992477Y-15896749D01*
X23123802Y-16084300D01*
X23285700Y-16246198D01*
X23290208Y-16249355D01*
X23290211Y-16249357D01*
X23331542Y-16278297D01*
X23473251Y-16377523D01*
X23478233Y-16379846D01*
X23478238Y-16379849D01*
X23674765Y-16471490D01*
X23680757Y-16474284D01*
X23686065Y-16475706D01*
X23686067Y-16475707D01*
X23896598Y-16532119D01*
X23896600Y-16532119D01*
X23901913Y-16533543D01*
X24130000Y-16553498D01*
X24358087Y-16533543D01*
X24363400Y-16532119D01*
X24363402Y-16532119D01*
X24573933Y-16475707D01*
X24573935Y-16475706D01*
X24579243Y-16474284D01*
X24585235Y-16471490D01*
X24781762Y-16379849D01*
X24781767Y-16379846D01*
X24786749Y-16377523D01*
X24928458Y-16278297D01*
X24969789Y-16249357D01*
X24969792Y-16249355D01*
X24974300Y-16246198D01*
X25136198Y-16084300D01*
X25267523Y-15896749D01*
X25269846Y-15891767D01*
X25269849Y-15891762D01*
X25285805Y-15857543D01*
X25332722Y-15804258D01*
X25400999Y-15784797D01*
X25468959Y-15805339D01*
X25514195Y-15857543D01*
X25530151Y-15891762D01*
X25530154Y-15891767D01*
X25532477Y-15896749D01*
X25663802Y-16084300D01*
X25825700Y-16246198D01*
X25830208Y-16249355D01*
X25830211Y-16249357D01*
X25871542Y-16278297D01*
X26013251Y-16377523D01*
X26018233Y-16379846D01*
X26018238Y-16379849D01*
X26214765Y-16471490D01*
X26220757Y-16474284D01*
X26226065Y-16475706D01*
X26226067Y-16475707D01*
X26436598Y-16532119D01*
X26436600Y-16532119D01*
X26441913Y-16533543D01*
X26670000Y-16553498D01*
X26898087Y-16533543D01*
X26903400Y-16532119D01*
X26903402Y-16532119D01*
X27113933Y-16475707D01*
X27113935Y-16475706D01*
X27119243Y-16474284D01*
X27125235Y-16471490D01*
X27321762Y-16379849D01*
X27321767Y-16379846D01*
X27326749Y-16377523D01*
X27468458Y-16278297D01*
X27509789Y-16249357D01*
X27509792Y-16249355D01*
X27514300Y-16246198D01*
X27676198Y-16084300D01*
X27807523Y-15896749D01*
X27809846Y-15891767D01*
X27809849Y-15891762D01*
X27825805Y-15857543D01*
X27872722Y-15804258D01*
X27940999Y-15784797D01*
X28008959Y-15805339D01*
X28054195Y-15857543D01*
X28070151Y-15891762D01*
X28070154Y-15891767D01*
X28072477Y-15896749D01*
X28203802Y-16084300D01*
X28365700Y-16246198D01*
X28370208Y-16249355D01*
X28370211Y-16249357D01*
X28411542Y-16278297D01*
X28553251Y-16377523D01*
X28558233Y-16379846D01*
X28558238Y-16379849D01*
X28754765Y-16471490D01*
X28760757Y-16474284D01*
X28766065Y-16475706D01*
X28766067Y-16475707D01*
X28976598Y-16532119D01*
X28976600Y-16532119D01*
X28981913Y-16533543D01*
X29210000Y-16553498D01*
X29438087Y-16533543D01*
X29443400Y-16532119D01*
X29443402Y-16532119D01*
X29653933Y-16475707D01*
X29653935Y-16475706D01*
X29659243Y-16474284D01*
X29665235Y-16471490D01*
X29861762Y-16379849D01*
X29861767Y-16379846D01*
X29866749Y-16377523D01*
X30008458Y-16278297D01*
X30049789Y-16249357D01*
X30049792Y-16249355D01*
X30054300Y-16246198D01*
X30216198Y-16084300D01*
X30347523Y-15896749D01*
X30349846Y-15891767D01*
X30349849Y-15891762D01*
X30365805Y-15857543D01*
X30412722Y-15804258D01*
X30480999Y-15784797D01*
X30548959Y-15805339D01*
X30594195Y-15857543D01*
X30610151Y-15891762D01*
X30610154Y-15891767D01*
X30612477Y-15896749D01*
X30743802Y-16084300D01*
X30905700Y-16246198D01*
X30910208Y-16249355D01*
X30910211Y-16249357D01*
X30951542Y-16278297D01*
X31093251Y-16377523D01*
X31098233Y-16379846D01*
X31098238Y-16379849D01*
X31294765Y-16471490D01*
X31300757Y-16474284D01*
X31306065Y-16475706D01*
X31306067Y-16475707D01*
X31516598Y-16532119D01*
X31516600Y-16532119D01*
X31521913Y-16533543D01*
X31750000Y-16553498D01*
X31978087Y-16533543D01*
X31983400Y-16532119D01*
X31983402Y-16532119D01*
X32193933Y-16475707D01*
X32193935Y-16475706D01*
X32199243Y-16474284D01*
X32205235Y-16471490D01*
X32401762Y-16379849D01*
X32401767Y-16379846D01*
X32406749Y-16377523D01*
X32548458Y-16278297D01*
X32589789Y-16249357D01*
X32589792Y-16249355D01*
X32594300Y-16246198D01*
X32756198Y-16084300D01*
X32887523Y-15896749D01*
X32889846Y-15891767D01*
X32889849Y-15891762D01*
X32905805Y-15857543D01*
X32952722Y-15804258D01*
X33020999Y-15784797D01*
X33088959Y-15805339D01*
X33134195Y-15857543D01*
X33150151Y-15891762D01*
X33150154Y-15891767D01*
X33152477Y-15896749D01*
X33283802Y-16084300D01*
X33445700Y-16246198D01*
X33450208Y-16249355D01*
X33450211Y-16249357D01*
X33491542Y-16278297D01*
X33633251Y-16377523D01*
X33638233Y-16379846D01*
X33638238Y-16379849D01*
X33834765Y-16471490D01*
X33840757Y-16474284D01*
X33846064Y-16475706D01*
X34000748Y-16517154D01*
X34061370Y-16554106D01*
X34092392Y-16617967D01*
X34083963Y-16688461D01*
X34057231Y-16727956D01*
X33950592Y-16834595D01*
X33888280Y-16868621D01*
X33861497Y-16871500D01*
X12493503Y-16871500D01*
X12425382Y-16851498D01*
X12404408Y-16834595D01*
X8640383Y-13070570D01*
X8606357Y-13008258D01*
X8611422Y-12937443D01*
X8626265Y-12909204D01*
X8757523Y-12721749D01*
X8759846Y-12716767D01*
X8759849Y-12716762D01*
X8851961Y-12519225D01*
X8851961Y-12519224D01*
X8854284Y-12514243D01*
X8913543Y-12293087D01*
X8933498Y-12065000D01*
X8913543Y-11836913D01*
X8854284Y-11615757D01*
X8802538Y-11504786D01*
X8759849Y-11413238D01*
X8759846Y-11413233D01*
X8757523Y-11408251D01*
X8678836Y-11295875D01*
X8629357Y-11225211D01*
X8629355Y-11225208D01*
X8626198Y-11220700D01*
X8464300Y-11058802D01*
X8459792Y-11055645D01*
X8459789Y-11055643D01*
X8381611Y-11000902D01*
X8276749Y-10927477D01*
X8271767Y-10925154D01*
X8271762Y-10925151D01*
X8074225Y-10833039D01*
X8074224Y-10833039D01*
X8069243Y-10830716D01*
X8063935Y-10829294D01*
X8063933Y-10829293D01*
X7853402Y-10772881D01*
X7853400Y-10772881D01*
X7848087Y-10771457D01*
X7620000Y-10751502D01*
X7391913Y-10771457D01*
X7386600Y-10772881D01*
X7386598Y-10772881D01*
X7176067Y-10829293D01*
X7176065Y-10829294D01*
X7170757Y-10830716D01*
X7165776Y-10833039D01*
X7165775Y-10833039D01*
X6968238Y-10925151D01*
X6968233Y-10925154D01*
X6963251Y-10927477D01*
X6858389Y-11000902D01*
X6780211Y-11055643D01*
X6780208Y-11055645D01*
X6775700Y-11058802D01*
X6613802Y-11220700D01*
X6610645Y-11225208D01*
X6610643Y-11225211D01*
X6561164Y-11295875D01*
X6482477Y-11408251D01*
X6480154Y-11413233D01*
X6480151Y-11413238D01*
X6437462Y-11504786D01*
X6385716Y-11615757D01*
X6326457Y-11836913D01*
X6306502Y-12065000D01*
X6326457Y-12293087D01*
X6385716Y-12514243D01*
X6388039Y-12519224D01*
X6388039Y-12519225D01*
X6480151Y-12716762D01*
X6480154Y-12716767D01*
X6482477Y-12721749D01*
X6485634Y-12726257D01*
X6585400Y-12868738D01*
X6608088Y-12936012D01*
X6590803Y-13004873D01*
X6539033Y-13053457D01*
X6475593Y-13066836D01*
X6451950Y-13065597D01*
X6424616Y-13064164D01*
X6418042Y-13063647D01*
X6400884Y-13061844D01*
X6400882Y-13061844D01*
X6397610Y-13061500D01*
X6377074Y-13061500D01*
X6370480Y-13061327D01*
X6308782Y-13058093D01*
X6308777Y-13058093D01*
X6302190Y-13057748D01*
X6288292Y-13059949D01*
X6268583Y-13061500D01*
X4843916Y-13061500D01*
X4824207Y-13059949D01*
X4810309Y-13057748D01*
X4803722Y-13058093D01*
X4803717Y-13058093D01*
X4742019Y-13061327D01*
X4735425Y-13061500D01*
X4714890Y-13061500D01*
X4708722Y-13062148D01*
X4694460Y-13063647D01*
X4687885Y-13064164D01*
X4626196Y-13067397D01*
X4626195Y-13067397D01*
X4619596Y-13067743D01*
X4606008Y-13071384D01*
X4586561Y-13074988D01*
X4579144Y-13075767D01*
X4579140Y-13075768D01*
X4572572Y-13076458D01*
X4515776Y-13094912D01*
X4507509Y-13097598D01*
X4501185Y-13099471D01*
X4441510Y-13115461D01*
X4441506Y-13115462D01*
X4435130Y-13117171D01*
X4429248Y-13120168D01*
X4422593Y-13123559D01*
X4404326Y-13131125D01*
X4397228Y-13133431D01*
X4397226Y-13133432D01*
X4390944Y-13135473D01*
X4385222Y-13138777D01*
X4385221Y-13138777D01*
X4331723Y-13169664D01*
X4325926Y-13172812D01*
X4270852Y-13200873D01*
X4270849Y-13200875D01*
X4264969Y-13203871D01*
X4254026Y-13212733D01*
X4237737Y-13223927D01*
X4225556Y-13230960D01*
X4220650Y-13235377D01*
X4220645Y-13235381D01*
X4174721Y-13276731D01*
X4169720Y-13281003D01*
X4153759Y-13293928D01*
X4139244Y-13308443D01*
X4134459Y-13312984D01*
X4083634Y-13358747D01*
X4079755Y-13364086D01*
X4079754Y-13364087D01*
X4075360Y-13370135D01*
X4062519Y-13385168D01*
X3225168Y-14222519D01*
X3210135Y-14235360D01*
X3198747Y-14243634D01*
X3194327Y-14248543D01*
X3152984Y-14294459D01*
X3148443Y-14299244D01*
X3133928Y-14313759D01*
X3131852Y-14316323D01*
X3121006Y-14329716D01*
X3116722Y-14334731D01*
X3075381Y-14380645D01*
X3075377Y-14380650D01*
X3070960Y-14385556D01*
X3067660Y-14391272D01*
X3067657Y-14391276D01*
X3063927Y-14397737D01*
X3052727Y-14414033D01*
X3043871Y-14424970D01*
X3012815Y-14485921D01*
X3009669Y-14491715D01*
X2975473Y-14550944D01*
X2973432Y-14557226D01*
X2973431Y-14557228D01*
X2971125Y-14564326D01*
X2963560Y-14582592D01*
X2957171Y-14595130D01*
X2955463Y-14601503D01*
X2955463Y-14601504D01*
X2939469Y-14661195D01*
X2937600Y-14667503D01*
X2916458Y-14732572D01*
X2915768Y-14739137D01*
X2915766Y-14739146D01*
X2914985Y-14746575D01*
X2911383Y-14766009D01*
X2909453Y-14773214D01*
X2907743Y-14779597D01*
X2907398Y-14786188D01*
X2907397Y-14786192D01*
X2904164Y-14847884D01*
X2903647Y-14854458D01*
X2901844Y-14871616D01*
X2901500Y-14874890D01*
X2901500Y-14895426D01*
X2901327Y-14902020D01*
X2900626Y-14915405D01*
X2897748Y-14970310D01*
X2898780Y-14976825D01*
X2899949Y-14984205D01*
X2901500Y-15003917D01*
X2901500Y-17983737D01*
X2881498Y-18051858D01*
X2866594Y-18070788D01*
X2750629Y-18192138D01*
X2624743Y-18376680D01*
X2608899Y-18410814D01*
X2546088Y-18546129D01*
X2530688Y-18579305D01*
X2470989Y-18794570D01*
X2447251Y-19016695D01*
X2460110Y-19239715D01*
X2461247Y-19244761D01*
X2461248Y-19244767D01*
X2474597Y-19304000D01*
X2509222Y-19457639D01*
X2593266Y-19664616D01*
X2709987Y-19855088D01*
X2856250Y-20023938D01*
X3028126Y-20166632D01*
X3098595Y-20207811D01*
X3101445Y-20209476D01*
X3150169Y-20261114D01*
X3163240Y-20330897D01*
X3136509Y-20396669D01*
X3096055Y-20430027D01*
X3083607Y-20436507D01*
X3079474Y-20439610D01*
X3079471Y-20439612D01*
X2909100Y-20567530D01*
X2904965Y-20570635D01*
X2840143Y-20638468D01*
X2836241Y-20642551D01*
X2774717Y-20677981D01*
X2745147Y-20681500D01*
X2689336Y-20681500D01*
X2669626Y-20679949D01*
X2662246Y-20678780D01*
X2662245Y-20678780D01*
X2655729Y-20677748D01*
X2649142Y-20678093D01*
X2649137Y-20678093D01*
X2587439Y-20681327D01*
X2580845Y-20681500D01*
X2560309Y-20681500D01*
X2557037Y-20681844D01*
X2557035Y-20681844D01*
X2539877Y-20683647D01*
X2533303Y-20684164D01*
X2471615Y-20687397D01*
X2471613Y-20687397D01*
X2465016Y-20687743D01*
X2451423Y-20691385D01*
X2431994Y-20694986D01*
X2417991Y-20696458D01*
X2352944Y-20717593D01*
X2346631Y-20719463D01*
X2325993Y-20724993D01*
X2286922Y-20735462D01*
X2286919Y-20735463D01*
X2280549Y-20737170D01*
X2268004Y-20743562D01*
X2249745Y-20751125D01*
X2236363Y-20755473D01*
X2230642Y-20758776D01*
X2177142Y-20789664D01*
X2171345Y-20792812D01*
X2116270Y-20820874D01*
X2116267Y-20820876D01*
X2110389Y-20823871D01*
X2105261Y-20828024D01*
X2105259Y-20828025D01*
X2099453Y-20832727D01*
X2083156Y-20843927D01*
X2076695Y-20847657D01*
X2076691Y-20847660D01*
X2070975Y-20850960D01*
X2066069Y-20855377D01*
X2066064Y-20855381D01*
X2020150Y-20896722D01*
X2015135Y-20901006D01*
X2006637Y-20907888D01*
X1999178Y-20913928D01*
X1984663Y-20928443D01*
X1979878Y-20932984D01*
X1929053Y-20978747D01*
X1925174Y-20984086D01*
X1925173Y-20984087D01*
X1920779Y-20990135D01*
X1907938Y-21005168D01*
X1725657Y-21187449D01*
X1710624Y-21200290D01*
X1699236Y-21208564D01*
X1694816Y-21213473D01*
X1653473Y-21259389D01*
X1648932Y-21264174D01*
X1634417Y-21278689D01*
X1632341Y-21281253D01*
X1621495Y-21294646D01*
X1617211Y-21299661D01*
X1575870Y-21345575D01*
X1575866Y-21345580D01*
X1571449Y-21350486D01*
X1568149Y-21356202D01*
X1568146Y-21356206D01*
X1564416Y-21362667D01*
X1553216Y-21378963D01*
X1544360Y-21389900D01*
X1513304Y-21450851D01*
X1510158Y-21456645D01*
X1475962Y-21515874D01*
X1473921Y-21522156D01*
X1473920Y-21522158D01*
X1471614Y-21529256D01*
X1464049Y-21547522D01*
X1457660Y-21560060D01*
X1455952Y-21566433D01*
X1455952Y-21566434D01*
X1439958Y-21626125D01*
X1438089Y-21632433D01*
X1416947Y-21697502D01*
X1416257Y-21704067D01*
X1416255Y-21704076D01*
X1415474Y-21711505D01*
X1411872Y-21730939D01*
X1409942Y-21738144D01*
X1408232Y-21744527D01*
X1407887Y-21751118D01*
X1407886Y-21751122D01*
X1404653Y-21812814D01*
X1404136Y-21819388D01*
X1402333Y-21836546D01*
X1401989Y-21839820D01*
X1401989Y-21860356D01*
X1401816Y-21866950D01*
X1398237Y-21935240D01*
X1399269Y-21941755D01*
X1400438Y-21949135D01*
X1401989Y-21968847D01*
X1401989Y-29534072D01*
X1400438Y-29553781D01*
X1398237Y-29567679D01*
X508000Y-29567679D01*
X508000Y-3175000D01*
X1561526Y-3175000D01*
X1581391Y-3427403D01*
X1582545Y-3432210D01*
X1582546Y-3432216D01*
X1611174Y-3551458D01*
X1640495Y-3673591D01*
X1642388Y-3678162D01*
X1642389Y-3678164D01*
X1717778Y-3860168D01*
X1737384Y-3907502D01*
X1869672Y-4123376D01*
X2034102Y-4315898D01*
X2226624Y-4480328D01*
X2442498Y-4612616D01*
X2447068Y-4614509D01*
X2447072Y-4614511D01*
X2671836Y-4707611D01*
X2676409Y-4709505D01*
X2761032Y-4729821D01*
X2917784Y-4767454D01*
X2917790Y-4767455D01*
X2922597Y-4768609D01*
X3022416Y-4776465D01*
X3109345Y-4783307D01*
X3109352Y-4783307D01*
X3111801Y-4783500D01*
X3238199Y-4783500D01*
X3240648Y-4783307D01*
X3240655Y-4783307D01*
X3327584Y-4776465D01*
X3427403Y-4768609D01*
X3432210Y-4767455D01*
X3432216Y-4767454D01*
X3588968Y-4729821D01*
X3673591Y-4709505D01*
X3678164Y-4707611D01*
X3902928Y-4614511D01*
X3902932Y-4614509D01*
X3907502Y-4612616D01*
X4123376Y-4480328D01*
X4315898Y-4315898D01*
X4480328Y-4123376D01*
X4612616Y-3907502D01*
X4632223Y-3860168D01*
X4707611Y-3678164D01*
X4707612Y-3678162D01*
X4709505Y-3673591D01*
X4738826Y-3551458D01*
X4767454Y-3432216D01*
X4767455Y-3432210D01*
X4768609Y-3427403D01*
X4788474Y-3175000D01*
X4768609Y-2922597D01*
X4709505Y-2676409D01*
X4670682Y-2582681D01*
X4614511Y-2447072D01*
X4614509Y-2447068D01*
X4612616Y-2442498D01*
X4480328Y-2226624D01*
X4315898Y-2034102D01*
X4123376Y-1869672D01*
X3907502Y-1737384D01*
X3902932Y-1735491D01*
X3902928Y-1735489D01*
X3678164Y-1642389D01*
X3678162Y-1642388D01*
X3673591Y-1640495D01*
X3588968Y-1620179D01*
X3432216Y-1582546D01*
X3432210Y-1582545D01*
X3427403Y-1581391D01*
X3327584Y-1573535D01*
X3240655Y-1566693D01*
X3240648Y-1566693D01*
X3238199Y-1566500D01*
X3111801Y-1566500D01*
X3109352Y-1566693D01*
X3109345Y-1566693D01*
X3022416Y-1573535D01*
X2922597Y-1581391D01*
X2917790Y-1582545D01*
X2917784Y-1582546D01*
X2761032Y-1620179D01*
X2676409Y-1640495D01*
X2671838Y-1642388D01*
X2671836Y-1642389D01*
X2447072Y-1735489D01*
X2447068Y-1735491D01*
X2442498Y-1737384D01*
X2226624Y-1869672D01*
X2034102Y-2034102D01*
X1869672Y-2226624D01*
X1737384Y-2442498D01*
X1735491Y-2447068D01*
X1735489Y-2447072D01*
X1679318Y-2582681D01*
X1640495Y-2676409D01*
X1581391Y-2922597D01*
X1561526Y-3175000D01*
X508000Y-3175000D01*
X508000Y-2613796D01*
X511657Y-2583660D01*
X567206Y-2358146D01*
X571201Y-2345043D01*
X666518Y-2084156D01*
X671911Y-2071563D01*
X794990Y-1822559D01*
X801719Y-1810626D01*
X827502Y-1770210D01*
X951112Y-1576443D01*
X959078Y-1565337D01*
X1133018Y-1348748D01*
X1142155Y-1338560D01*
X1338560Y-1142155D01*
X1348748Y-1133018D01*
X1565337Y-959078D01*
X1576443Y-951112D01*
X1810628Y-801718D01*
X1822559Y-794990D01*
X1921729Y-745972D01*
X2071563Y-671911D01*
X2084156Y-666518D01*
X2345043Y-571201D01*
X2358146Y-567206D01*
X2583659Y-511657D01*
X2613795Y-508000D01*
X9967997Y-508000D01*
X10036118Y-528002D01*
G37*
%TD.AperFunction*%
%TA.AperFunction,Conductor*%
G36*
X5989618Y-14898502D02*
G01*
X6010592Y-14915405D01*
X11365019Y-20269832D01*
X11377860Y-20284865D01*
X11386134Y-20296253D01*
X11391043Y-20300673D01*
X11436959Y-20342016D01*
X11441744Y-20346557D01*
X11456259Y-20361072D01*
X11458823Y-20363148D01*
X11472216Y-20373994D01*
X11477231Y-20378278D01*
X11523145Y-20419619D01*
X11523150Y-20419623D01*
X11528056Y-20424040D01*
X11533772Y-20427340D01*
X11533776Y-20427343D01*
X11540237Y-20431073D01*
X11556533Y-20442273D01*
X11567470Y-20451129D01*
X11568147Y-20451474D01*
X11612971Y-20503707D01*
X11622738Y-20574029D01*
X11592936Y-20638468D01*
X11533027Y-20676565D01*
X11498108Y-20681500D01*
X7415856Y-20681500D01*
X7347735Y-20661498D01*
X7322662Y-20640299D01*
X7283148Y-20596873D01*
X7283145Y-20596870D01*
X7279670Y-20593051D01*
X7186573Y-20519527D01*
X7108414Y-20457800D01*
X7108410Y-20457798D01*
X7104359Y-20454598D01*
X7062569Y-20431529D01*
X7012598Y-20381097D01*
X6997826Y-20311654D01*
X7022942Y-20245248D01*
X7050294Y-20218641D01*
X7225328Y-20093792D01*
X7233200Y-20087139D01*
X7384052Y-19936812D01*
X7390730Y-19928965D01*
X7515003Y-19756020D01*
X7520313Y-19747183D01*
X7614670Y-19556267D01*
X7618469Y-19546672D01*
X7680377Y-19342910D01*
X7682555Y-19332837D01*
X7683986Y-19321962D01*
X7681775Y-19307778D01*
X7668617Y-19304000D01*
X6222000Y-19304000D01*
X6153879Y-19283998D01*
X6107386Y-19230342D01*
X6096000Y-19178000D01*
X6096000Y-18777885D01*
X6604000Y-18777885D01*
X6608475Y-18793124D01*
X6609865Y-18794329D01*
X6617548Y-18796000D01*
X7668344Y-18796000D01*
X7681875Y-18792027D01*
X7683180Y-18782947D01*
X7641214Y-18615875D01*
X7637894Y-18606124D01*
X7552972Y-18410814D01*
X7548105Y-18401739D01*
X7432426Y-18222926D01*
X7426136Y-18214757D01*
X7282806Y-18057240D01*
X7275273Y-18050215D01*
X7108139Y-17918222D01*
X7099552Y-17912517D01*
X6913117Y-17809599D01*
X6903705Y-17805369D01*
X6702959Y-17734280D01*
X6692988Y-17731646D01*
X6621837Y-17718972D01*
X6608540Y-17720432D01*
X6604000Y-17734989D01*
X6604000Y-18777885D01*
X6096000Y-18777885D01*
X6096000Y-17733102D01*
X6092082Y-17719758D01*
X6077806Y-17717771D01*
X6039324Y-17723660D01*
X6029288Y-17726051D01*
X5826868Y-17792212D01*
X5817359Y-17796209D01*
X5628463Y-17894542D01*
X5619738Y-17900036D01*
X5449433Y-18027905D01*
X5441726Y-18034748D01*
X5294590Y-18188717D01*
X5288109Y-18196722D01*
X5183498Y-18350074D01*
X5128587Y-18395076D01*
X5058062Y-18403247D01*
X4994315Y-18371993D01*
X4973618Y-18347509D01*
X4892822Y-18222617D01*
X4892820Y-18222614D01*
X4890014Y-18218277D01*
X4886532Y-18214450D01*
X4751307Y-18065839D01*
X4720255Y-18001993D01*
X4718500Y-17981039D01*
X4718500Y-15351003D01*
X4738502Y-15282882D01*
X4755405Y-15261908D01*
X5101908Y-14915405D01*
X5164220Y-14881379D01*
X5191003Y-14878500D01*
X5921497Y-14878500D01*
X5989618Y-14898502D01*
G37*
%TD.AperFunction*%
%TD*%
M02*
