%TF.GenerationSoftware,KiCad,Pcbnew,6.0.2+dfsg-1*%
%TF.CreationDate,2022-06-13T23:01:13-04:00*%
%TF.ProjectId,NanoISP,4e616e6f-4953-4502-9e6b-696361645f70,rev?*%
%TF.SameCoordinates,PX6521e48PY1aa54a0*%
%TF.FileFunction,Copper,L2,Bot*%
%TF.FilePolarity,Positive*%
%FSLAX46Y46*%
G04 Gerber Fmt 4.6, Leading zero omitted, Abs format (unit mm)*
G04 Created by KiCad (PCBNEW 6.0.2+dfsg-1) date 2022-06-13 23:01:13*
%MOMM*%
%LPD*%
G01*
G04 APERTURE LIST*
%TA.AperFunction,ComponentPad*%
%ADD10R,1.600000X1.600000*%
%TD*%
%TA.AperFunction,ComponentPad*%
%ADD11O,1.600000X1.600000*%
%TD*%
%TA.AperFunction,ComponentPad*%
%ADD12C,1.600000*%
%TD*%
%TA.AperFunction,ComponentPad*%
%ADD13R,1.800000X1.800000*%
%TD*%
%TA.AperFunction,ComponentPad*%
%ADD14C,1.800000*%
%TD*%
%TA.AperFunction,ComponentPad*%
%ADD15R,1.700000X1.700000*%
%TD*%
%TA.AperFunction,ComponentPad*%
%ADD16O,1.700000X1.700000*%
%TD*%
%TA.AperFunction,ViaPad*%
%ADD17C,1.200000*%
%TD*%
%TA.AperFunction,Conductor*%
%ADD18C,0.800000*%
%TD*%
%TA.AperFunction,Conductor*%
%ADD19C,0.600000*%
%TD*%
G04 APERTURE END LIST*
D10*
%TO.P,A1,1,D1/TX*%
%TO.N,unconnected-(A1-Pad1)*%
X40005000Y-15240000D03*
D11*
%TO.P,A1,2,D0/RX*%
%TO.N,unconnected-(A1-Pad2)*%
X37465000Y-15240000D03*
%TO.P,A1,3,~{RESET}*%
%TO.N,unconnected-(A1-Pad3)*%
X34925000Y-15240000D03*
%TO.P,A1,4,GND*%
%TO.N,/GND*%
X32385000Y-15240000D03*
%TO.P,A1,5,D2*%
%TO.N,unconnected-(A1-Pad5)*%
X29845000Y-15240000D03*
%TO.P,A1,6,D3*%
%TO.N,unconnected-(A1-Pad6)*%
X27305000Y-15240000D03*
%TO.P,A1,7,D4*%
%TO.N,unconnected-(A1-Pad7)*%
X24765000Y-15240000D03*
%TO.P,A1,8,D5*%
%TO.N,unconnected-(A1-Pad8)*%
X22225000Y-15240000D03*
%TO.P,A1,9,D6*%
%TO.N,unconnected-(A1-Pad9)*%
X19685000Y-15240000D03*
%TO.P,A1,10,D7*%
%TO.N,Net-(A1-Pad10)*%
X17145000Y-15240000D03*
%TO.P,A1,11,D8*%
%TO.N,Net-(A1-Pad11)*%
X14605000Y-15240000D03*
%TO.P,A1,12,D9*%
%TO.N,Net-(A1-Pad12)*%
X12065000Y-15240000D03*
%TO.P,A1,13,D10*%
%TO.N,Net-(A1-Pad13)*%
X9525000Y-15240000D03*
%TO.P,A1,14,D11*%
%TO.N,Net-(A1-Pad14)*%
X6985000Y-15240000D03*
%TO.P,A1,15,D12*%
%TO.N,Net-(A1-Pad15)*%
X4445000Y-15240000D03*
%TO.P,A1,16,D13*%
%TO.N,Net-(A1-Pad16)*%
X4445000Y-30480000D03*
%TO.P,A1,17,3V3*%
%TO.N,unconnected-(A1-Pad17)*%
X6985000Y-30480000D03*
%TO.P,A1,18,AREF*%
%TO.N,unconnected-(A1-Pad18)*%
X9525000Y-30480000D03*
%TO.P,A1,19,A0*%
%TO.N,unconnected-(A1-Pad19)*%
X12065000Y-30480000D03*
%TO.P,A1,20,A1*%
%TO.N,unconnected-(A1-Pad20)*%
X14605000Y-30480000D03*
%TO.P,A1,21,A2*%
%TO.N,unconnected-(A1-Pad21)*%
X17145000Y-30480000D03*
%TO.P,A1,22,A3*%
%TO.N,unconnected-(A1-Pad22)*%
X19685000Y-30480000D03*
%TO.P,A1,23,A4*%
%TO.N,unconnected-(A1-Pad23)*%
X22225000Y-30480000D03*
%TO.P,A1,24,A5*%
%TO.N,unconnected-(A1-Pad24)*%
X24765000Y-30480000D03*
%TO.P,A1,25,A6*%
%TO.N,unconnected-(A1-Pad25)*%
X27305000Y-30480000D03*
%TO.P,A1,26,A7*%
%TO.N,unconnected-(A1-Pad26)*%
X29845000Y-30480000D03*
%TO.P,A1,27,+5V*%
%TO.N,unconnected-(A1-Pad27)*%
X32385000Y-30480000D03*
%TO.P,A1,28,~{RESET}*%
%TO.N,unconnected-(A1-Pad28)*%
X34925000Y-30480000D03*
%TO.P,A1,29,GND*%
%TO.N,/GND*%
X37465000Y-30480000D03*
%TO.P,A1,30,VIN*%
%TO.N,Net-(A1-Pad30)*%
X40005000Y-30480000D03*
%TD*%
D12*
%TO.P,R1,1*%
%TO.N,Net-(D1-Pad2)*%
X20320000Y-4445000D03*
D11*
%TO.P,R1,2*%
%TO.N,Net-(A1-Pad10)*%
X20320000Y-12065000D03*
%TD*%
D12*
%TO.P,R2,1*%
%TO.N,Net-(D2-Pad2)*%
X13970000Y-4445000D03*
D11*
%TO.P,R2,2*%
%TO.N,Net-(A1-Pad11)*%
X13970000Y-12065000D03*
%TD*%
D12*
%TO.P,R3,1*%
%TO.N,Net-(D3-Pad2)*%
X7620000Y-4445000D03*
D11*
%TO.P,R3,2*%
%TO.N,Net-(A1-Pad12)*%
X7620000Y-12065000D03*
%TD*%
D13*
%TO.P,D3,1,K*%
%TO.N,/GND*%
X46990000Y-10160000D03*
D14*
%TO.P,D3,2,A*%
%TO.N,Net-(D3-Pad2)*%
X46990000Y-7620000D03*
%TD*%
D15*
%TO.P,J1,1,Pin_1*%
%TO.N,Net-(A1-Pad15)*%
X51435000Y-25400000D03*
D16*
%TO.P,J1,2,Pin_2*%
%TO.N,Net-(A1-Pad30)*%
X48895000Y-25400000D03*
%TO.P,J1,3,Pin_3*%
%TO.N,Net-(A1-Pad16)*%
X51435000Y-22860000D03*
%TO.P,J1,4,Pin_4*%
%TO.N,Net-(A1-Pad14)*%
X48895000Y-22860000D03*
%TO.P,J1,5,Pin_5*%
%TO.N,Net-(A1-Pad13)*%
X51435000Y-20320000D03*
%TO.P,J1,6,Pin_6*%
%TO.N,/GND*%
X48895000Y-20320000D03*
%TD*%
D13*
%TO.P,D2,1,K*%
%TO.N,/GND*%
X37465000Y-10160000D03*
D14*
%TO.P,D2,2,A*%
%TO.N,Net-(D2-Pad2)*%
X37465000Y-7620000D03*
%TD*%
D13*
%TO.P,D1,1,K*%
%TO.N,/GND*%
X27940000Y-10160000D03*
D14*
%TO.P,D1,2,A*%
%TO.N,Net-(D1-Pad2)*%
X27940000Y-7620000D03*
%TD*%
D17*
%TO.N,Net-(A1-Pad13)*%
X45720000Y-15240000D03*
X45720000Y-19685000D03*
%TO.N,Net-(A1-Pad15)*%
X45720000Y-25400000D03*
X45720000Y-30480000D03*
%TD*%
D18*
%TO.N,Net-(A1-Pad13)*%
X45720000Y-15240000D02*
X51435000Y-20320000D01*
%TO.N,Net-(A1-Pad15)*%
X51435000Y-25400000D02*
X45720000Y-30480000D01*
%TO.N,Net-(A1-Pad13)*%
X45720000Y-19685000D02*
X13970000Y-19685000D01*
X13970000Y-19685000D02*
X9525000Y-15240000D01*
%TO.N,Net-(A1-Pad14)*%
X6985000Y-15240000D02*
X14605000Y-22860000D01*
X14605000Y-22860000D02*
X48895000Y-22860000D01*
%TO.N,Net-(A1-Pad15)*%
X45720000Y-25400000D02*
X14605000Y-25400000D01*
X14605000Y-25400000D02*
X4445000Y-15240000D01*
%TO.N,Net-(A1-Pad16)*%
X51435000Y-22860000D02*
X52637081Y-22860000D01*
X53340000Y-23562919D02*
X53340000Y-26670000D01*
X47625000Y-32385000D02*
X6350000Y-32385000D01*
X52637081Y-22860000D02*
X53340000Y-23562919D01*
X53340000Y-26670000D02*
X47625000Y-32385000D01*
X6350000Y-32385000D02*
X4445000Y-30480000D01*
%TO.N,Net-(A1-Pad30)*%
X48895000Y-25400000D02*
X43815000Y-30480000D01*
X43815000Y-30480000D02*
X40005000Y-30480000D01*
%TO.N,Net-(A1-Pad12)*%
X12065000Y-15240000D02*
X8890000Y-12065000D01*
X8890000Y-12065000D02*
X7620000Y-12065000D01*
%TO.N,Net-(A1-Pad11)*%
X14605000Y-15240000D02*
X14605000Y-12700000D01*
X14605000Y-12700000D02*
X13970000Y-12065000D01*
%TO.N,Net-(A1-Pad10)*%
X20320000Y-12065000D02*
X17145000Y-15240000D01*
%TO.N,Net-(D3-Pad2)*%
X7620000Y-4445000D02*
X10119031Y-1945969D01*
X10119031Y-1945969D02*
X41315969Y-1945969D01*
X41315969Y-1945969D02*
X46990000Y-7620000D01*
%TO.N,Net-(D2-Pad2)*%
X13970000Y-4445000D02*
X15419511Y-2995489D01*
X32840489Y-2995489D02*
X37465000Y-7620000D01*
X15419511Y-2995489D02*
X32840489Y-2995489D01*
%TO.N,Net-(D1-Pad2)*%
X20320000Y-4445000D02*
X24765000Y-4445000D01*
X24765000Y-4445000D02*
X27940000Y-7620000D01*
D19*
%TO.N,Net-(D3-Pad2)*%
X46990000Y-7620000D02*
X46990000Y-6985000D01*
%TD*%
%TA.AperFunction,Conductor*%
%TO.N,/GND*%
G36*
X51405057Y-509500D02*
G01*
X51419858Y-511805D01*
X51419861Y-511805D01*
X51428730Y-513186D01*
X51444999Y-511059D01*
X51469567Y-510266D01*
X51691985Y-524844D01*
X51708326Y-526995D01*
X51952824Y-575629D01*
X51968743Y-579895D01*
X52204790Y-660022D01*
X52220017Y-666329D01*
X52443592Y-776584D01*
X52457865Y-784825D01*
X52665133Y-923316D01*
X52678206Y-933346D01*
X52808205Y-1047352D01*
X52865632Y-1097714D01*
X52877286Y-1109368D01*
X52909090Y-1145633D01*
X53032844Y-1286747D01*
X53041651Y-1296790D01*
X53051684Y-1309867D01*
X53190175Y-1517135D01*
X53198416Y-1531408D01*
X53308671Y-1754983D01*
X53314978Y-1770210D01*
X53395105Y-2006257D01*
X53399371Y-2022176D01*
X53448005Y-2266673D01*
X53450156Y-2283014D01*
X53464264Y-2498268D01*
X53463239Y-2521304D01*
X53463196Y-2524854D01*
X53461814Y-2533730D01*
X53464274Y-2552539D01*
X53465936Y-2565251D01*
X53467000Y-2581589D01*
X53467000Y-22100916D01*
X53446998Y-22169037D01*
X53393342Y-22215530D01*
X53323068Y-22225634D01*
X53258488Y-22196140D01*
X53251905Y-22190011D01*
X53245822Y-22183928D01*
X53238363Y-22177888D01*
X53229865Y-22171006D01*
X53224850Y-22166722D01*
X53178936Y-22125381D01*
X53178931Y-22125377D01*
X53174025Y-22120960D01*
X53168309Y-22117660D01*
X53168305Y-22117657D01*
X53161844Y-22113927D01*
X53145547Y-22102727D01*
X53139741Y-22098025D01*
X53139739Y-22098024D01*
X53134611Y-22093871D01*
X53073658Y-22062814D01*
X53067863Y-22059667D01*
X53014360Y-22028777D01*
X53014359Y-22028776D01*
X53008637Y-22025473D01*
X53002355Y-22023432D01*
X53002353Y-22023431D01*
X52995255Y-22021125D01*
X52976988Y-22013559D01*
X52964451Y-22007171D01*
X52898380Y-21989467D01*
X52892078Y-21987600D01*
X52827009Y-21966458D01*
X52820444Y-21965768D01*
X52820435Y-21965766D01*
X52813006Y-21964985D01*
X52793572Y-21961383D01*
X52786367Y-21959453D01*
X52786365Y-21959453D01*
X52779984Y-21957743D01*
X52773393Y-21957398D01*
X52773389Y-21957397D01*
X52711697Y-21954164D01*
X52705123Y-21953647D01*
X52687965Y-21951844D01*
X52687963Y-21951844D01*
X52684691Y-21951500D01*
X52664155Y-21951500D01*
X52657561Y-21951327D01*
X52595863Y-21948093D01*
X52595858Y-21948093D01*
X52589271Y-21947748D01*
X52575373Y-21949949D01*
X52555664Y-21951500D01*
X52500856Y-21951500D01*
X52432735Y-21931498D01*
X52407662Y-21910299D01*
X52368148Y-21866873D01*
X52368145Y-21866870D01*
X52364670Y-21863051D01*
X52301600Y-21813241D01*
X52193414Y-21727800D01*
X52193410Y-21727798D01*
X52189359Y-21724598D01*
X52148053Y-21701796D01*
X52098084Y-21651364D01*
X52083312Y-21581921D01*
X52108428Y-21515516D01*
X52135780Y-21488909D01*
X52179603Y-21457650D01*
X52314860Y-21361173D01*
X52473096Y-21203489D01*
X52603453Y-21022077D01*
X52616995Y-20994678D01*
X52700136Y-20826453D01*
X52700137Y-20826451D01*
X52702430Y-20821811D01*
X52767370Y-20608069D01*
X52796529Y-20386590D01*
X52798156Y-20320000D01*
X52779852Y-20097361D01*
X52725431Y-19880702D01*
X52636354Y-19675840D01*
X52515014Y-19488277D01*
X52364670Y-19323051D01*
X52360619Y-19319852D01*
X52360615Y-19319848D01*
X52193414Y-19187800D01*
X52193410Y-19187798D01*
X52189359Y-19184598D01*
X52153028Y-19164542D01*
X52051525Y-19108510D01*
X51993789Y-19076638D01*
X51988920Y-19074914D01*
X51988916Y-19074912D01*
X51788087Y-19003795D01*
X51788083Y-19003794D01*
X51783212Y-19002069D01*
X51778119Y-19001162D01*
X51778116Y-19001161D01*
X51568373Y-18963800D01*
X51568367Y-18963799D01*
X51563284Y-18962894D01*
X51495782Y-18962069D01*
X51345083Y-18960228D01*
X51345081Y-18960228D01*
X51339911Y-18960165D01*
X51334793Y-18960948D01*
X51330894Y-18961221D01*
X51261543Y-18946022D01*
X51238389Y-18929702D01*
X48563756Y-16552251D01*
X46827227Y-15008669D01*
X46789668Y-14948698D01*
X46760875Y-14846606D01*
X46760874Y-14846604D01*
X46759307Y-14841047D01*
X46748680Y-14819496D01*
X46671756Y-14663510D01*
X46669201Y-14658329D01*
X46650796Y-14633681D01*
X46550758Y-14499715D01*
X46550758Y-14499714D01*
X46547305Y-14495091D01*
X46397703Y-14356800D01*
X46329763Y-14313933D01*
X46230288Y-14251169D01*
X46230283Y-14251167D01*
X46225404Y-14248088D01*
X46036180Y-14172595D01*
X45836366Y-14132849D01*
X45830592Y-14132773D01*
X45830588Y-14132773D01*
X45727452Y-14131424D01*
X45632655Y-14130183D01*
X45626958Y-14131162D01*
X45626957Y-14131162D01*
X45437567Y-14163705D01*
X45431870Y-14164684D01*
X45240734Y-14235198D01*
X45235773Y-14238150D01*
X45235772Y-14238150D01*
X45177876Y-14272595D01*
X45065649Y-14339363D01*
X44912478Y-14473690D01*
X44908911Y-14478215D01*
X44908906Y-14478220D01*
X44829661Y-14578743D01*
X44786351Y-14633681D01*
X44783662Y-14638792D01*
X44783660Y-14638795D01*
X44763910Y-14676334D01*
X44691492Y-14813978D01*
X44631078Y-15008543D01*
X44607132Y-15210859D01*
X44620457Y-15414151D01*
X44670605Y-15611610D01*
X44755898Y-15796624D01*
X44873479Y-15962997D01*
X44877613Y-15967024D01*
X45005423Y-16091531D01*
X45019410Y-16105157D01*
X45024206Y-16108362D01*
X45024209Y-16108364D01*
X45086995Y-16150316D01*
X45188803Y-16218342D01*
X45194106Y-16220620D01*
X45194109Y-16220622D01*
X45328351Y-16278297D01*
X45375987Y-16298763D01*
X45563113Y-16341105D01*
X45569234Y-16342490D01*
X45625136Y-16371209D01*
X48413069Y-18849372D01*
X48450694Y-18909579D01*
X48449797Y-18980570D01*
X48410661Y-19039806D01*
X48376147Y-19059050D01*
X48376634Y-19060208D01*
X48362359Y-19066209D01*
X48173463Y-19164542D01*
X48164738Y-19170036D01*
X47994433Y-19297905D01*
X47986726Y-19304748D01*
X47839590Y-19458717D01*
X47833104Y-19466727D01*
X47713098Y-19642649D01*
X47708000Y-19651623D01*
X47618338Y-19844783D01*
X47614775Y-19854470D01*
X47559389Y-20054183D01*
X47560912Y-20062607D01*
X47573292Y-20066000D01*
X49023000Y-20066000D01*
X49091121Y-20086002D01*
X49137614Y-20139658D01*
X49149000Y-20192000D01*
X49149000Y-20448000D01*
X49128998Y-20516121D01*
X49075342Y-20562614D01*
X49023000Y-20574000D01*
X47578225Y-20574000D01*
X47564694Y-20577973D01*
X47563257Y-20587966D01*
X47593565Y-20722446D01*
X47596645Y-20732275D01*
X47676770Y-20929603D01*
X47681413Y-20938794D01*
X47792694Y-21120388D01*
X47798777Y-21128699D01*
X47938213Y-21289667D01*
X47945580Y-21296883D01*
X48109434Y-21432916D01*
X48117881Y-21438831D01*
X48186969Y-21479203D01*
X48235693Y-21530842D01*
X48248764Y-21600625D01*
X48222033Y-21666396D01*
X48181584Y-21699752D01*
X48168607Y-21706507D01*
X48164474Y-21709610D01*
X48164471Y-21709612D01*
X48140247Y-21727800D01*
X47989965Y-21840635D01*
X47964892Y-21866873D01*
X47921241Y-21912551D01*
X47859717Y-21947981D01*
X47830147Y-21951500D01*
X15033503Y-21951500D01*
X14965382Y-21931498D01*
X14944408Y-21914595D01*
X13838408Y-20808595D01*
X13804382Y-20746283D01*
X13809447Y-20675468D01*
X13851994Y-20618632D01*
X13918514Y-20593821D01*
X13927503Y-20593500D01*
X13942925Y-20593500D01*
X13949519Y-20593673D01*
X14011217Y-20596907D01*
X14011222Y-20596907D01*
X14017809Y-20597252D01*
X14031707Y-20595051D01*
X14051416Y-20593500D01*
X45046055Y-20593500D01*
X45116057Y-20614735D01*
X45170723Y-20651261D01*
X45188803Y-20663342D01*
X45194106Y-20665620D01*
X45194109Y-20665622D01*
X45349248Y-20732275D01*
X45375987Y-20743763D01*
X45448817Y-20760243D01*
X45569055Y-20787450D01*
X45569060Y-20787451D01*
X45574692Y-20788725D01*
X45580463Y-20788952D01*
X45580465Y-20788952D01*
X45643470Y-20791427D01*
X45778263Y-20796723D01*
X45979883Y-20767490D01*
X45985347Y-20765635D01*
X45985352Y-20765634D01*
X46167327Y-20703862D01*
X46167332Y-20703860D01*
X46172799Y-20702004D01*
X46350551Y-20602458D01*
X46507186Y-20472186D01*
X46637458Y-20315551D01*
X46737004Y-20137799D01*
X46738860Y-20132332D01*
X46738862Y-20132327D01*
X46800634Y-19950352D01*
X46800635Y-19950347D01*
X46802490Y-19944883D01*
X46831723Y-19743263D01*
X46833249Y-19685000D01*
X46814608Y-19482126D01*
X46808006Y-19458717D01*
X46760875Y-19291606D01*
X46760874Y-19291604D01*
X46759307Y-19286047D01*
X46669201Y-19103329D01*
X46565010Y-18963800D01*
X46550758Y-18944715D01*
X46550758Y-18944714D01*
X46547305Y-18940091D01*
X46397703Y-18801800D01*
X46299114Y-18739595D01*
X46230288Y-18696169D01*
X46230283Y-18696167D01*
X46225404Y-18693088D01*
X46036180Y-18617595D01*
X45836366Y-18577849D01*
X45830592Y-18577773D01*
X45830588Y-18577773D01*
X45727452Y-18576424D01*
X45632655Y-18575183D01*
X45626958Y-18576162D01*
X45626957Y-18576162D01*
X45437567Y-18608705D01*
X45431870Y-18609684D01*
X45240734Y-18680198D01*
X45235773Y-18683150D01*
X45235772Y-18683150D01*
X45108641Y-18758785D01*
X45044218Y-18776500D01*
X14398503Y-18776500D01*
X14330382Y-18756498D01*
X14309408Y-18739595D01*
X12297769Y-16727956D01*
X12263743Y-16665644D01*
X12268808Y-16594829D01*
X12311355Y-16537993D01*
X12354252Y-16517154D01*
X12508936Y-16475706D01*
X12514243Y-16474284D01*
X12520235Y-16471490D01*
X12716762Y-16379849D01*
X12716767Y-16379846D01*
X12721749Y-16377523D01*
X12863458Y-16278297D01*
X12904789Y-16249357D01*
X12904792Y-16249355D01*
X12909300Y-16246198D01*
X13071198Y-16084300D01*
X13202523Y-15896749D01*
X13204846Y-15891767D01*
X13204849Y-15891762D01*
X13220805Y-15857543D01*
X13267722Y-15804258D01*
X13335999Y-15784797D01*
X13403959Y-15805339D01*
X13449195Y-15857543D01*
X13465151Y-15891762D01*
X13465154Y-15891767D01*
X13467477Y-15896749D01*
X13598802Y-16084300D01*
X13760700Y-16246198D01*
X13765208Y-16249355D01*
X13765211Y-16249357D01*
X13806542Y-16278297D01*
X13948251Y-16377523D01*
X13953233Y-16379846D01*
X13953238Y-16379849D01*
X14149765Y-16471490D01*
X14155757Y-16474284D01*
X14161065Y-16475706D01*
X14161067Y-16475707D01*
X14371598Y-16532119D01*
X14371600Y-16532119D01*
X14376913Y-16533543D01*
X14605000Y-16553498D01*
X14833087Y-16533543D01*
X14838400Y-16532119D01*
X14838402Y-16532119D01*
X15048933Y-16475707D01*
X15048935Y-16475706D01*
X15054243Y-16474284D01*
X15060235Y-16471490D01*
X15256762Y-16379849D01*
X15256767Y-16379846D01*
X15261749Y-16377523D01*
X15403458Y-16278297D01*
X15444789Y-16249357D01*
X15444792Y-16249355D01*
X15449300Y-16246198D01*
X15611198Y-16084300D01*
X15742523Y-15896749D01*
X15744846Y-15891767D01*
X15744849Y-15891762D01*
X15760805Y-15857543D01*
X15807722Y-15804258D01*
X15875999Y-15784797D01*
X15943959Y-15805339D01*
X15989195Y-15857543D01*
X16005151Y-15891762D01*
X16005154Y-15891767D01*
X16007477Y-15896749D01*
X16138802Y-16084300D01*
X16300700Y-16246198D01*
X16305208Y-16249355D01*
X16305211Y-16249357D01*
X16346542Y-16278297D01*
X16488251Y-16377523D01*
X16493233Y-16379846D01*
X16493238Y-16379849D01*
X16689765Y-16471490D01*
X16695757Y-16474284D01*
X16701065Y-16475706D01*
X16701067Y-16475707D01*
X16911598Y-16532119D01*
X16911600Y-16532119D01*
X16916913Y-16533543D01*
X17145000Y-16553498D01*
X17373087Y-16533543D01*
X17378400Y-16532119D01*
X17378402Y-16532119D01*
X17588933Y-16475707D01*
X17588935Y-16475706D01*
X17594243Y-16474284D01*
X17600235Y-16471490D01*
X17796762Y-16379849D01*
X17796767Y-16379846D01*
X17801749Y-16377523D01*
X17943458Y-16278297D01*
X17984789Y-16249357D01*
X17984792Y-16249355D01*
X17989300Y-16246198D01*
X18151198Y-16084300D01*
X18282523Y-15896749D01*
X18284846Y-15891767D01*
X18284849Y-15891762D01*
X18300805Y-15857543D01*
X18347722Y-15804258D01*
X18415999Y-15784797D01*
X18483959Y-15805339D01*
X18529195Y-15857543D01*
X18545151Y-15891762D01*
X18545154Y-15891767D01*
X18547477Y-15896749D01*
X18678802Y-16084300D01*
X18840700Y-16246198D01*
X18845208Y-16249355D01*
X18845211Y-16249357D01*
X18886542Y-16278297D01*
X19028251Y-16377523D01*
X19033233Y-16379846D01*
X19033238Y-16379849D01*
X19229765Y-16471490D01*
X19235757Y-16474284D01*
X19241065Y-16475706D01*
X19241067Y-16475707D01*
X19451598Y-16532119D01*
X19451600Y-16532119D01*
X19456913Y-16533543D01*
X19685000Y-16553498D01*
X19913087Y-16533543D01*
X19918400Y-16532119D01*
X19918402Y-16532119D01*
X20128933Y-16475707D01*
X20128935Y-16475706D01*
X20134243Y-16474284D01*
X20140235Y-16471490D01*
X20336762Y-16379849D01*
X20336767Y-16379846D01*
X20341749Y-16377523D01*
X20483458Y-16278297D01*
X20524789Y-16249357D01*
X20524792Y-16249355D01*
X20529300Y-16246198D01*
X20691198Y-16084300D01*
X20822523Y-15896749D01*
X20824846Y-15891767D01*
X20824849Y-15891762D01*
X20840805Y-15857543D01*
X20887722Y-15804258D01*
X20955999Y-15784797D01*
X21023959Y-15805339D01*
X21069195Y-15857543D01*
X21085151Y-15891762D01*
X21085154Y-15891767D01*
X21087477Y-15896749D01*
X21218802Y-16084300D01*
X21380700Y-16246198D01*
X21385208Y-16249355D01*
X21385211Y-16249357D01*
X21426542Y-16278297D01*
X21568251Y-16377523D01*
X21573233Y-16379846D01*
X21573238Y-16379849D01*
X21769765Y-16471490D01*
X21775757Y-16474284D01*
X21781065Y-16475706D01*
X21781067Y-16475707D01*
X21991598Y-16532119D01*
X21991600Y-16532119D01*
X21996913Y-16533543D01*
X22225000Y-16553498D01*
X22453087Y-16533543D01*
X22458400Y-16532119D01*
X22458402Y-16532119D01*
X22668933Y-16475707D01*
X22668935Y-16475706D01*
X22674243Y-16474284D01*
X22680235Y-16471490D01*
X22876762Y-16379849D01*
X22876767Y-16379846D01*
X22881749Y-16377523D01*
X23023458Y-16278297D01*
X23064789Y-16249357D01*
X23064792Y-16249355D01*
X23069300Y-16246198D01*
X23231198Y-16084300D01*
X23362523Y-15896749D01*
X23364846Y-15891767D01*
X23364849Y-15891762D01*
X23380805Y-15857543D01*
X23427722Y-15804258D01*
X23495999Y-15784797D01*
X23563959Y-15805339D01*
X23609195Y-15857543D01*
X23625151Y-15891762D01*
X23625154Y-15891767D01*
X23627477Y-15896749D01*
X23758802Y-16084300D01*
X23920700Y-16246198D01*
X23925208Y-16249355D01*
X23925211Y-16249357D01*
X23966542Y-16278297D01*
X24108251Y-16377523D01*
X24113233Y-16379846D01*
X24113238Y-16379849D01*
X24309765Y-16471490D01*
X24315757Y-16474284D01*
X24321065Y-16475706D01*
X24321067Y-16475707D01*
X24531598Y-16532119D01*
X24531600Y-16532119D01*
X24536913Y-16533543D01*
X24765000Y-16553498D01*
X24993087Y-16533543D01*
X24998400Y-16532119D01*
X24998402Y-16532119D01*
X25208933Y-16475707D01*
X25208935Y-16475706D01*
X25214243Y-16474284D01*
X25220235Y-16471490D01*
X25416762Y-16379849D01*
X25416767Y-16379846D01*
X25421749Y-16377523D01*
X25563458Y-16278297D01*
X25604789Y-16249357D01*
X25604792Y-16249355D01*
X25609300Y-16246198D01*
X25771198Y-16084300D01*
X25902523Y-15896749D01*
X25904846Y-15891767D01*
X25904849Y-15891762D01*
X25920805Y-15857543D01*
X25967722Y-15804258D01*
X26035999Y-15784797D01*
X26103959Y-15805339D01*
X26149195Y-15857543D01*
X26165151Y-15891762D01*
X26165154Y-15891767D01*
X26167477Y-15896749D01*
X26298802Y-16084300D01*
X26460700Y-16246198D01*
X26465208Y-16249355D01*
X26465211Y-16249357D01*
X26506542Y-16278297D01*
X26648251Y-16377523D01*
X26653233Y-16379846D01*
X26653238Y-16379849D01*
X26849765Y-16471490D01*
X26855757Y-16474284D01*
X26861065Y-16475706D01*
X26861067Y-16475707D01*
X27071598Y-16532119D01*
X27071600Y-16532119D01*
X27076913Y-16533543D01*
X27305000Y-16553498D01*
X27533087Y-16533543D01*
X27538400Y-16532119D01*
X27538402Y-16532119D01*
X27748933Y-16475707D01*
X27748935Y-16475706D01*
X27754243Y-16474284D01*
X27760235Y-16471490D01*
X27956762Y-16379849D01*
X27956767Y-16379846D01*
X27961749Y-16377523D01*
X28103458Y-16278297D01*
X28144789Y-16249357D01*
X28144792Y-16249355D01*
X28149300Y-16246198D01*
X28311198Y-16084300D01*
X28442523Y-15896749D01*
X28444846Y-15891767D01*
X28444849Y-15891762D01*
X28460805Y-15857543D01*
X28507722Y-15804258D01*
X28575999Y-15784797D01*
X28643959Y-15805339D01*
X28689195Y-15857543D01*
X28705151Y-15891762D01*
X28705154Y-15891767D01*
X28707477Y-15896749D01*
X28838802Y-16084300D01*
X29000700Y-16246198D01*
X29005208Y-16249355D01*
X29005211Y-16249357D01*
X29046542Y-16278297D01*
X29188251Y-16377523D01*
X29193233Y-16379846D01*
X29193238Y-16379849D01*
X29389765Y-16471490D01*
X29395757Y-16474284D01*
X29401065Y-16475706D01*
X29401067Y-16475707D01*
X29611598Y-16532119D01*
X29611600Y-16532119D01*
X29616913Y-16533543D01*
X29845000Y-16553498D01*
X30073087Y-16533543D01*
X30078400Y-16532119D01*
X30078402Y-16532119D01*
X30288933Y-16475707D01*
X30288935Y-16475706D01*
X30294243Y-16474284D01*
X30300235Y-16471490D01*
X30496762Y-16379849D01*
X30496767Y-16379846D01*
X30501749Y-16377523D01*
X30643458Y-16278297D01*
X30684789Y-16249357D01*
X30684792Y-16249355D01*
X30689300Y-16246198D01*
X30851198Y-16084300D01*
X30982523Y-15896749D01*
X30984846Y-15891767D01*
X30984849Y-15891762D01*
X31001081Y-15856951D01*
X31047998Y-15803666D01*
X31116275Y-15784205D01*
X31184235Y-15804747D01*
X31229471Y-15856951D01*
X31245586Y-15891511D01*
X31251069Y-15901007D01*
X31376028Y-16079467D01*
X31383084Y-16087875D01*
X31537125Y-16241916D01*
X31545533Y-16248972D01*
X31723993Y-16373931D01*
X31733489Y-16379414D01*
X31930947Y-16471490D01*
X31941239Y-16475236D01*
X32113503Y-16521394D01*
X32127599Y-16521058D01*
X32131000Y-16513116D01*
X32131000Y-16507967D01*
X32639000Y-16507967D01*
X32642973Y-16521498D01*
X32651522Y-16522727D01*
X32828761Y-16475236D01*
X32839053Y-16471490D01*
X33036511Y-16379414D01*
X33046007Y-16373931D01*
X33224467Y-16248972D01*
X33232875Y-16241916D01*
X33386916Y-16087875D01*
X33393972Y-16079467D01*
X33518931Y-15901007D01*
X33524414Y-15891511D01*
X33540529Y-15856951D01*
X33587446Y-15803666D01*
X33655723Y-15784205D01*
X33723683Y-15804747D01*
X33768919Y-15856951D01*
X33785151Y-15891762D01*
X33785154Y-15891767D01*
X33787477Y-15896749D01*
X33918802Y-16084300D01*
X34080700Y-16246198D01*
X34085208Y-16249355D01*
X34085211Y-16249357D01*
X34126542Y-16278297D01*
X34268251Y-16377523D01*
X34273233Y-16379846D01*
X34273238Y-16379849D01*
X34469765Y-16471490D01*
X34475757Y-16474284D01*
X34481065Y-16475706D01*
X34481067Y-16475707D01*
X34691598Y-16532119D01*
X34691600Y-16532119D01*
X34696913Y-16533543D01*
X34925000Y-16553498D01*
X35153087Y-16533543D01*
X35158400Y-16532119D01*
X35158402Y-16532119D01*
X35368933Y-16475707D01*
X35368935Y-16475706D01*
X35374243Y-16474284D01*
X35380235Y-16471490D01*
X35576762Y-16379849D01*
X35576767Y-16379846D01*
X35581749Y-16377523D01*
X35723458Y-16278297D01*
X35764789Y-16249357D01*
X35764792Y-16249355D01*
X35769300Y-16246198D01*
X35931198Y-16084300D01*
X36062523Y-15896749D01*
X36064846Y-15891767D01*
X36064849Y-15891762D01*
X36080805Y-15857543D01*
X36127722Y-15804258D01*
X36195999Y-15784797D01*
X36263959Y-15805339D01*
X36309195Y-15857543D01*
X36325151Y-15891762D01*
X36325154Y-15891767D01*
X36327477Y-15896749D01*
X36458802Y-16084300D01*
X36620700Y-16246198D01*
X36625208Y-16249355D01*
X36625211Y-16249357D01*
X36666542Y-16278297D01*
X36808251Y-16377523D01*
X36813233Y-16379846D01*
X36813238Y-16379849D01*
X37009765Y-16471490D01*
X37015757Y-16474284D01*
X37021065Y-16475706D01*
X37021067Y-16475707D01*
X37231598Y-16532119D01*
X37231600Y-16532119D01*
X37236913Y-16533543D01*
X37465000Y-16553498D01*
X37693087Y-16533543D01*
X37698400Y-16532119D01*
X37698402Y-16532119D01*
X37908933Y-16475707D01*
X37908935Y-16475706D01*
X37914243Y-16474284D01*
X37920235Y-16471490D01*
X38116762Y-16379849D01*
X38116767Y-16379846D01*
X38121749Y-16377523D01*
X38263458Y-16278297D01*
X38304789Y-16249357D01*
X38304792Y-16249355D01*
X38309300Y-16246198D01*
X38471198Y-16084300D01*
X38474357Y-16079789D01*
X38477892Y-16075576D01*
X38479026Y-16076527D01*
X38529071Y-16036529D01*
X38599690Y-16029224D01*
X38663049Y-16061258D01*
X38699030Y-16122462D01*
X38702082Y-16139517D01*
X38703255Y-16150316D01*
X38754385Y-16286705D01*
X38841739Y-16403261D01*
X38958295Y-16490615D01*
X39094684Y-16541745D01*
X39156866Y-16548500D01*
X40853134Y-16548500D01*
X40915316Y-16541745D01*
X41051705Y-16490615D01*
X41168261Y-16403261D01*
X41255615Y-16286705D01*
X41306745Y-16150316D01*
X41313500Y-16088134D01*
X41313500Y-14391866D01*
X41306745Y-14329684D01*
X41255615Y-14193295D01*
X41168261Y-14076739D01*
X41051705Y-13989385D01*
X40915316Y-13938255D01*
X40853134Y-13931500D01*
X39156866Y-13931500D01*
X39094684Y-13938255D01*
X38958295Y-13989385D01*
X38841739Y-14076739D01*
X38754385Y-14193295D01*
X38703255Y-14329684D01*
X38702083Y-14340474D01*
X38701197Y-14342606D01*
X38700575Y-14345222D01*
X38700152Y-14345121D01*
X38674845Y-14406035D01*
X38616483Y-14446463D01*
X38545529Y-14448922D01*
X38484510Y-14412629D01*
X38477511Y-14403969D01*
X38474354Y-14400207D01*
X38471198Y-14395700D01*
X38309300Y-14233802D01*
X38304792Y-14230645D01*
X38304789Y-14230643D01*
X38213447Y-14166685D01*
X38121749Y-14102477D01*
X38116767Y-14100154D01*
X38116762Y-14100151D01*
X37919225Y-14008039D01*
X37919224Y-14008039D01*
X37914243Y-14005716D01*
X37908935Y-14004294D01*
X37908933Y-14004293D01*
X37698402Y-13947881D01*
X37698400Y-13947881D01*
X37693087Y-13946457D01*
X37465000Y-13926502D01*
X37236913Y-13946457D01*
X37231600Y-13947881D01*
X37231598Y-13947881D01*
X37021067Y-14004293D01*
X37021065Y-14004294D01*
X37015757Y-14005716D01*
X37010776Y-14008039D01*
X37010775Y-14008039D01*
X36813238Y-14100151D01*
X36813233Y-14100154D01*
X36808251Y-14102477D01*
X36716553Y-14166685D01*
X36625211Y-14230643D01*
X36625208Y-14230645D01*
X36620700Y-14233802D01*
X36458802Y-14395700D01*
X36327477Y-14583251D01*
X36325154Y-14588233D01*
X36325151Y-14588238D01*
X36309195Y-14622457D01*
X36262278Y-14675742D01*
X36194001Y-14695203D01*
X36126041Y-14674661D01*
X36080805Y-14622457D01*
X36064849Y-14588238D01*
X36064846Y-14588233D01*
X36062523Y-14583251D01*
X35931198Y-14395700D01*
X35769300Y-14233802D01*
X35764792Y-14230645D01*
X35764789Y-14230643D01*
X35673447Y-14166685D01*
X35581749Y-14102477D01*
X35576767Y-14100154D01*
X35576762Y-14100151D01*
X35379225Y-14008039D01*
X35379224Y-14008039D01*
X35374243Y-14005716D01*
X35368935Y-14004294D01*
X35368933Y-14004293D01*
X35158402Y-13947881D01*
X35158400Y-13947881D01*
X35153087Y-13946457D01*
X34925000Y-13926502D01*
X34696913Y-13946457D01*
X34691600Y-13947881D01*
X34691598Y-13947881D01*
X34481067Y-14004293D01*
X34481065Y-14004294D01*
X34475757Y-14005716D01*
X34470776Y-14008039D01*
X34470775Y-14008039D01*
X34273238Y-14100151D01*
X34273233Y-14100154D01*
X34268251Y-14102477D01*
X34176553Y-14166685D01*
X34085211Y-14230643D01*
X34085208Y-14230645D01*
X34080700Y-14233802D01*
X33918802Y-14395700D01*
X33787477Y-14583251D01*
X33785154Y-14588233D01*
X33785151Y-14588238D01*
X33768919Y-14623049D01*
X33722002Y-14676334D01*
X33653725Y-14695795D01*
X33585765Y-14675253D01*
X33540529Y-14623049D01*
X33524414Y-14588489D01*
X33518931Y-14578993D01*
X33393972Y-14400533D01*
X33386916Y-14392125D01*
X33232875Y-14238084D01*
X33224467Y-14231028D01*
X33046007Y-14106069D01*
X33036511Y-14100586D01*
X32839053Y-14008510D01*
X32828761Y-14004764D01*
X32656497Y-13958606D01*
X32642401Y-13958942D01*
X32639000Y-13966884D01*
X32639000Y-16507967D01*
X32131000Y-16507967D01*
X32131000Y-13972033D01*
X32127027Y-13958502D01*
X32118478Y-13957273D01*
X31941239Y-14004764D01*
X31930947Y-14008510D01*
X31733489Y-14100586D01*
X31723993Y-14106069D01*
X31545533Y-14231028D01*
X31537125Y-14238084D01*
X31383084Y-14392125D01*
X31376028Y-14400533D01*
X31251069Y-14578993D01*
X31245586Y-14588489D01*
X31229471Y-14623049D01*
X31182554Y-14676334D01*
X31114277Y-14695795D01*
X31046317Y-14675253D01*
X31001081Y-14623049D01*
X30984849Y-14588238D01*
X30984846Y-14588233D01*
X30982523Y-14583251D01*
X30851198Y-14395700D01*
X30689300Y-14233802D01*
X30684792Y-14230645D01*
X30684789Y-14230643D01*
X30593447Y-14166685D01*
X30501749Y-14102477D01*
X30496767Y-14100154D01*
X30496762Y-14100151D01*
X30299225Y-14008039D01*
X30299224Y-14008039D01*
X30294243Y-14005716D01*
X30288935Y-14004294D01*
X30288933Y-14004293D01*
X30078402Y-13947881D01*
X30078400Y-13947881D01*
X30073087Y-13946457D01*
X29845000Y-13926502D01*
X29616913Y-13946457D01*
X29611600Y-13947881D01*
X29611598Y-13947881D01*
X29401067Y-14004293D01*
X29401065Y-14004294D01*
X29395757Y-14005716D01*
X29390776Y-14008039D01*
X29390775Y-14008039D01*
X29193238Y-14100151D01*
X29193233Y-14100154D01*
X29188251Y-14102477D01*
X29096553Y-14166685D01*
X29005211Y-14230643D01*
X29005208Y-14230645D01*
X29000700Y-14233802D01*
X28838802Y-14395700D01*
X28707477Y-14583251D01*
X28705154Y-14588233D01*
X28705151Y-14588238D01*
X28689195Y-14622457D01*
X28642278Y-14675742D01*
X28574001Y-14695203D01*
X28506041Y-14674661D01*
X28460805Y-14622457D01*
X28444849Y-14588238D01*
X28444846Y-14588233D01*
X28442523Y-14583251D01*
X28311198Y-14395700D01*
X28149300Y-14233802D01*
X28144792Y-14230645D01*
X28144789Y-14230643D01*
X28053447Y-14166685D01*
X27961749Y-14102477D01*
X27956767Y-14100154D01*
X27956762Y-14100151D01*
X27759225Y-14008039D01*
X27759224Y-14008039D01*
X27754243Y-14005716D01*
X27748935Y-14004294D01*
X27748933Y-14004293D01*
X27538402Y-13947881D01*
X27538400Y-13947881D01*
X27533087Y-13946457D01*
X27305000Y-13926502D01*
X27076913Y-13946457D01*
X27071600Y-13947881D01*
X27071598Y-13947881D01*
X26861067Y-14004293D01*
X26861065Y-14004294D01*
X26855757Y-14005716D01*
X26850776Y-14008039D01*
X26850775Y-14008039D01*
X26653238Y-14100151D01*
X26653233Y-14100154D01*
X26648251Y-14102477D01*
X26556553Y-14166685D01*
X26465211Y-14230643D01*
X26465208Y-14230645D01*
X26460700Y-14233802D01*
X26298802Y-14395700D01*
X26167477Y-14583251D01*
X26165154Y-14588233D01*
X26165151Y-14588238D01*
X26149195Y-14622457D01*
X26102278Y-14675742D01*
X26034001Y-14695203D01*
X25966041Y-14674661D01*
X25920805Y-14622457D01*
X25904849Y-14588238D01*
X25904846Y-14588233D01*
X25902523Y-14583251D01*
X25771198Y-14395700D01*
X25609300Y-14233802D01*
X25604792Y-14230645D01*
X25604789Y-14230643D01*
X25513447Y-14166685D01*
X25421749Y-14102477D01*
X25416767Y-14100154D01*
X25416762Y-14100151D01*
X25219225Y-14008039D01*
X25219224Y-14008039D01*
X25214243Y-14005716D01*
X25208935Y-14004294D01*
X25208933Y-14004293D01*
X24998402Y-13947881D01*
X24998400Y-13947881D01*
X24993087Y-13946457D01*
X24765000Y-13926502D01*
X24536913Y-13946457D01*
X24531600Y-13947881D01*
X24531598Y-13947881D01*
X24321067Y-14004293D01*
X24321065Y-14004294D01*
X24315757Y-14005716D01*
X24310776Y-14008039D01*
X24310775Y-14008039D01*
X24113238Y-14100151D01*
X24113233Y-14100154D01*
X24108251Y-14102477D01*
X24016553Y-14166685D01*
X23925211Y-14230643D01*
X23925208Y-14230645D01*
X23920700Y-14233802D01*
X23758802Y-14395700D01*
X23627477Y-14583251D01*
X23625154Y-14588233D01*
X23625151Y-14588238D01*
X23609195Y-14622457D01*
X23562278Y-14675742D01*
X23494001Y-14695203D01*
X23426041Y-14674661D01*
X23380805Y-14622457D01*
X23364849Y-14588238D01*
X23364846Y-14588233D01*
X23362523Y-14583251D01*
X23231198Y-14395700D01*
X23069300Y-14233802D01*
X23064792Y-14230645D01*
X23064789Y-14230643D01*
X22973447Y-14166685D01*
X22881749Y-14102477D01*
X22876767Y-14100154D01*
X22876762Y-14100151D01*
X22679225Y-14008039D01*
X22679224Y-14008039D01*
X22674243Y-14005716D01*
X22668935Y-14004294D01*
X22668933Y-14004293D01*
X22458402Y-13947881D01*
X22458400Y-13947881D01*
X22453087Y-13946457D01*
X22225000Y-13926502D01*
X21996913Y-13946457D01*
X21991600Y-13947881D01*
X21991598Y-13947881D01*
X21781067Y-14004293D01*
X21781065Y-14004294D01*
X21775757Y-14005716D01*
X21770776Y-14008039D01*
X21770775Y-14008039D01*
X21573238Y-14100151D01*
X21573233Y-14100154D01*
X21568251Y-14102477D01*
X21476553Y-14166685D01*
X21385211Y-14230643D01*
X21385208Y-14230645D01*
X21380700Y-14233802D01*
X21218802Y-14395700D01*
X21087477Y-14583251D01*
X21085154Y-14588233D01*
X21085151Y-14588238D01*
X21069195Y-14622457D01*
X21022278Y-14675742D01*
X20954001Y-14695203D01*
X20886041Y-14674661D01*
X20840805Y-14622457D01*
X20824849Y-14588238D01*
X20824846Y-14588233D01*
X20822523Y-14583251D01*
X20691198Y-14395700D01*
X20529300Y-14233802D01*
X20524792Y-14230645D01*
X20524789Y-14230643D01*
X20433447Y-14166685D01*
X20341749Y-14102477D01*
X20336767Y-14100154D01*
X20336762Y-14100151D01*
X20139225Y-14008039D01*
X20139224Y-14008039D01*
X20134243Y-14005716D01*
X20093396Y-13994771D01*
X19974252Y-13962846D01*
X19913630Y-13925894D01*
X19882608Y-13862033D01*
X19891037Y-13791539D01*
X19917769Y-13752044D01*
X20256136Y-13413677D01*
X20318448Y-13379651D01*
X20334246Y-13377252D01*
X20412904Y-13370370D01*
X20542606Y-13359023D01*
X20542611Y-13359022D01*
X20548087Y-13358543D01*
X20553400Y-13357119D01*
X20553402Y-13357119D01*
X20763933Y-13300707D01*
X20763935Y-13300706D01*
X20769243Y-13299284D01*
X20774229Y-13296959D01*
X20971762Y-13204849D01*
X20971767Y-13204846D01*
X20976749Y-13202523D01*
X21144042Y-13085383D01*
X21159789Y-13074357D01*
X21159792Y-13074355D01*
X21164300Y-13071198D01*
X21326198Y-12909300D01*
X21457523Y-12721749D01*
X21459846Y-12716767D01*
X21459849Y-12716762D01*
X21551961Y-12519225D01*
X21551961Y-12519224D01*
X21554284Y-12514243D01*
X21572830Y-12445031D01*
X21612119Y-12298402D01*
X21612119Y-12298400D01*
X21613543Y-12293087D01*
X21633498Y-12065000D01*
X21613543Y-11836913D01*
X21554284Y-11615757D01*
X21502538Y-11504786D01*
X21459849Y-11413238D01*
X21459846Y-11413233D01*
X21457523Y-11408251D01*
X21378836Y-11295875D01*
X21329357Y-11225211D01*
X21329355Y-11225208D01*
X21326198Y-11220700D01*
X21210167Y-11104669D01*
X26532001Y-11104669D01*
X26532371Y-11111490D01*
X26537895Y-11162352D01*
X26541521Y-11177604D01*
X26586676Y-11298054D01*
X26595214Y-11313649D01*
X26671715Y-11415724D01*
X26684276Y-11428285D01*
X26786351Y-11504786D01*
X26801946Y-11513324D01*
X26922394Y-11558478D01*
X26937649Y-11562105D01*
X26988514Y-11567631D01*
X26995328Y-11568000D01*
X27667885Y-11568000D01*
X27683124Y-11563525D01*
X27684329Y-11562135D01*
X27686000Y-11554452D01*
X27686000Y-11549884D01*
X28194000Y-11549884D01*
X28198475Y-11565123D01*
X28199865Y-11566328D01*
X28207548Y-11567999D01*
X28884669Y-11567999D01*
X28891490Y-11567629D01*
X28942352Y-11562105D01*
X28957604Y-11558479D01*
X29078054Y-11513324D01*
X29093649Y-11504786D01*
X29195724Y-11428285D01*
X29208285Y-11415724D01*
X29284786Y-11313649D01*
X29293324Y-11298054D01*
X29338478Y-11177606D01*
X29342105Y-11162351D01*
X29347631Y-11111486D01*
X29348000Y-11104672D01*
X29348000Y-11104669D01*
X36057001Y-11104669D01*
X36057371Y-11111490D01*
X36062895Y-11162352D01*
X36066521Y-11177604D01*
X36111676Y-11298054D01*
X36120214Y-11313649D01*
X36196715Y-11415724D01*
X36209276Y-11428285D01*
X36311351Y-11504786D01*
X36326946Y-11513324D01*
X36447394Y-11558478D01*
X36462649Y-11562105D01*
X36513514Y-11567631D01*
X36520328Y-11568000D01*
X37192885Y-11568000D01*
X37208124Y-11563525D01*
X37209329Y-11562135D01*
X37211000Y-11554452D01*
X37211000Y-11549884D01*
X37719000Y-11549884D01*
X37723475Y-11565123D01*
X37724865Y-11566328D01*
X37732548Y-11567999D01*
X38409669Y-11567999D01*
X38416490Y-11567629D01*
X38467352Y-11562105D01*
X38482604Y-11558479D01*
X38603054Y-11513324D01*
X38618649Y-11504786D01*
X38720724Y-11428285D01*
X38733285Y-11415724D01*
X38809786Y-11313649D01*
X38818324Y-11298054D01*
X38863478Y-11177606D01*
X38867105Y-11162351D01*
X38872631Y-11111486D01*
X38873000Y-11104672D01*
X38873000Y-11104669D01*
X45582001Y-11104669D01*
X45582371Y-11111490D01*
X45587895Y-11162352D01*
X45591521Y-11177604D01*
X45636676Y-11298054D01*
X45645214Y-11313649D01*
X45721715Y-11415724D01*
X45734276Y-11428285D01*
X45836351Y-11504786D01*
X45851946Y-11513324D01*
X45972394Y-11558478D01*
X45987649Y-11562105D01*
X46038514Y-11567631D01*
X46045328Y-11568000D01*
X46717885Y-11568000D01*
X46733124Y-11563525D01*
X46734329Y-11562135D01*
X46736000Y-11554452D01*
X46736000Y-11549884D01*
X47244000Y-11549884D01*
X47248475Y-11565123D01*
X47249865Y-11566328D01*
X47257548Y-11567999D01*
X47934669Y-11567999D01*
X47941490Y-11567629D01*
X47992352Y-11562105D01*
X48007604Y-11558479D01*
X48128054Y-11513324D01*
X48143649Y-11504786D01*
X48245724Y-11428285D01*
X48258285Y-11415724D01*
X48334786Y-11313649D01*
X48343324Y-11298054D01*
X48388478Y-11177606D01*
X48392105Y-11162351D01*
X48397631Y-11111486D01*
X48398000Y-11104672D01*
X48398000Y-10432115D01*
X48393525Y-10416876D01*
X48392135Y-10415671D01*
X48384452Y-10414000D01*
X47262115Y-10414000D01*
X47246876Y-10418475D01*
X47245671Y-10419865D01*
X47244000Y-10427548D01*
X47244000Y-11549884D01*
X46736000Y-11549884D01*
X46736000Y-10432115D01*
X46731525Y-10416876D01*
X46730135Y-10415671D01*
X46722452Y-10414000D01*
X45600116Y-10414000D01*
X45584877Y-10418475D01*
X45583672Y-10419865D01*
X45582001Y-10427548D01*
X45582001Y-11104669D01*
X38873000Y-11104669D01*
X38873000Y-10432115D01*
X38868525Y-10416876D01*
X38867135Y-10415671D01*
X38859452Y-10414000D01*
X37737115Y-10414000D01*
X37721876Y-10418475D01*
X37720671Y-10419865D01*
X37719000Y-10427548D01*
X37719000Y-11549884D01*
X37211000Y-11549884D01*
X37211000Y-10432115D01*
X37206525Y-10416876D01*
X37205135Y-10415671D01*
X37197452Y-10414000D01*
X36075116Y-10414000D01*
X36059877Y-10418475D01*
X36058672Y-10419865D01*
X36057001Y-10427548D01*
X36057001Y-11104669D01*
X29348000Y-11104669D01*
X29348000Y-10432115D01*
X29343525Y-10416876D01*
X29342135Y-10415671D01*
X29334452Y-10414000D01*
X28212115Y-10414000D01*
X28196876Y-10418475D01*
X28195671Y-10419865D01*
X28194000Y-10427548D01*
X28194000Y-11549884D01*
X27686000Y-11549884D01*
X27686000Y-10432115D01*
X27681525Y-10416876D01*
X27680135Y-10415671D01*
X27672452Y-10414000D01*
X26550116Y-10414000D01*
X26534877Y-10418475D01*
X26533672Y-10419865D01*
X26532001Y-10427548D01*
X26532001Y-11104669D01*
X21210167Y-11104669D01*
X21164300Y-11058802D01*
X21159792Y-11055645D01*
X21159789Y-11055643D01*
X21081611Y-11000902D01*
X20976749Y-10927477D01*
X20971767Y-10925154D01*
X20971762Y-10925151D01*
X20774225Y-10833039D01*
X20774224Y-10833039D01*
X20769243Y-10830716D01*
X20763935Y-10829294D01*
X20763933Y-10829293D01*
X20553402Y-10772881D01*
X20553400Y-10772881D01*
X20548087Y-10771457D01*
X20320000Y-10751502D01*
X20091913Y-10771457D01*
X20086600Y-10772881D01*
X20086598Y-10772881D01*
X19876067Y-10829293D01*
X19876065Y-10829294D01*
X19870757Y-10830716D01*
X19865776Y-10833039D01*
X19865775Y-10833039D01*
X19668238Y-10925151D01*
X19668233Y-10925154D01*
X19663251Y-10927477D01*
X19558389Y-11000902D01*
X19480211Y-11055643D01*
X19480208Y-11055645D01*
X19475700Y-11058802D01*
X19313802Y-11220700D01*
X19310645Y-11225208D01*
X19310643Y-11225211D01*
X19261164Y-11295875D01*
X19182477Y-11408251D01*
X19180154Y-11413233D01*
X19180151Y-11413238D01*
X19137462Y-11504786D01*
X19085716Y-11615757D01*
X19026457Y-11836913D01*
X19025978Y-11842389D01*
X19025977Y-11842394D01*
X19007749Y-12050750D01*
X18981886Y-12116869D01*
X18971323Y-12128864D01*
X17208864Y-13891323D01*
X17146552Y-13925349D01*
X17130754Y-13927748D01*
X17052096Y-13934630D01*
X16922394Y-13945977D01*
X16922389Y-13945978D01*
X16916913Y-13946457D01*
X16911600Y-13947881D01*
X16911598Y-13947881D01*
X16701067Y-14004293D01*
X16701065Y-14004294D01*
X16695757Y-14005716D01*
X16690776Y-14008039D01*
X16690775Y-14008039D01*
X16493238Y-14100151D01*
X16493233Y-14100154D01*
X16488251Y-14102477D01*
X16396553Y-14166685D01*
X16305211Y-14230643D01*
X16305208Y-14230645D01*
X16300700Y-14233802D01*
X16138802Y-14395700D01*
X16007477Y-14583251D01*
X16005154Y-14588233D01*
X16005151Y-14588238D01*
X15989195Y-14622457D01*
X15942278Y-14675742D01*
X15874001Y-14695203D01*
X15806041Y-14674661D01*
X15760805Y-14622457D01*
X15744849Y-14588238D01*
X15744846Y-14588233D01*
X15742523Y-14583251D01*
X15611198Y-14395700D01*
X15550405Y-14334907D01*
X15516379Y-14272595D01*
X15513500Y-14245812D01*
X15513500Y-12781417D01*
X15515051Y-12761707D01*
X15516220Y-12754327D01*
X15516220Y-12754326D01*
X15517252Y-12747810D01*
X15516123Y-12726257D01*
X15513673Y-12679520D01*
X15513500Y-12672926D01*
X15513500Y-12652390D01*
X15513156Y-12649116D01*
X15511353Y-12631958D01*
X15510836Y-12625384D01*
X15507603Y-12563696D01*
X15507603Y-12563694D01*
X15507257Y-12557097D01*
X15503615Y-12543504D01*
X15500014Y-12524075D01*
X15499232Y-12516639D01*
X15498542Y-12510072D01*
X15477407Y-12445025D01*
X15475535Y-12438706D01*
X15459538Y-12379003D01*
X15459537Y-12379000D01*
X15457830Y-12372630D01*
X15451438Y-12360085D01*
X15443874Y-12341823D01*
X15441568Y-12334726D01*
X15439527Y-12328444D01*
X15405336Y-12269223D01*
X15402188Y-12263426D01*
X15374126Y-12208351D01*
X15374124Y-12208348D01*
X15371129Y-12202470D01*
X15362273Y-12191533D01*
X15351073Y-12175237D01*
X15347343Y-12168776D01*
X15347340Y-12168772D01*
X15344040Y-12163056D01*
X15339623Y-12158150D01*
X15339619Y-12158145D01*
X15314695Y-12130464D01*
X15283977Y-12066457D01*
X15282810Y-12057136D01*
X15282251Y-12050750D01*
X15263543Y-11836913D01*
X15204284Y-11615757D01*
X15152538Y-11504786D01*
X15109849Y-11413238D01*
X15109846Y-11413233D01*
X15107523Y-11408251D01*
X15028836Y-11295875D01*
X14979357Y-11225211D01*
X14979355Y-11225208D01*
X14976198Y-11220700D01*
X14814300Y-11058802D01*
X14809792Y-11055645D01*
X14809789Y-11055643D01*
X14731611Y-11000902D01*
X14626749Y-10927477D01*
X14621767Y-10925154D01*
X14621762Y-10925151D01*
X14424225Y-10833039D01*
X14424224Y-10833039D01*
X14419243Y-10830716D01*
X14413935Y-10829294D01*
X14413933Y-10829293D01*
X14203402Y-10772881D01*
X14203400Y-10772881D01*
X14198087Y-10771457D01*
X13970000Y-10751502D01*
X13741913Y-10771457D01*
X13736600Y-10772881D01*
X13736598Y-10772881D01*
X13526067Y-10829293D01*
X13526065Y-10829294D01*
X13520757Y-10830716D01*
X13515776Y-10833039D01*
X13515775Y-10833039D01*
X13318238Y-10925151D01*
X13318233Y-10925154D01*
X13313251Y-10927477D01*
X13208389Y-11000902D01*
X13130211Y-11055643D01*
X13130208Y-11055645D01*
X13125700Y-11058802D01*
X12963802Y-11220700D01*
X12960645Y-11225208D01*
X12960643Y-11225211D01*
X12911164Y-11295875D01*
X12832477Y-11408251D01*
X12830154Y-11413233D01*
X12830151Y-11413238D01*
X12787462Y-11504786D01*
X12735716Y-11615757D01*
X12676457Y-11836913D01*
X12656502Y-12065000D01*
X12676457Y-12293087D01*
X12677881Y-12298400D01*
X12677881Y-12298402D01*
X12717171Y-12445031D01*
X12735716Y-12514243D01*
X12738039Y-12519224D01*
X12738039Y-12519225D01*
X12830151Y-12716762D01*
X12830154Y-12716767D01*
X12832477Y-12721749D01*
X12963802Y-12909300D01*
X13125700Y-13071198D01*
X13130208Y-13074355D01*
X13130211Y-13074357D01*
X13145958Y-13085383D01*
X13313251Y-13202523D01*
X13318233Y-13204846D01*
X13318238Y-13204849D01*
X13423591Y-13253975D01*
X13520757Y-13299284D01*
X13526068Y-13300707D01*
X13526071Y-13300708D01*
X13603111Y-13321351D01*
X13663734Y-13358303D01*
X13694755Y-13422163D01*
X13696500Y-13443058D01*
X13696500Y-14245812D01*
X13676498Y-14313933D01*
X13659595Y-14334907D01*
X13598802Y-14395700D01*
X13467477Y-14583251D01*
X13465154Y-14588233D01*
X13465151Y-14588238D01*
X13449195Y-14622457D01*
X13402278Y-14675742D01*
X13334001Y-14695203D01*
X13266041Y-14674661D01*
X13220805Y-14622457D01*
X13204849Y-14588238D01*
X13204846Y-14588233D01*
X13202523Y-14583251D01*
X13071198Y-14395700D01*
X12909300Y-14233802D01*
X12904792Y-14230645D01*
X12904789Y-14230643D01*
X12813447Y-14166685D01*
X12721749Y-14102477D01*
X12716767Y-14100154D01*
X12716762Y-14100151D01*
X12519225Y-14008039D01*
X12519224Y-14008039D01*
X12514243Y-14005716D01*
X12508935Y-14004294D01*
X12508933Y-14004293D01*
X12298402Y-13947881D01*
X12298400Y-13947881D01*
X12293087Y-13946457D01*
X12287611Y-13945978D01*
X12287606Y-13945977D01*
X12157904Y-13934630D01*
X12079249Y-13927749D01*
X12013131Y-13901886D01*
X12001136Y-13891323D01*
X9589981Y-11480168D01*
X9577140Y-11465135D01*
X9572746Y-11459087D01*
X9572745Y-11459086D01*
X9568866Y-11453747D01*
X9518041Y-11407984D01*
X9513256Y-11403443D01*
X9498741Y-11388928D01*
X9491282Y-11382888D01*
X9482784Y-11376006D01*
X9477769Y-11371722D01*
X9431855Y-11330381D01*
X9431850Y-11330377D01*
X9426944Y-11325960D01*
X9421228Y-11322660D01*
X9421224Y-11322657D01*
X9414763Y-11318927D01*
X9398466Y-11307727D01*
X9392660Y-11303025D01*
X9392658Y-11303024D01*
X9387530Y-11298871D01*
X9326577Y-11267814D01*
X9320782Y-11264667D01*
X9267279Y-11233777D01*
X9267278Y-11233776D01*
X9261556Y-11230473D01*
X9255274Y-11228432D01*
X9255272Y-11228431D01*
X9248174Y-11226125D01*
X9229907Y-11218559D01*
X9217370Y-11212171D01*
X9151299Y-11194467D01*
X9144997Y-11192600D01*
X9079928Y-11171458D01*
X9073363Y-11170768D01*
X9073354Y-11170766D01*
X9065925Y-11169985D01*
X9046491Y-11166383D01*
X9039286Y-11164453D01*
X9039284Y-11164453D01*
X9032903Y-11162743D01*
X9026312Y-11162398D01*
X9026308Y-11162397D01*
X8964616Y-11159164D01*
X8958042Y-11158647D01*
X8940884Y-11156844D01*
X8940882Y-11156844D01*
X8937610Y-11156500D01*
X8917074Y-11156500D01*
X8910480Y-11156327D01*
X8848782Y-11153093D01*
X8848777Y-11153093D01*
X8842190Y-11152748D01*
X8828292Y-11154949D01*
X8808583Y-11156500D01*
X8614188Y-11156500D01*
X8546067Y-11136498D01*
X8525093Y-11119595D01*
X8464300Y-11058802D01*
X8459792Y-11055645D01*
X8459789Y-11055643D01*
X8381611Y-11000902D01*
X8276749Y-10927477D01*
X8271767Y-10925154D01*
X8271762Y-10925151D01*
X8074225Y-10833039D01*
X8074224Y-10833039D01*
X8069243Y-10830716D01*
X8063935Y-10829294D01*
X8063933Y-10829293D01*
X7853402Y-10772881D01*
X7853400Y-10772881D01*
X7848087Y-10771457D01*
X7620000Y-10751502D01*
X7391913Y-10771457D01*
X7386600Y-10772881D01*
X7386598Y-10772881D01*
X7176067Y-10829293D01*
X7176065Y-10829294D01*
X7170757Y-10830716D01*
X7165776Y-10833039D01*
X7165775Y-10833039D01*
X6968238Y-10925151D01*
X6968233Y-10925154D01*
X6963251Y-10927477D01*
X6858389Y-11000902D01*
X6780211Y-11055643D01*
X6780208Y-11055645D01*
X6775700Y-11058802D01*
X6613802Y-11220700D01*
X6610645Y-11225208D01*
X6610643Y-11225211D01*
X6561164Y-11295875D01*
X6482477Y-11408251D01*
X6480154Y-11413233D01*
X6480151Y-11413238D01*
X6437462Y-11504786D01*
X6385716Y-11615757D01*
X6326457Y-11836913D01*
X6306502Y-12065000D01*
X6326457Y-12293087D01*
X6327881Y-12298400D01*
X6327881Y-12298402D01*
X6367171Y-12445031D01*
X6385716Y-12514243D01*
X6388039Y-12519224D01*
X6388039Y-12519225D01*
X6480151Y-12716762D01*
X6480154Y-12716767D01*
X6482477Y-12721749D01*
X6613802Y-12909300D01*
X6775700Y-13071198D01*
X6780208Y-13074355D01*
X6780211Y-13074357D01*
X6795958Y-13085383D01*
X6963251Y-13202523D01*
X6968233Y-13204846D01*
X6968238Y-13204849D01*
X7165771Y-13296959D01*
X7170757Y-13299284D01*
X7176065Y-13300706D01*
X7176067Y-13300707D01*
X7386598Y-13357119D01*
X7386600Y-13357119D01*
X7391913Y-13358543D01*
X7620000Y-13378498D01*
X7848087Y-13358543D01*
X7853400Y-13357119D01*
X7853402Y-13357119D01*
X8063933Y-13300707D01*
X8063935Y-13300706D01*
X8069243Y-13299284D01*
X8074229Y-13296959D01*
X8271762Y-13204849D01*
X8271767Y-13204846D01*
X8276749Y-13202523D01*
X8464205Y-13071265D01*
X8531478Y-13048577D01*
X8600338Y-13065862D01*
X8625570Y-13085383D01*
X9292231Y-13752044D01*
X9326257Y-13814356D01*
X9321192Y-13885171D01*
X9278645Y-13942007D01*
X9235748Y-13962846D01*
X9116604Y-13994771D01*
X9075757Y-14005716D01*
X9070776Y-14008039D01*
X9070775Y-14008039D01*
X8873238Y-14100151D01*
X8873233Y-14100154D01*
X8868251Y-14102477D01*
X8776553Y-14166685D01*
X8685211Y-14230643D01*
X8685208Y-14230645D01*
X8680700Y-14233802D01*
X8518802Y-14395700D01*
X8387477Y-14583251D01*
X8385154Y-14588233D01*
X8385151Y-14588238D01*
X8369195Y-14622457D01*
X8322278Y-14675742D01*
X8254001Y-14695203D01*
X8186041Y-14674661D01*
X8140805Y-14622457D01*
X8124849Y-14588238D01*
X8124846Y-14588233D01*
X8122523Y-14583251D01*
X7991198Y-14395700D01*
X7829300Y-14233802D01*
X7824792Y-14230645D01*
X7824789Y-14230643D01*
X7733447Y-14166685D01*
X7641749Y-14102477D01*
X7636767Y-14100154D01*
X7636762Y-14100151D01*
X7439225Y-14008039D01*
X7439224Y-14008039D01*
X7434243Y-14005716D01*
X7428935Y-14004294D01*
X7428933Y-14004293D01*
X7218402Y-13947881D01*
X7218400Y-13947881D01*
X7213087Y-13946457D01*
X6985000Y-13926502D01*
X6756913Y-13946457D01*
X6751600Y-13947881D01*
X6751598Y-13947881D01*
X6541067Y-14004293D01*
X6541065Y-14004294D01*
X6535757Y-14005716D01*
X6530776Y-14008039D01*
X6530775Y-14008039D01*
X6333238Y-14100151D01*
X6333233Y-14100154D01*
X6328251Y-14102477D01*
X6236553Y-14166685D01*
X6145211Y-14230643D01*
X6145208Y-14230645D01*
X6140700Y-14233802D01*
X5978802Y-14395700D01*
X5847477Y-14583251D01*
X5845154Y-14588233D01*
X5845151Y-14588238D01*
X5829195Y-14622457D01*
X5782278Y-14675742D01*
X5714001Y-14695203D01*
X5646041Y-14674661D01*
X5600805Y-14622457D01*
X5584849Y-14588238D01*
X5584846Y-14588233D01*
X5582523Y-14583251D01*
X5451198Y-14395700D01*
X5289300Y-14233802D01*
X5284792Y-14230645D01*
X5284789Y-14230643D01*
X5193447Y-14166685D01*
X5101749Y-14102477D01*
X5096767Y-14100154D01*
X5096762Y-14100151D01*
X4899225Y-14008039D01*
X4899224Y-14008039D01*
X4894243Y-14005716D01*
X4888935Y-14004294D01*
X4888933Y-14004293D01*
X4678402Y-13947881D01*
X4678400Y-13947881D01*
X4673087Y-13946457D01*
X4445000Y-13926502D01*
X4216913Y-13946457D01*
X4211600Y-13947881D01*
X4211598Y-13947881D01*
X4001067Y-14004293D01*
X4001065Y-14004294D01*
X3995757Y-14005716D01*
X3990776Y-14008039D01*
X3990775Y-14008039D01*
X3793238Y-14100151D01*
X3793233Y-14100154D01*
X3788251Y-14102477D01*
X3696553Y-14166685D01*
X3605211Y-14230643D01*
X3605208Y-14230645D01*
X3600700Y-14233802D01*
X3438802Y-14395700D01*
X3307477Y-14583251D01*
X3305154Y-14588233D01*
X3305151Y-14588238D01*
X3264852Y-14674661D01*
X3210716Y-14790757D01*
X3209294Y-14796065D01*
X3209293Y-14796067D01*
X3158888Y-14984179D01*
X3151457Y-15011913D01*
X3131502Y-15240000D01*
X3151457Y-15468087D01*
X3152881Y-15473400D01*
X3152881Y-15473402D01*
X3188414Y-15606010D01*
X3210716Y-15689243D01*
X3213039Y-15694224D01*
X3213039Y-15694225D01*
X3305151Y-15891762D01*
X3305154Y-15891767D01*
X3307477Y-15896749D01*
X3438802Y-16084300D01*
X3600700Y-16246198D01*
X3605208Y-16249355D01*
X3605211Y-16249357D01*
X3646542Y-16278297D01*
X3788251Y-16377523D01*
X3793233Y-16379846D01*
X3793238Y-16379849D01*
X3989765Y-16471490D01*
X3995757Y-16474284D01*
X4001065Y-16475706D01*
X4001067Y-16475707D01*
X4211598Y-16532119D01*
X4211600Y-16532119D01*
X4216913Y-16533543D01*
X4222389Y-16534022D01*
X4222394Y-16534023D01*
X4352096Y-16545370D01*
X4430751Y-16552251D01*
X4496869Y-16578114D01*
X4508864Y-16588677D01*
X13905019Y-25984832D01*
X13917860Y-25999865D01*
X13926134Y-26011253D01*
X13931043Y-26015673D01*
X13976959Y-26057016D01*
X13981744Y-26061557D01*
X13996259Y-26076072D01*
X13998823Y-26078148D01*
X14012216Y-26088994D01*
X14017231Y-26093278D01*
X14063145Y-26134619D01*
X14063150Y-26134623D01*
X14068056Y-26139040D01*
X14073772Y-26142340D01*
X14073776Y-26142343D01*
X14080237Y-26146073D01*
X14096533Y-26157273D01*
X14107470Y-26166129D01*
X14113348Y-26169124D01*
X14113351Y-26169126D01*
X14168426Y-26197188D01*
X14174223Y-26200336D01*
X14227723Y-26231224D01*
X14233444Y-26234527D01*
X14246826Y-26238875D01*
X14265085Y-26246438D01*
X14277630Y-26252830D01*
X14284000Y-26254537D01*
X14284003Y-26254538D01*
X14323074Y-26265007D01*
X14343712Y-26270537D01*
X14350025Y-26272407D01*
X14415072Y-26293542D01*
X14429075Y-26295014D01*
X14448504Y-26298615D01*
X14462097Y-26302257D01*
X14468694Y-26302603D01*
X14468696Y-26302603D01*
X14530384Y-26305836D01*
X14536958Y-26306353D01*
X14554116Y-26308156D01*
X14554118Y-26308156D01*
X14557390Y-26308500D01*
X14577926Y-26308500D01*
X14584520Y-26308673D01*
X14646218Y-26311907D01*
X14646223Y-26311907D01*
X14652810Y-26312252D01*
X14666708Y-26310051D01*
X14686417Y-26308500D01*
X45046055Y-26308500D01*
X45116057Y-26329735D01*
X45170723Y-26366261D01*
X45188803Y-26378342D01*
X45194106Y-26380620D01*
X45194109Y-26380622D01*
X45283115Y-26418862D01*
X45375987Y-26458763D01*
X45448817Y-26475243D01*
X45569055Y-26502450D01*
X45569060Y-26502451D01*
X45574692Y-26503725D01*
X45580463Y-26503952D01*
X45580465Y-26503952D01*
X45643470Y-26506427D01*
X45778263Y-26511723D01*
X45979883Y-26482490D01*
X45985347Y-26480635D01*
X45985352Y-26480634D01*
X46167327Y-26418862D01*
X46167332Y-26418860D01*
X46172799Y-26417004D01*
X46333477Y-26327020D01*
X46402685Y-26311186D01*
X46469467Y-26335283D01*
X46512620Y-26391660D01*
X46518443Y-26462417D01*
X46484138Y-26526049D01*
X43475592Y-29534595D01*
X43413280Y-29568621D01*
X43386497Y-29571500D01*
X40999188Y-29571500D01*
X40931067Y-29551498D01*
X40910093Y-29534595D01*
X40849300Y-29473802D01*
X40844792Y-29470645D01*
X40844789Y-29470643D01*
X40766611Y-29415902D01*
X40661749Y-29342477D01*
X40656767Y-29340154D01*
X40656762Y-29340151D01*
X40459225Y-29248039D01*
X40459224Y-29248039D01*
X40454243Y-29245716D01*
X40448935Y-29244294D01*
X40448933Y-29244293D01*
X40238402Y-29187881D01*
X40238400Y-29187881D01*
X40233087Y-29186457D01*
X40005000Y-29166502D01*
X39776913Y-29186457D01*
X39771600Y-29187881D01*
X39771598Y-29187881D01*
X39561067Y-29244293D01*
X39561065Y-29244294D01*
X39555757Y-29245716D01*
X39550776Y-29248039D01*
X39550775Y-29248039D01*
X39353238Y-29340151D01*
X39353233Y-29340154D01*
X39348251Y-29342477D01*
X39243389Y-29415902D01*
X39165211Y-29470643D01*
X39165208Y-29470645D01*
X39160700Y-29473802D01*
X38998802Y-29635700D01*
X38867477Y-29823251D01*
X38865154Y-29828233D01*
X38865151Y-29828238D01*
X38848919Y-29863049D01*
X38802002Y-29916334D01*
X38733725Y-29935795D01*
X38665765Y-29915253D01*
X38620529Y-29863049D01*
X38604414Y-29828489D01*
X38598931Y-29818993D01*
X38473972Y-29640533D01*
X38466916Y-29632125D01*
X38312875Y-29478084D01*
X38304467Y-29471028D01*
X38126007Y-29346069D01*
X38116511Y-29340586D01*
X37919053Y-29248510D01*
X37908761Y-29244764D01*
X37736497Y-29198606D01*
X37722401Y-29198942D01*
X37719000Y-29206884D01*
X37719000Y-30608000D01*
X37698998Y-30676121D01*
X37645342Y-30722614D01*
X37593000Y-30734000D01*
X37337000Y-30734000D01*
X37268879Y-30713998D01*
X37222386Y-30660342D01*
X37211000Y-30608000D01*
X37211000Y-29212033D01*
X37207027Y-29198502D01*
X37198478Y-29197273D01*
X37021239Y-29244764D01*
X37010947Y-29248510D01*
X36813489Y-29340586D01*
X36803993Y-29346069D01*
X36625533Y-29471028D01*
X36617125Y-29478084D01*
X36463084Y-29632125D01*
X36456028Y-29640533D01*
X36331069Y-29818993D01*
X36325586Y-29828489D01*
X36309471Y-29863049D01*
X36262554Y-29916334D01*
X36194277Y-29935795D01*
X36126317Y-29915253D01*
X36081081Y-29863049D01*
X36064849Y-29828238D01*
X36064846Y-29828233D01*
X36062523Y-29823251D01*
X35931198Y-29635700D01*
X35769300Y-29473802D01*
X35764792Y-29470645D01*
X35764789Y-29470643D01*
X35686611Y-29415902D01*
X35581749Y-29342477D01*
X35576767Y-29340154D01*
X35576762Y-29340151D01*
X35379225Y-29248039D01*
X35379224Y-29248039D01*
X35374243Y-29245716D01*
X35368935Y-29244294D01*
X35368933Y-29244293D01*
X35158402Y-29187881D01*
X35158400Y-29187881D01*
X35153087Y-29186457D01*
X34925000Y-29166502D01*
X34696913Y-29186457D01*
X34691600Y-29187881D01*
X34691598Y-29187881D01*
X34481067Y-29244293D01*
X34481065Y-29244294D01*
X34475757Y-29245716D01*
X34470776Y-29248039D01*
X34470775Y-29248039D01*
X34273238Y-29340151D01*
X34273233Y-29340154D01*
X34268251Y-29342477D01*
X34163389Y-29415902D01*
X34085211Y-29470643D01*
X34085208Y-29470645D01*
X34080700Y-29473802D01*
X33918802Y-29635700D01*
X33787477Y-29823251D01*
X33785154Y-29828233D01*
X33785151Y-29828238D01*
X33769195Y-29862457D01*
X33722278Y-29915742D01*
X33654001Y-29935203D01*
X33586041Y-29914661D01*
X33540805Y-29862457D01*
X33524849Y-29828238D01*
X33524846Y-29828233D01*
X33522523Y-29823251D01*
X33391198Y-29635700D01*
X33229300Y-29473802D01*
X33224792Y-29470645D01*
X33224789Y-29470643D01*
X33146611Y-29415902D01*
X33041749Y-29342477D01*
X33036767Y-29340154D01*
X33036762Y-29340151D01*
X32839225Y-29248039D01*
X32839224Y-29248039D01*
X32834243Y-29245716D01*
X32828935Y-29244294D01*
X32828933Y-29244293D01*
X32618402Y-29187881D01*
X32618400Y-29187881D01*
X32613087Y-29186457D01*
X32385000Y-29166502D01*
X32156913Y-29186457D01*
X32151600Y-29187881D01*
X32151598Y-29187881D01*
X31941067Y-29244293D01*
X31941065Y-29244294D01*
X31935757Y-29245716D01*
X31930776Y-29248039D01*
X31930775Y-29248039D01*
X31733238Y-29340151D01*
X31733233Y-29340154D01*
X31728251Y-29342477D01*
X31623389Y-29415902D01*
X31545211Y-29470643D01*
X31545208Y-29470645D01*
X31540700Y-29473802D01*
X31378802Y-29635700D01*
X31247477Y-29823251D01*
X31245154Y-29828233D01*
X31245151Y-29828238D01*
X31229195Y-29862457D01*
X31182278Y-29915742D01*
X31114001Y-29935203D01*
X31046041Y-29914661D01*
X31000805Y-29862457D01*
X30984849Y-29828238D01*
X30984846Y-29828233D01*
X30982523Y-29823251D01*
X30851198Y-29635700D01*
X30689300Y-29473802D01*
X30684792Y-29470645D01*
X30684789Y-29470643D01*
X30606611Y-29415902D01*
X30501749Y-29342477D01*
X30496767Y-29340154D01*
X30496762Y-29340151D01*
X30299225Y-29248039D01*
X30299224Y-29248039D01*
X30294243Y-29245716D01*
X30288935Y-29244294D01*
X30288933Y-29244293D01*
X30078402Y-29187881D01*
X30078400Y-29187881D01*
X30073087Y-29186457D01*
X29845000Y-29166502D01*
X29616913Y-29186457D01*
X29611600Y-29187881D01*
X29611598Y-29187881D01*
X29401067Y-29244293D01*
X29401065Y-29244294D01*
X29395757Y-29245716D01*
X29390776Y-29248039D01*
X29390775Y-29248039D01*
X29193238Y-29340151D01*
X29193233Y-29340154D01*
X29188251Y-29342477D01*
X29083389Y-29415902D01*
X29005211Y-29470643D01*
X29005208Y-29470645D01*
X29000700Y-29473802D01*
X28838802Y-29635700D01*
X28707477Y-29823251D01*
X28705154Y-29828233D01*
X28705151Y-29828238D01*
X28689195Y-29862457D01*
X28642278Y-29915742D01*
X28574001Y-29935203D01*
X28506041Y-29914661D01*
X28460805Y-29862457D01*
X28444849Y-29828238D01*
X28444846Y-29828233D01*
X28442523Y-29823251D01*
X28311198Y-29635700D01*
X28149300Y-29473802D01*
X28144792Y-29470645D01*
X28144789Y-29470643D01*
X28066611Y-29415902D01*
X27961749Y-29342477D01*
X27956767Y-29340154D01*
X27956762Y-29340151D01*
X27759225Y-29248039D01*
X27759224Y-29248039D01*
X27754243Y-29245716D01*
X27748935Y-29244294D01*
X27748933Y-29244293D01*
X27538402Y-29187881D01*
X27538400Y-29187881D01*
X27533087Y-29186457D01*
X27305000Y-29166502D01*
X27076913Y-29186457D01*
X27071600Y-29187881D01*
X27071598Y-29187881D01*
X26861067Y-29244293D01*
X26861065Y-29244294D01*
X26855757Y-29245716D01*
X26850776Y-29248039D01*
X26850775Y-29248039D01*
X26653238Y-29340151D01*
X26653233Y-29340154D01*
X26648251Y-29342477D01*
X26543389Y-29415902D01*
X26465211Y-29470643D01*
X26465208Y-29470645D01*
X26460700Y-29473802D01*
X26298802Y-29635700D01*
X26167477Y-29823251D01*
X26165154Y-29828233D01*
X26165151Y-29828238D01*
X26149195Y-29862457D01*
X26102278Y-29915742D01*
X26034001Y-29935203D01*
X25966041Y-29914661D01*
X25920805Y-29862457D01*
X25904849Y-29828238D01*
X25904846Y-29828233D01*
X25902523Y-29823251D01*
X25771198Y-29635700D01*
X25609300Y-29473802D01*
X25604792Y-29470645D01*
X25604789Y-29470643D01*
X25526611Y-29415902D01*
X25421749Y-29342477D01*
X25416767Y-29340154D01*
X25416762Y-29340151D01*
X25219225Y-29248039D01*
X25219224Y-29248039D01*
X25214243Y-29245716D01*
X25208935Y-29244294D01*
X25208933Y-29244293D01*
X24998402Y-29187881D01*
X24998400Y-29187881D01*
X24993087Y-29186457D01*
X24765000Y-29166502D01*
X24536913Y-29186457D01*
X24531600Y-29187881D01*
X24531598Y-29187881D01*
X24321067Y-29244293D01*
X24321065Y-29244294D01*
X24315757Y-29245716D01*
X24310776Y-29248039D01*
X24310775Y-29248039D01*
X24113238Y-29340151D01*
X24113233Y-29340154D01*
X24108251Y-29342477D01*
X24003389Y-29415902D01*
X23925211Y-29470643D01*
X23925208Y-29470645D01*
X23920700Y-29473802D01*
X23758802Y-29635700D01*
X23627477Y-29823251D01*
X23625154Y-29828233D01*
X23625151Y-29828238D01*
X23609195Y-29862457D01*
X23562278Y-29915742D01*
X23494001Y-29935203D01*
X23426041Y-29914661D01*
X23380805Y-29862457D01*
X23364849Y-29828238D01*
X23364846Y-29828233D01*
X23362523Y-29823251D01*
X23231198Y-29635700D01*
X23069300Y-29473802D01*
X23064792Y-29470645D01*
X23064789Y-29470643D01*
X22986611Y-29415902D01*
X22881749Y-29342477D01*
X22876767Y-29340154D01*
X22876762Y-29340151D01*
X22679225Y-29248039D01*
X22679224Y-29248039D01*
X22674243Y-29245716D01*
X22668935Y-29244294D01*
X22668933Y-29244293D01*
X22458402Y-29187881D01*
X22458400Y-29187881D01*
X22453087Y-29186457D01*
X22225000Y-29166502D01*
X21996913Y-29186457D01*
X21991600Y-29187881D01*
X21991598Y-29187881D01*
X21781067Y-29244293D01*
X21781065Y-29244294D01*
X21775757Y-29245716D01*
X21770776Y-29248039D01*
X21770775Y-29248039D01*
X21573238Y-29340151D01*
X21573233Y-29340154D01*
X21568251Y-29342477D01*
X21463389Y-29415902D01*
X21385211Y-29470643D01*
X21385208Y-29470645D01*
X21380700Y-29473802D01*
X21218802Y-29635700D01*
X21087477Y-29823251D01*
X21085154Y-29828233D01*
X21085151Y-29828238D01*
X21069195Y-29862457D01*
X21022278Y-29915742D01*
X20954001Y-29935203D01*
X20886041Y-29914661D01*
X20840805Y-29862457D01*
X20824849Y-29828238D01*
X20824846Y-29828233D01*
X20822523Y-29823251D01*
X20691198Y-29635700D01*
X20529300Y-29473802D01*
X20524792Y-29470645D01*
X20524789Y-29470643D01*
X20446611Y-29415902D01*
X20341749Y-29342477D01*
X20336767Y-29340154D01*
X20336762Y-29340151D01*
X20139225Y-29248039D01*
X20139224Y-29248039D01*
X20134243Y-29245716D01*
X20128935Y-29244294D01*
X20128933Y-29244293D01*
X19918402Y-29187881D01*
X19918400Y-29187881D01*
X19913087Y-29186457D01*
X19685000Y-29166502D01*
X19456913Y-29186457D01*
X19451600Y-29187881D01*
X19451598Y-29187881D01*
X19241067Y-29244293D01*
X19241065Y-29244294D01*
X19235757Y-29245716D01*
X19230776Y-29248039D01*
X19230775Y-29248039D01*
X19033238Y-29340151D01*
X19033233Y-29340154D01*
X19028251Y-29342477D01*
X18923389Y-29415902D01*
X18845211Y-29470643D01*
X18845208Y-29470645D01*
X18840700Y-29473802D01*
X18678802Y-29635700D01*
X18547477Y-29823251D01*
X18545154Y-29828233D01*
X18545151Y-29828238D01*
X18529195Y-29862457D01*
X18482278Y-29915742D01*
X18414001Y-29935203D01*
X18346041Y-29914661D01*
X18300805Y-29862457D01*
X18284849Y-29828238D01*
X18284846Y-29828233D01*
X18282523Y-29823251D01*
X18151198Y-29635700D01*
X17989300Y-29473802D01*
X17984792Y-29470645D01*
X17984789Y-29470643D01*
X17906611Y-29415902D01*
X17801749Y-29342477D01*
X17796767Y-29340154D01*
X17796762Y-29340151D01*
X17599225Y-29248039D01*
X17599224Y-29248039D01*
X17594243Y-29245716D01*
X17588935Y-29244294D01*
X17588933Y-29244293D01*
X17378402Y-29187881D01*
X17378400Y-29187881D01*
X17373087Y-29186457D01*
X17145000Y-29166502D01*
X16916913Y-29186457D01*
X16911600Y-29187881D01*
X16911598Y-29187881D01*
X16701067Y-29244293D01*
X16701065Y-29244294D01*
X16695757Y-29245716D01*
X16690776Y-29248039D01*
X16690775Y-29248039D01*
X16493238Y-29340151D01*
X16493233Y-29340154D01*
X16488251Y-29342477D01*
X16383389Y-29415902D01*
X16305211Y-29470643D01*
X16305208Y-29470645D01*
X16300700Y-29473802D01*
X16138802Y-29635700D01*
X16007477Y-29823251D01*
X16005154Y-29828233D01*
X16005151Y-29828238D01*
X15989195Y-29862457D01*
X15942278Y-29915742D01*
X15874001Y-29935203D01*
X15806041Y-29914661D01*
X15760805Y-29862457D01*
X15744849Y-29828238D01*
X15744846Y-29828233D01*
X15742523Y-29823251D01*
X15611198Y-29635700D01*
X15449300Y-29473802D01*
X15444792Y-29470645D01*
X15444789Y-29470643D01*
X15366611Y-29415902D01*
X15261749Y-29342477D01*
X15256767Y-29340154D01*
X15256762Y-29340151D01*
X15059225Y-29248039D01*
X15059224Y-29248039D01*
X15054243Y-29245716D01*
X15048935Y-29244294D01*
X15048933Y-29244293D01*
X14838402Y-29187881D01*
X14838400Y-29187881D01*
X14833087Y-29186457D01*
X14605000Y-29166502D01*
X14376913Y-29186457D01*
X14371600Y-29187881D01*
X14371598Y-29187881D01*
X14161067Y-29244293D01*
X14161065Y-29244294D01*
X14155757Y-29245716D01*
X14150776Y-29248039D01*
X14150775Y-29248039D01*
X13953238Y-29340151D01*
X13953233Y-29340154D01*
X13948251Y-29342477D01*
X13843389Y-29415902D01*
X13765211Y-29470643D01*
X13765208Y-29470645D01*
X13760700Y-29473802D01*
X13598802Y-29635700D01*
X13467477Y-29823251D01*
X13465154Y-29828233D01*
X13465151Y-29828238D01*
X13449195Y-29862457D01*
X13402278Y-29915742D01*
X13334001Y-29935203D01*
X13266041Y-29914661D01*
X13220805Y-29862457D01*
X13204849Y-29828238D01*
X13204846Y-29828233D01*
X13202523Y-29823251D01*
X13071198Y-29635700D01*
X12909300Y-29473802D01*
X12904792Y-29470645D01*
X12904789Y-29470643D01*
X12826611Y-29415902D01*
X12721749Y-29342477D01*
X12716767Y-29340154D01*
X12716762Y-29340151D01*
X12519225Y-29248039D01*
X12519224Y-29248039D01*
X12514243Y-29245716D01*
X12508935Y-29244294D01*
X12508933Y-29244293D01*
X12298402Y-29187881D01*
X12298400Y-29187881D01*
X12293087Y-29186457D01*
X12065000Y-29166502D01*
X11836913Y-29186457D01*
X11831600Y-29187881D01*
X11831598Y-29187881D01*
X11621067Y-29244293D01*
X11621065Y-29244294D01*
X11615757Y-29245716D01*
X11610776Y-29248039D01*
X11610775Y-29248039D01*
X11413238Y-29340151D01*
X11413233Y-29340154D01*
X11408251Y-29342477D01*
X11303389Y-29415902D01*
X11225211Y-29470643D01*
X11225208Y-29470645D01*
X11220700Y-29473802D01*
X11058802Y-29635700D01*
X10927477Y-29823251D01*
X10925154Y-29828233D01*
X10925151Y-29828238D01*
X10909195Y-29862457D01*
X10862278Y-29915742D01*
X10794001Y-29935203D01*
X10726041Y-29914661D01*
X10680805Y-29862457D01*
X10664849Y-29828238D01*
X10664846Y-29828233D01*
X10662523Y-29823251D01*
X10531198Y-29635700D01*
X10369300Y-29473802D01*
X10364792Y-29470645D01*
X10364789Y-29470643D01*
X10286611Y-29415902D01*
X10181749Y-29342477D01*
X10176767Y-29340154D01*
X10176762Y-29340151D01*
X9979225Y-29248039D01*
X9979224Y-29248039D01*
X9974243Y-29245716D01*
X9968935Y-29244294D01*
X9968933Y-29244293D01*
X9758402Y-29187881D01*
X9758400Y-29187881D01*
X9753087Y-29186457D01*
X9525000Y-29166502D01*
X9296913Y-29186457D01*
X9291600Y-29187881D01*
X9291598Y-29187881D01*
X9081067Y-29244293D01*
X9081065Y-29244294D01*
X9075757Y-29245716D01*
X9070776Y-29248039D01*
X9070775Y-29248039D01*
X8873238Y-29340151D01*
X8873233Y-29340154D01*
X8868251Y-29342477D01*
X8763389Y-29415902D01*
X8685211Y-29470643D01*
X8685208Y-29470645D01*
X8680700Y-29473802D01*
X8518802Y-29635700D01*
X8387477Y-29823251D01*
X8385154Y-29828233D01*
X8385151Y-29828238D01*
X8369195Y-29862457D01*
X8322278Y-29915742D01*
X8254001Y-29935203D01*
X8186041Y-29914661D01*
X8140805Y-29862457D01*
X8124849Y-29828238D01*
X8124846Y-29828233D01*
X8122523Y-29823251D01*
X7991198Y-29635700D01*
X7829300Y-29473802D01*
X7824792Y-29470645D01*
X7824789Y-29470643D01*
X7746611Y-29415902D01*
X7641749Y-29342477D01*
X7636767Y-29340154D01*
X7636762Y-29340151D01*
X7439225Y-29248039D01*
X7439224Y-29248039D01*
X7434243Y-29245716D01*
X7428935Y-29244294D01*
X7428933Y-29244293D01*
X7218402Y-29187881D01*
X7218400Y-29187881D01*
X7213087Y-29186457D01*
X6985000Y-29166502D01*
X6756913Y-29186457D01*
X6751600Y-29187881D01*
X6751598Y-29187881D01*
X6541067Y-29244293D01*
X6541065Y-29244294D01*
X6535757Y-29245716D01*
X6530776Y-29248039D01*
X6530775Y-29248039D01*
X6333238Y-29340151D01*
X6333233Y-29340154D01*
X6328251Y-29342477D01*
X6223389Y-29415902D01*
X6145211Y-29470643D01*
X6145208Y-29470645D01*
X6140700Y-29473802D01*
X5978802Y-29635700D01*
X5847477Y-29823251D01*
X5845154Y-29828233D01*
X5845151Y-29828238D01*
X5829195Y-29862457D01*
X5782278Y-29915742D01*
X5714001Y-29935203D01*
X5646041Y-29914661D01*
X5600805Y-29862457D01*
X5584849Y-29828238D01*
X5584846Y-29828233D01*
X5582523Y-29823251D01*
X5451198Y-29635700D01*
X5289300Y-29473802D01*
X5284792Y-29470645D01*
X5284789Y-29470643D01*
X5206611Y-29415902D01*
X5101749Y-29342477D01*
X5096767Y-29340154D01*
X5096762Y-29340151D01*
X4899225Y-29248039D01*
X4899224Y-29248039D01*
X4894243Y-29245716D01*
X4888935Y-29244294D01*
X4888933Y-29244293D01*
X4678402Y-29187881D01*
X4678400Y-29187881D01*
X4673087Y-29186457D01*
X4445000Y-29166502D01*
X4216913Y-29186457D01*
X4211600Y-29187881D01*
X4211598Y-29187881D01*
X4001067Y-29244293D01*
X4001065Y-29244294D01*
X3995757Y-29245716D01*
X3990776Y-29248039D01*
X3990775Y-29248039D01*
X3793238Y-29340151D01*
X3793233Y-29340154D01*
X3788251Y-29342477D01*
X3683389Y-29415902D01*
X3605211Y-29470643D01*
X3605208Y-29470645D01*
X3600700Y-29473802D01*
X3438802Y-29635700D01*
X3307477Y-29823251D01*
X3305154Y-29828233D01*
X3305151Y-29828238D01*
X3305034Y-29828489D01*
X3210716Y-30030757D01*
X3151457Y-30251913D01*
X3131502Y-30480000D01*
X3151457Y-30708087D01*
X3152881Y-30713400D01*
X3152881Y-30713402D01*
X3200478Y-30891033D01*
X3210716Y-30929243D01*
X3213039Y-30934224D01*
X3213039Y-30934225D01*
X3305151Y-31131762D01*
X3305154Y-31131767D01*
X3307477Y-31136749D01*
X3362002Y-31214619D01*
X3406543Y-31278229D01*
X3438802Y-31324300D01*
X3600700Y-31486198D01*
X3605208Y-31489355D01*
X3605211Y-31489357D01*
X3683389Y-31544098D01*
X3788251Y-31617523D01*
X3793233Y-31619846D01*
X3793238Y-31619849D01*
X3990775Y-31711961D01*
X3995757Y-31714284D01*
X4001065Y-31715706D01*
X4001067Y-31715707D01*
X4211598Y-31772119D01*
X4211600Y-31772119D01*
X4216913Y-31773543D01*
X4222389Y-31774022D01*
X4222394Y-31774023D01*
X4352096Y-31785370D01*
X4430751Y-31792251D01*
X4496869Y-31818114D01*
X4508864Y-31828677D01*
X5650019Y-32969832D01*
X5662860Y-32984865D01*
X5671134Y-32996253D01*
X5676043Y-33000673D01*
X5721959Y-33042016D01*
X5726744Y-33046557D01*
X5741259Y-33061072D01*
X5743823Y-33063148D01*
X5757216Y-33073994D01*
X5762231Y-33078278D01*
X5808145Y-33119619D01*
X5808150Y-33119623D01*
X5813056Y-33124040D01*
X5818772Y-33127340D01*
X5818776Y-33127343D01*
X5825237Y-33131073D01*
X5841533Y-33142273D01*
X5852470Y-33151129D01*
X5858348Y-33154124D01*
X5858351Y-33154126D01*
X5913426Y-33182188D01*
X5919223Y-33185336D01*
X5972721Y-33216223D01*
X5978444Y-33219527D01*
X5991826Y-33223875D01*
X6010085Y-33231438D01*
X6022630Y-33237830D01*
X6029000Y-33239537D01*
X6029003Y-33239538D01*
X6068074Y-33250007D01*
X6088712Y-33255537D01*
X6095025Y-33257407D01*
X6160072Y-33278542D01*
X6174075Y-33280014D01*
X6193504Y-33283615D01*
X6207097Y-33287257D01*
X6213694Y-33287603D01*
X6213696Y-33287603D01*
X6275384Y-33290836D01*
X6281958Y-33291353D01*
X6299116Y-33293156D01*
X6299118Y-33293156D01*
X6302390Y-33293500D01*
X6322926Y-33293500D01*
X6329520Y-33293673D01*
X6391218Y-33296907D01*
X6391223Y-33296907D01*
X6397810Y-33297252D01*
X6411708Y-33295051D01*
X6431417Y-33293500D01*
X47543583Y-33293500D01*
X47563292Y-33295051D01*
X47577190Y-33297252D01*
X47583777Y-33296907D01*
X47583782Y-33296907D01*
X47645480Y-33293673D01*
X47652074Y-33293500D01*
X47672610Y-33293500D01*
X47675882Y-33293156D01*
X47675884Y-33293156D01*
X47693042Y-33291353D01*
X47699616Y-33290836D01*
X47761308Y-33287603D01*
X47761312Y-33287602D01*
X47767903Y-33287257D01*
X47774284Y-33285547D01*
X47774286Y-33285547D01*
X47781491Y-33283617D01*
X47800925Y-33280015D01*
X47808354Y-33279234D01*
X47808363Y-33279232D01*
X47814928Y-33278542D01*
X47879997Y-33257400D01*
X47886299Y-33255533D01*
X47952370Y-33237829D01*
X47964908Y-33231440D01*
X47983174Y-33223875D01*
X47990272Y-33221569D01*
X47990274Y-33221568D01*
X47996556Y-33219527D01*
X48055785Y-33185331D01*
X48061579Y-33182185D01*
X48122530Y-33151129D01*
X48133467Y-33142273D01*
X48149763Y-33131073D01*
X48156224Y-33127343D01*
X48156228Y-33127340D01*
X48161944Y-33124040D01*
X48166850Y-33119623D01*
X48166855Y-33119619D01*
X48212769Y-33078278D01*
X48217784Y-33073994D01*
X48231177Y-33063148D01*
X48233741Y-33061072D01*
X48248256Y-33046557D01*
X48253041Y-33042016D01*
X48298957Y-33000673D01*
X48303866Y-32996253D01*
X48312140Y-32984865D01*
X48324981Y-32969832D01*
X53251905Y-28042908D01*
X53314217Y-28008882D01*
X53385032Y-28013947D01*
X53441868Y-28056494D01*
X53466679Y-28123014D01*
X53467000Y-28132003D01*
X53467000Y-35510672D01*
X53465500Y-35530056D01*
X53461814Y-35553730D01*
X53463941Y-35569999D01*
X53464734Y-35594567D01*
X53450156Y-35816985D01*
X53448005Y-35833326D01*
X53399371Y-36077824D01*
X53395105Y-36093743D01*
X53314978Y-36329790D01*
X53308671Y-36345017D01*
X53198416Y-36568592D01*
X53190175Y-36582865D01*
X53051684Y-36790133D01*
X53041651Y-36803210D01*
X52877286Y-36990632D01*
X52865632Y-37002286D01*
X52722874Y-37127482D01*
X52678210Y-37166651D01*
X52665133Y-37176684D01*
X52457865Y-37315175D01*
X52443592Y-37323416D01*
X52220017Y-37433671D01*
X52204790Y-37439978D01*
X51968743Y-37520105D01*
X51952824Y-37524371D01*
X51708327Y-37573005D01*
X51691986Y-37575156D01*
X51476732Y-37589264D01*
X51453696Y-37588239D01*
X51450146Y-37588196D01*
X51441270Y-37586814D01*
X51409749Y-37590936D01*
X51393411Y-37592000D01*
X2624477Y-37592000D01*
X2590554Y-37587348D01*
X2376225Y-37527432D01*
X2363979Y-37523321D01*
X2145603Y-37437323D01*
X2104030Y-37420951D01*
X2092278Y-37415612D01*
X2022910Y-37379699D01*
X1844175Y-37287165D01*
X1833024Y-37280646D01*
X1599387Y-37127482D01*
X1588962Y-37119856D01*
X1372216Y-36943563D01*
X1362626Y-36934909D01*
X1165091Y-36737374D01*
X1156437Y-36727784D01*
X980144Y-36511038D01*
X972518Y-36500613D01*
X819354Y-36266976D01*
X812835Y-36255825D01*
X684390Y-36007726D01*
X679047Y-35995966D01*
X576679Y-35736021D01*
X572568Y-35723775D01*
X512652Y-35509446D01*
X508000Y-35475523D01*
X508000Y-34925000D01*
X1561526Y-34925000D01*
X1581391Y-35177403D01*
X1640495Y-35423591D01*
X1642388Y-35428162D01*
X1642389Y-35428164D01*
X1712107Y-35596477D01*
X1737384Y-35657502D01*
X1869672Y-35873376D01*
X2034102Y-36065898D01*
X2226624Y-36230328D01*
X2442498Y-36362616D01*
X2447068Y-36364509D01*
X2447072Y-36364511D01*
X2671836Y-36457611D01*
X2676409Y-36459505D01*
X2761032Y-36479821D01*
X2917784Y-36517454D01*
X2917790Y-36517455D01*
X2922597Y-36518609D01*
X3022416Y-36526465D01*
X3109345Y-36533307D01*
X3109352Y-36533307D01*
X3111801Y-36533500D01*
X3238199Y-36533500D01*
X3240648Y-36533307D01*
X3240655Y-36533307D01*
X3327584Y-36526465D01*
X3427403Y-36518609D01*
X3432210Y-36517455D01*
X3432216Y-36517454D01*
X3588968Y-36479821D01*
X3673591Y-36459505D01*
X3678164Y-36457611D01*
X3902928Y-36364511D01*
X3902932Y-36364509D01*
X3907502Y-36362616D01*
X4123376Y-36230328D01*
X4315898Y-36065898D01*
X4480328Y-35873376D01*
X4612616Y-35657502D01*
X4637894Y-35596477D01*
X4707611Y-35428164D01*
X4707612Y-35428162D01*
X4709505Y-35423591D01*
X4768609Y-35177403D01*
X4788474Y-34925000D01*
X49186526Y-34925000D01*
X49206391Y-35177403D01*
X49265495Y-35423591D01*
X49267388Y-35428162D01*
X49267389Y-35428164D01*
X49337107Y-35596477D01*
X49362384Y-35657502D01*
X49494672Y-35873376D01*
X49659102Y-36065898D01*
X49851624Y-36230328D01*
X50067498Y-36362616D01*
X50072068Y-36364509D01*
X50072072Y-36364511D01*
X50296836Y-36457611D01*
X50301409Y-36459505D01*
X50386032Y-36479821D01*
X50542784Y-36517454D01*
X50542790Y-36517455D01*
X50547597Y-36518609D01*
X50647416Y-36526465D01*
X50734345Y-36533307D01*
X50734352Y-36533307D01*
X50736801Y-36533500D01*
X50863199Y-36533500D01*
X50865648Y-36533307D01*
X50865655Y-36533307D01*
X50952584Y-36526465D01*
X51052403Y-36518609D01*
X51057210Y-36517455D01*
X51057216Y-36517454D01*
X51213968Y-36479821D01*
X51298591Y-36459505D01*
X51303164Y-36457611D01*
X51527928Y-36364511D01*
X51527932Y-36364509D01*
X51532502Y-36362616D01*
X51748376Y-36230328D01*
X51940898Y-36065898D01*
X52105328Y-35873376D01*
X52237616Y-35657502D01*
X52262894Y-35596477D01*
X52332611Y-35428164D01*
X52332612Y-35428162D01*
X52334505Y-35423591D01*
X52393609Y-35177403D01*
X52413474Y-34925000D01*
X52393609Y-34672597D01*
X52334505Y-34426409D01*
X52237616Y-34192498D01*
X52105328Y-33976624D01*
X51940898Y-33784102D01*
X51748376Y-33619672D01*
X51532502Y-33487384D01*
X51527932Y-33485491D01*
X51527928Y-33485489D01*
X51303164Y-33392389D01*
X51303162Y-33392388D01*
X51298591Y-33390495D01*
X51213968Y-33370179D01*
X51057216Y-33332546D01*
X51057210Y-33332545D01*
X51052403Y-33331391D01*
X50952584Y-33323535D01*
X50865655Y-33316693D01*
X50865648Y-33316693D01*
X50863199Y-33316500D01*
X50736801Y-33316500D01*
X50734352Y-33316693D01*
X50734345Y-33316693D01*
X50647416Y-33323535D01*
X50547597Y-33331391D01*
X50542790Y-33332545D01*
X50542784Y-33332546D01*
X50386032Y-33370179D01*
X50301409Y-33390495D01*
X50296838Y-33392388D01*
X50296836Y-33392389D01*
X50072072Y-33485489D01*
X50072068Y-33485491D01*
X50067498Y-33487384D01*
X49851624Y-33619672D01*
X49659102Y-33784102D01*
X49494672Y-33976624D01*
X49362384Y-34192498D01*
X49265495Y-34426409D01*
X49206391Y-34672597D01*
X49186526Y-34925000D01*
X4788474Y-34925000D01*
X4768609Y-34672597D01*
X4709505Y-34426409D01*
X4612616Y-34192498D01*
X4480328Y-33976624D01*
X4315898Y-33784102D01*
X4123376Y-33619672D01*
X3907502Y-33487384D01*
X3902932Y-33485491D01*
X3902928Y-33485489D01*
X3678164Y-33392389D01*
X3678162Y-33392388D01*
X3673591Y-33390495D01*
X3588968Y-33370179D01*
X3432216Y-33332546D01*
X3432210Y-33332545D01*
X3427403Y-33331391D01*
X3327584Y-33323535D01*
X3240655Y-33316693D01*
X3240648Y-33316693D01*
X3238199Y-33316500D01*
X3111801Y-33316500D01*
X3109352Y-33316693D01*
X3109345Y-33316693D01*
X3022416Y-33323535D01*
X2922597Y-33331391D01*
X2917790Y-33332545D01*
X2917784Y-33332546D01*
X2761032Y-33370179D01*
X2676409Y-33390495D01*
X2671838Y-33392388D01*
X2671836Y-33392389D01*
X2447072Y-33485489D01*
X2447068Y-33485491D01*
X2442498Y-33487384D01*
X2226624Y-33619672D01*
X2034102Y-33784102D01*
X1869672Y-33976624D01*
X1737384Y-34192498D01*
X1640495Y-34426409D01*
X1581391Y-34672597D01*
X1561526Y-34925000D01*
X508000Y-34925000D01*
X508000Y-3175000D01*
X1561526Y-3175000D01*
X1581391Y-3427403D01*
X1582545Y-3432210D01*
X1582546Y-3432216D01*
X1585063Y-3442699D01*
X1640495Y-3673591D01*
X1642388Y-3678162D01*
X1642389Y-3678164D01*
X1687989Y-3788251D01*
X1737384Y-3907502D01*
X1869672Y-4123376D01*
X2034102Y-4315898D01*
X2226624Y-4480328D01*
X2442498Y-4612616D01*
X2447068Y-4614509D01*
X2447072Y-4614511D01*
X2671836Y-4707611D01*
X2676409Y-4709505D01*
X2761032Y-4729821D01*
X2917784Y-4767454D01*
X2917790Y-4767455D01*
X2922597Y-4768609D01*
X3022416Y-4776465D01*
X3109345Y-4783307D01*
X3109352Y-4783307D01*
X3111801Y-4783500D01*
X3238199Y-4783500D01*
X3240648Y-4783307D01*
X3240655Y-4783307D01*
X3327584Y-4776465D01*
X3427403Y-4768609D01*
X3432210Y-4767455D01*
X3432216Y-4767454D01*
X3588968Y-4729821D01*
X3673591Y-4709505D01*
X3678164Y-4707611D01*
X3902928Y-4614511D01*
X3902932Y-4614509D01*
X3907502Y-4612616D01*
X4123376Y-4480328D01*
X4164740Y-4445000D01*
X6306502Y-4445000D01*
X6326457Y-4673087D01*
X6327881Y-4678400D01*
X6327881Y-4678402D01*
X6355991Y-4783307D01*
X6385716Y-4894243D01*
X6388039Y-4899224D01*
X6388039Y-4899225D01*
X6480151Y-5096762D01*
X6480154Y-5096767D01*
X6482477Y-5101749D01*
X6613802Y-5289300D01*
X6775700Y-5451198D01*
X6780208Y-5454355D01*
X6780211Y-5454357D01*
X6858389Y-5509098D01*
X6963251Y-5582523D01*
X6968233Y-5584846D01*
X6968238Y-5584849D01*
X7165775Y-5676961D01*
X7170757Y-5679284D01*
X7176065Y-5680706D01*
X7176067Y-5680707D01*
X7386598Y-5737119D01*
X7386600Y-5737119D01*
X7391913Y-5738543D01*
X7620000Y-5758498D01*
X7848087Y-5738543D01*
X7853400Y-5737119D01*
X7853402Y-5737119D01*
X8063933Y-5680707D01*
X8063935Y-5680706D01*
X8069243Y-5679284D01*
X8074225Y-5676961D01*
X8271762Y-5584849D01*
X8271767Y-5584846D01*
X8276749Y-5582523D01*
X8381611Y-5509098D01*
X8459789Y-5454357D01*
X8459792Y-5454355D01*
X8464300Y-5451198D01*
X8626198Y-5289300D01*
X8757523Y-5101749D01*
X8759846Y-5096767D01*
X8759849Y-5096762D01*
X8851961Y-4899225D01*
X8851961Y-4899224D01*
X8854284Y-4894243D01*
X8884010Y-4783307D01*
X8912119Y-4678402D01*
X8912119Y-4678400D01*
X8913543Y-4673087D01*
X8914022Y-4667611D01*
X8914023Y-4667606D01*
X8932251Y-4459250D01*
X8958114Y-4393131D01*
X8968677Y-4381136D01*
X10458439Y-2891374D01*
X10520751Y-2857348D01*
X10547534Y-2854469D01*
X13971528Y-2854469D01*
X14039649Y-2874471D01*
X14086142Y-2928127D01*
X14096246Y-2998401D01*
X14066752Y-3062981D01*
X14060623Y-3069564D01*
X14033864Y-3096323D01*
X13971552Y-3130349D01*
X13955754Y-3132748D01*
X13877096Y-3139630D01*
X13747394Y-3150977D01*
X13747389Y-3150978D01*
X13741913Y-3151457D01*
X13736600Y-3152881D01*
X13736598Y-3152881D01*
X13526067Y-3209293D01*
X13526065Y-3209294D01*
X13520757Y-3210716D01*
X13515776Y-3213039D01*
X13515775Y-3213039D01*
X13318238Y-3305151D01*
X13318233Y-3305154D01*
X13313251Y-3307477D01*
X13208389Y-3380902D01*
X13130211Y-3435643D01*
X13130208Y-3435645D01*
X13125700Y-3438802D01*
X12963802Y-3600700D01*
X12832477Y-3788251D01*
X12830154Y-3793233D01*
X12830151Y-3793238D01*
X12761299Y-3940894D01*
X12735716Y-3995757D01*
X12734294Y-4001065D01*
X12734293Y-4001067D01*
X12719367Y-4056772D01*
X12676457Y-4216913D01*
X12656502Y-4445000D01*
X12676457Y-4673087D01*
X12677881Y-4678400D01*
X12677881Y-4678402D01*
X12705991Y-4783307D01*
X12735716Y-4894243D01*
X12738039Y-4899224D01*
X12738039Y-4899225D01*
X12830151Y-5096762D01*
X12830154Y-5096767D01*
X12832477Y-5101749D01*
X12963802Y-5289300D01*
X13125700Y-5451198D01*
X13130208Y-5454355D01*
X13130211Y-5454357D01*
X13208389Y-5509098D01*
X13313251Y-5582523D01*
X13318233Y-5584846D01*
X13318238Y-5584849D01*
X13515775Y-5676961D01*
X13520757Y-5679284D01*
X13526065Y-5680706D01*
X13526067Y-5680707D01*
X13736598Y-5737119D01*
X13736600Y-5737119D01*
X13741913Y-5738543D01*
X13970000Y-5758498D01*
X14198087Y-5738543D01*
X14203400Y-5737119D01*
X14203402Y-5737119D01*
X14413933Y-5680707D01*
X14413935Y-5680706D01*
X14419243Y-5679284D01*
X14424225Y-5676961D01*
X14621762Y-5584849D01*
X14621767Y-5584846D01*
X14626749Y-5582523D01*
X14731611Y-5509098D01*
X14809789Y-5454357D01*
X14809792Y-5454355D01*
X14814300Y-5451198D01*
X14976198Y-5289300D01*
X15107523Y-5101749D01*
X15109846Y-5096767D01*
X15109849Y-5096762D01*
X15201961Y-4899225D01*
X15201961Y-4899224D01*
X15204284Y-4894243D01*
X15234010Y-4783307D01*
X15262119Y-4678402D01*
X15262119Y-4678400D01*
X15263543Y-4673087D01*
X15264022Y-4667611D01*
X15264023Y-4667606D01*
X15282251Y-4459250D01*
X15308114Y-4393131D01*
X15318677Y-4381136D01*
X15758919Y-3940894D01*
X15821231Y-3906868D01*
X15848014Y-3903989D01*
X18946098Y-3903989D01*
X19014219Y-3923991D01*
X19060712Y-3977647D01*
X19070816Y-4047921D01*
X19067805Y-4062600D01*
X19026457Y-4216913D01*
X19006502Y-4445000D01*
X19026457Y-4673087D01*
X19027881Y-4678400D01*
X19027881Y-4678402D01*
X19055991Y-4783307D01*
X19085716Y-4894243D01*
X19088039Y-4899224D01*
X19088039Y-4899225D01*
X19180151Y-5096762D01*
X19180154Y-5096767D01*
X19182477Y-5101749D01*
X19313802Y-5289300D01*
X19475700Y-5451198D01*
X19480208Y-5454355D01*
X19480211Y-5454357D01*
X19558389Y-5509098D01*
X19663251Y-5582523D01*
X19668233Y-5584846D01*
X19668238Y-5584849D01*
X19865775Y-5676961D01*
X19870757Y-5679284D01*
X19876065Y-5680706D01*
X19876067Y-5680707D01*
X20086598Y-5737119D01*
X20086600Y-5737119D01*
X20091913Y-5738543D01*
X20320000Y-5758498D01*
X20548087Y-5738543D01*
X20553400Y-5737119D01*
X20553402Y-5737119D01*
X20763933Y-5680707D01*
X20763935Y-5680706D01*
X20769243Y-5679284D01*
X20774225Y-5676961D01*
X20971762Y-5584849D01*
X20971767Y-5584846D01*
X20976749Y-5582523D01*
X21081611Y-5509098D01*
X21159789Y-5454357D01*
X21159792Y-5454355D01*
X21164300Y-5451198D01*
X21225093Y-5390405D01*
X21287405Y-5356379D01*
X21314188Y-5353500D01*
X24336497Y-5353500D01*
X24404618Y-5373502D01*
X24425592Y-5390405D01*
X26493536Y-7458349D01*
X26527562Y-7520661D01*
X26529727Y-7560834D01*
X26527644Y-7580326D01*
X26527644Y-7580333D01*
X26527095Y-7585469D01*
X26527392Y-7590622D01*
X26527392Y-7590625D01*
X26533067Y-7689041D01*
X26540427Y-7816697D01*
X26541564Y-7821743D01*
X26541565Y-7821749D01*
X26573741Y-7964523D01*
X26591346Y-8042642D01*
X26593288Y-8047424D01*
X26593289Y-8047428D01*
X26676540Y-8252450D01*
X26678484Y-8257237D01*
X26799501Y-8454719D01*
X26802882Y-8458622D01*
X26911653Y-8584191D01*
X26941135Y-8648776D01*
X26931020Y-8719049D01*
X26884519Y-8772697D01*
X26860646Y-8784670D01*
X26801944Y-8806677D01*
X26786351Y-8815214D01*
X26684276Y-8891715D01*
X26671715Y-8904276D01*
X26595214Y-9006351D01*
X26586676Y-9021946D01*
X26541522Y-9142394D01*
X26537895Y-9157649D01*
X26532369Y-9208514D01*
X26532000Y-9215328D01*
X26532000Y-9887885D01*
X26536475Y-9903124D01*
X26537865Y-9904329D01*
X26545548Y-9906000D01*
X29329884Y-9906000D01*
X29345123Y-9901525D01*
X29346328Y-9900135D01*
X29347999Y-9892452D01*
X29347999Y-9215331D01*
X29347629Y-9208510D01*
X29342105Y-9157648D01*
X29338479Y-9142396D01*
X29293324Y-9021946D01*
X29284786Y-9006351D01*
X29208285Y-8904276D01*
X29195724Y-8891715D01*
X29093649Y-8815214D01*
X29078052Y-8806675D01*
X29019415Y-8784693D01*
X28962650Y-8742052D01*
X28937950Y-8675490D01*
X28953157Y-8606141D01*
X28974703Y-8577461D01*
X29012641Y-8539654D01*
X29016303Y-8536005D01*
X29151458Y-8347917D01*
X29198641Y-8252450D01*
X29251784Y-8144922D01*
X29251785Y-8144920D01*
X29254078Y-8140280D01*
X29321408Y-7918671D01*
X29351640Y-7689041D01*
X29353327Y-7620000D01*
X29340037Y-7458349D01*
X29334773Y-7394318D01*
X29334772Y-7394312D01*
X29334349Y-7389167D01*
X29277925Y-7164533D01*
X29185570Y-6952131D01*
X29059764Y-6757665D01*
X28903887Y-6586358D01*
X28899836Y-6583159D01*
X28899832Y-6583155D01*
X28726177Y-6446011D01*
X28726172Y-6446008D01*
X28722123Y-6442810D01*
X28717607Y-6440317D01*
X28717604Y-6440315D01*
X28523879Y-6333373D01*
X28523875Y-6333371D01*
X28519355Y-6330876D01*
X28514486Y-6329152D01*
X28514482Y-6329150D01*
X28305903Y-6255288D01*
X28305899Y-6255287D01*
X28301028Y-6253562D01*
X28295935Y-6252655D01*
X28295932Y-6252654D01*
X28078095Y-6213851D01*
X28078089Y-6213850D01*
X28073006Y-6212945D01*
X27865888Y-6210415D01*
X27798017Y-6189582D01*
X27778332Y-6173519D01*
X25723897Y-4119084D01*
X25689871Y-4056772D01*
X25694936Y-3985957D01*
X25737483Y-3929121D01*
X25804003Y-3904310D01*
X25812992Y-3903989D01*
X32411986Y-3903989D01*
X32480107Y-3923991D01*
X32501081Y-3940894D01*
X36018536Y-7458349D01*
X36052562Y-7520661D01*
X36054727Y-7560834D01*
X36052644Y-7580326D01*
X36052644Y-7580333D01*
X36052095Y-7585469D01*
X36052392Y-7590622D01*
X36052392Y-7590625D01*
X36058067Y-7689041D01*
X36065427Y-7816697D01*
X36066564Y-7821743D01*
X36066565Y-7821749D01*
X36098741Y-7964523D01*
X36116346Y-8042642D01*
X36118288Y-8047424D01*
X36118289Y-8047428D01*
X36201540Y-8252450D01*
X36203484Y-8257237D01*
X36324501Y-8454719D01*
X36327882Y-8458622D01*
X36436653Y-8584191D01*
X36466135Y-8648776D01*
X36456020Y-8719049D01*
X36409519Y-8772697D01*
X36385646Y-8784670D01*
X36326944Y-8806677D01*
X36311351Y-8815214D01*
X36209276Y-8891715D01*
X36196715Y-8904276D01*
X36120214Y-9006351D01*
X36111676Y-9021946D01*
X36066522Y-9142394D01*
X36062895Y-9157649D01*
X36057369Y-9208514D01*
X36057000Y-9215328D01*
X36057000Y-9887885D01*
X36061475Y-9903124D01*
X36062865Y-9904329D01*
X36070548Y-9906000D01*
X38854884Y-9906000D01*
X38870123Y-9901525D01*
X38871328Y-9900135D01*
X38872999Y-9892452D01*
X38872999Y-9215331D01*
X38872629Y-9208510D01*
X38867105Y-9157648D01*
X38863479Y-9142396D01*
X38818324Y-9021946D01*
X38809786Y-9006351D01*
X38733285Y-8904276D01*
X38720724Y-8891715D01*
X38618649Y-8815214D01*
X38603052Y-8806675D01*
X38544415Y-8784693D01*
X38487650Y-8742052D01*
X38462950Y-8675490D01*
X38478157Y-8606141D01*
X38499703Y-8577461D01*
X38537641Y-8539654D01*
X38541303Y-8536005D01*
X38676458Y-8347917D01*
X38723641Y-8252450D01*
X38776784Y-8144922D01*
X38776785Y-8144920D01*
X38779078Y-8140280D01*
X38846408Y-7918671D01*
X38876640Y-7689041D01*
X38878327Y-7620000D01*
X38865037Y-7458349D01*
X38859773Y-7394318D01*
X38859772Y-7394312D01*
X38859349Y-7389167D01*
X38802925Y-7164533D01*
X38710570Y-6952131D01*
X38584764Y-6757665D01*
X38428887Y-6586358D01*
X38424836Y-6583159D01*
X38424832Y-6583155D01*
X38251177Y-6446011D01*
X38251172Y-6446008D01*
X38247123Y-6442810D01*
X38242607Y-6440317D01*
X38242604Y-6440315D01*
X38048879Y-6333373D01*
X38048875Y-6333371D01*
X38044355Y-6330876D01*
X38039486Y-6329152D01*
X38039482Y-6329150D01*
X37830903Y-6255288D01*
X37830899Y-6255287D01*
X37826028Y-6253562D01*
X37820935Y-6252655D01*
X37820932Y-6252654D01*
X37603095Y-6213851D01*
X37603089Y-6213850D01*
X37598006Y-6212945D01*
X37390888Y-6210415D01*
X37323017Y-6189582D01*
X37303332Y-6173519D01*
X34199377Y-3069564D01*
X34165351Y-3007252D01*
X34170416Y-2936437D01*
X34212963Y-2879601D01*
X34279483Y-2854790D01*
X34288472Y-2854469D01*
X40887466Y-2854469D01*
X40955587Y-2874471D01*
X40976561Y-2891374D01*
X45543536Y-7458349D01*
X45577562Y-7520661D01*
X45579727Y-7560834D01*
X45577644Y-7580326D01*
X45577644Y-7580333D01*
X45577095Y-7585469D01*
X45577392Y-7590622D01*
X45577392Y-7590625D01*
X45583067Y-7689041D01*
X45590427Y-7816697D01*
X45591564Y-7821743D01*
X45591565Y-7821749D01*
X45623741Y-7964523D01*
X45641346Y-8042642D01*
X45643288Y-8047424D01*
X45643289Y-8047428D01*
X45726540Y-8252450D01*
X45728484Y-8257237D01*
X45849501Y-8454719D01*
X45852882Y-8458622D01*
X45961653Y-8584191D01*
X45991135Y-8648776D01*
X45981020Y-8719049D01*
X45934519Y-8772697D01*
X45910646Y-8784670D01*
X45851944Y-8806677D01*
X45836351Y-8815214D01*
X45734276Y-8891715D01*
X45721715Y-8904276D01*
X45645214Y-9006351D01*
X45636676Y-9021946D01*
X45591522Y-9142394D01*
X45587895Y-9157649D01*
X45582369Y-9208514D01*
X45582000Y-9215328D01*
X45582000Y-9887885D01*
X45586475Y-9903124D01*
X45587865Y-9904329D01*
X45595548Y-9906000D01*
X48379884Y-9906000D01*
X48395123Y-9901525D01*
X48396328Y-9900135D01*
X48397999Y-9892452D01*
X48397999Y-9215331D01*
X48397629Y-9208510D01*
X48392105Y-9157648D01*
X48388479Y-9142396D01*
X48343324Y-9021946D01*
X48334786Y-9006351D01*
X48258285Y-8904276D01*
X48245724Y-8891715D01*
X48143649Y-8815214D01*
X48128052Y-8806675D01*
X48069415Y-8784693D01*
X48012650Y-8742052D01*
X47987950Y-8675490D01*
X48003157Y-8606141D01*
X48024703Y-8577461D01*
X48062641Y-8539654D01*
X48066303Y-8536005D01*
X48201458Y-8347917D01*
X48248641Y-8252450D01*
X48301784Y-8144922D01*
X48301785Y-8144920D01*
X48304078Y-8140280D01*
X48371408Y-7918671D01*
X48401640Y-7689041D01*
X48403327Y-7620000D01*
X48390037Y-7458349D01*
X48384773Y-7394318D01*
X48384772Y-7394312D01*
X48384349Y-7389167D01*
X48327925Y-7164533D01*
X48235570Y-6952131D01*
X48109764Y-6757665D01*
X47953887Y-6586358D01*
X47949836Y-6583159D01*
X47949832Y-6583155D01*
X47776177Y-6446011D01*
X47776172Y-6446008D01*
X47772123Y-6442810D01*
X47767607Y-6440317D01*
X47767604Y-6440315D01*
X47573879Y-6333373D01*
X47573875Y-6333371D01*
X47569355Y-6330876D01*
X47564486Y-6329152D01*
X47564482Y-6329150D01*
X47355902Y-6255288D01*
X47351028Y-6253562D01*
X47345936Y-6252655D01*
X47342201Y-6251668D01*
X47332121Y-6248547D01*
X47182428Y-6195244D01*
X47182423Y-6195243D01*
X47175790Y-6192881D01*
X47168802Y-6192048D01*
X47168799Y-6192047D01*
X47045698Y-6177368D01*
X46995680Y-6171404D01*
X46988677Y-6172140D01*
X46988676Y-6172140D01*
X46902102Y-6181239D01*
X46832264Y-6168467D01*
X46799837Y-6145024D01*
X43829813Y-3175000D01*
X49186526Y-3175000D01*
X49206391Y-3427403D01*
X49207545Y-3432210D01*
X49207546Y-3432216D01*
X49210063Y-3442699D01*
X49265495Y-3673591D01*
X49267388Y-3678162D01*
X49267389Y-3678164D01*
X49312989Y-3788251D01*
X49362384Y-3907502D01*
X49494672Y-4123376D01*
X49659102Y-4315898D01*
X49851624Y-4480328D01*
X50067498Y-4612616D01*
X50072068Y-4614509D01*
X50072072Y-4614511D01*
X50296836Y-4707611D01*
X50301409Y-4709505D01*
X50386032Y-4729821D01*
X50542784Y-4767454D01*
X50542790Y-4767455D01*
X50547597Y-4768609D01*
X50647416Y-4776465D01*
X50734345Y-4783307D01*
X50734352Y-4783307D01*
X50736801Y-4783500D01*
X50863199Y-4783500D01*
X50865648Y-4783307D01*
X50865655Y-4783307D01*
X50952584Y-4776465D01*
X51052403Y-4768609D01*
X51057210Y-4767455D01*
X51057216Y-4767454D01*
X51213968Y-4729821D01*
X51298591Y-4709505D01*
X51303164Y-4707611D01*
X51527928Y-4614511D01*
X51527932Y-4614509D01*
X51532502Y-4612616D01*
X51748376Y-4480328D01*
X51940898Y-4315898D01*
X52105328Y-4123376D01*
X52237616Y-3907502D01*
X52287012Y-3788251D01*
X52332611Y-3678164D01*
X52332612Y-3678162D01*
X52334505Y-3673591D01*
X52389937Y-3442699D01*
X52392454Y-3432216D01*
X52392455Y-3432210D01*
X52393609Y-3427403D01*
X52413474Y-3175000D01*
X52393609Y-2922597D01*
X52377945Y-2857348D01*
X52335660Y-2681221D01*
X52334505Y-2676409D01*
X52295682Y-2582681D01*
X52239511Y-2447072D01*
X52239509Y-2447068D01*
X52237616Y-2442498D01*
X52105328Y-2226624D01*
X51940898Y-2034102D01*
X51748376Y-1869672D01*
X51532502Y-1737384D01*
X51527932Y-1735491D01*
X51527928Y-1735489D01*
X51303164Y-1642389D01*
X51303162Y-1642388D01*
X51298591Y-1640495D01*
X51213968Y-1620179D01*
X51057216Y-1582546D01*
X51057210Y-1582545D01*
X51052403Y-1581391D01*
X50952584Y-1573535D01*
X50865655Y-1566693D01*
X50865648Y-1566693D01*
X50863199Y-1566500D01*
X50736801Y-1566500D01*
X50734352Y-1566693D01*
X50734345Y-1566693D01*
X50647416Y-1573535D01*
X50547597Y-1581391D01*
X50542790Y-1582545D01*
X50542784Y-1582546D01*
X50386032Y-1620179D01*
X50301409Y-1640495D01*
X50296838Y-1642388D01*
X50296836Y-1642389D01*
X50072072Y-1735489D01*
X50072068Y-1735491D01*
X50067498Y-1737384D01*
X49851624Y-1869672D01*
X49659102Y-2034102D01*
X49494672Y-2226624D01*
X49362384Y-2442498D01*
X49360491Y-2447068D01*
X49360489Y-2447072D01*
X49304318Y-2582681D01*
X49265495Y-2676409D01*
X49264340Y-2681221D01*
X49222056Y-2857348D01*
X49206391Y-2922597D01*
X49186526Y-3175000D01*
X43829813Y-3175000D01*
X42015950Y-1361137D01*
X42003109Y-1346104D01*
X41998715Y-1340056D01*
X41998714Y-1340055D01*
X41994835Y-1334716D01*
X41944010Y-1288953D01*
X41939225Y-1284412D01*
X41924710Y-1269897D01*
X41917251Y-1263857D01*
X41908753Y-1256975D01*
X41903738Y-1252691D01*
X41857824Y-1211350D01*
X41857819Y-1211346D01*
X41852913Y-1206929D01*
X41847197Y-1203629D01*
X41847193Y-1203626D01*
X41840732Y-1199896D01*
X41824435Y-1188696D01*
X41818629Y-1183994D01*
X41818627Y-1183993D01*
X41813499Y-1179840D01*
X41752542Y-1148781D01*
X41746751Y-1145636D01*
X41693248Y-1114746D01*
X41693247Y-1114745D01*
X41687525Y-1111442D01*
X41681243Y-1109401D01*
X41681241Y-1109400D01*
X41674143Y-1107094D01*
X41655876Y-1099528D01*
X41655872Y-1099526D01*
X41643339Y-1093140D01*
X41577260Y-1075434D01*
X41570966Y-1073569D01*
X41505897Y-1052427D01*
X41499332Y-1051737D01*
X41499323Y-1051735D01*
X41491894Y-1050954D01*
X41472460Y-1047352D01*
X41465255Y-1045422D01*
X41465253Y-1045422D01*
X41458872Y-1043712D01*
X41452281Y-1043367D01*
X41452277Y-1043366D01*
X41390585Y-1040133D01*
X41384011Y-1039616D01*
X41366853Y-1037813D01*
X41366851Y-1037813D01*
X41363579Y-1037469D01*
X41343043Y-1037469D01*
X41336449Y-1037296D01*
X41274751Y-1034062D01*
X41274746Y-1034062D01*
X41268159Y-1033717D01*
X41254261Y-1035918D01*
X41234552Y-1037469D01*
X10200448Y-1037469D01*
X10180738Y-1035918D01*
X10173358Y-1034749D01*
X10173357Y-1034749D01*
X10166841Y-1033717D01*
X10160254Y-1034062D01*
X10160249Y-1034062D01*
X10098551Y-1037296D01*
X10091957Y-1037469D01*
X10071421Y-1037469D01*
X10068149Y-1037813D01*
X10068147Y-1037813D01*
X10050989Y-1039616D01*
X10044415Y-1040133D01*
X9982727Y-1043366D01*
X9982725Y-1043366D01*
X9976128Y-1043712D01*
X9962535Y-1047354D01*
X9943106Y-1050955D01*
X9929103Y-1052427D01*
X9864056Y-1073562D01*
X9857743Y-1075432D01*
X9837105Y-1080962D01*
X9798034Y-1091431D01*
X9798031Y-1091432D01*
X9791661Y-1093139D01*
X9779116Y-1099531D01*
X9760857Y-1107094D01*
X9747475Y-1111442D01*
X9741754Y-1114745D01*
X9688254Y-1145633D01*
X9682457Y-1148781D01*
X9627382Y-1176843D01*
X9627379Y-1176845D01*
X9621501Y-1179840D01*
X9616373Y-1183993D01*
X9616371Y-1183994D01*
X9610565Y-1188696D01*
X9594268Y-1199896D01*
X9587807Y-1203626D01*
X9587803Y-1203629D01*
X9582087Y-1206929D01*
X9577181Y-1211346D01*
X9577176Y-1211350D01*
X9531262Y-1252691D01*
X9526247Y-1256975D01*
X9517749Y-1263857D01*
X9510290Y-1269897D01*
X9495775Y-1284412D01*
X9490990Y-1288953D01*
X9440165Y-1334716D01*
X9436286Y-1340055D01*
X9436285Y-1340056D01*
X9431891Y-1346104D01*
X9419050Y-1361137D01*
X7683864Y-3096323D01*
X7621552Y-3130349D01*
X7605754Y-3132748D01*
X7527096Y-3139630D01*
X7397394Y-3150977D01*
X7397389Y-3150978D01*
X7391913Y-3151457D01*
X7386600Y-3152881D01*
X7386598Y-3152881D01*
X7176067Y-3209293D01*
X7176065Y-3209294D01*
X7170757Y-3210716D01*
X7165776Y-3213039D01*
X7165775Y-3213039D01*
X6968238Y-3305151D01*
X6968233Y-3305154D01*
X6963251Y-3307477D01*
X6858389Y-3380902D01*
X6780211Y-3435643D01*
X6780208Y-3435645D01*
X6775700Y-3438802D01*
X6613802Y-3600700D01*
X6482477Y-3788251D01*
X6480154Y-3793233D01*
X6480151Y-3793238D01*
X6411299Y-3940894D01*
X6385716Y-3995757D01*
X6384294Y-4001065D01*
X6384293Y-4001067D01*
X6369367Y-4056772D01*
X6326457Y-4216913D01*
X6306502Y-4445000D01*
X4164740Y-4445000D01*
X4315898Y-4315898D01*
X4480328Y-4123376D01*
X4612616Y-3907502D01*
X4662012Y-3788251D01*
X4707611Y-3678164D01*
X4707612Y-3678162D01*
X4709505Y-3673591D01*
X4764937Y-3442699D01*
X4767454Y-3432216D01*
X4767455Y-3432210D01*
X4768609Y-3427403D01*
X4788474Y-3175000D01*
X4768609Y-2922597D01*
X4752945Y-2857348D01*
X4710660Y-2681221D01*
X4709505Y-2676409D01*
X4670682Y-2582681D01*
X4614511Y-2447072D01*
X4614509Y-2447068D01*
X4612616Y-2442498D01*
X4480328Y-2226624D01*
X4315898Y-2034102D01*
X4123376Y-1869672D01*
X3907502Y-1737384D01*
X3902932Y-1735491D01*
X3902928Y-1735489D01*
X3678164Y-1642389D01*
X3678162Y-1642388D01*
X3673591Y-1640495D01*
X3588968Y-1620179D01*
X3432216Y-1582546D01*
X3432210Y-1582545D01*
X3427403Y-1581391D01*
X3327584Y-1573535D01*
X3240655Y-1566693D01*
X3240648Y-1566693D01*
X3238199Y-1566500D01*
X3111801Y-1566500D01*
X3109352Y-1566693D01*
X3109345Y-1566693D01*
X3022416Y-1573535D01*
X2922597Y-1581391D01*
X2917790Y-1582545D01*
X2917784Y-1582546D01*
X2761032Y-1620179D01*
X2676409Y-1640495D01*
X2671838Y-1642388D01*
X2671836Y-1642389D01*
X2447072Y-1735489D01*
X2447068Y-1735491D01*
X2442498Y-1737384D01*
X2226624Y-1869672D01*
X2034102Y-2034102D01*
X1869672Y-2226624D01*
X1737384Y-2442498D01*
X1735491Y-2447068D01*
X1735489Y-2447072D01*
X1679318Y-2582681D01*
X1640495Y-2676409D01*
X1639340Y-2681221D01*
X1597056Y-2857348D01*
X1581391Y-2922597D01*
X1561526Y-3175000D01*
X508000Y-3175000D01*
X508000Y-2613796D01*
X511657Y-2583660D01*
X567206Y-2358146D01*
X571201Y-2345043D01*
X666518Y-2084156D01*
X671911Y-2071563D01*
X794990Y-1822559D01*
X801719Y-1810626D01*
X827502Y-1770210D01*
X951112Y-1576443D01*
X959078Y-1565337D01*
X1133018Y-1348748D01*
X1142155Y-1338560D01*
X1338560Y-1142155D01*
X1348748Y-1133018D01*
X1565337Y-959078D01*
X1576443Y-951112D01*
X1810628Y-801718D01*
X1822559Y-794990D01*
X1921729Y-745972D01*
X2071563Y-671911D01*
X2084156Y-666518D01*
X2345043Y-571201D01*
X2358146Y-567206D01*
X2583659Y-511657D01*
X2613795Y-508000D01*
X51385672Y-508000D01*
X51405057Y-509500D01*
G37*
%TD.AperFunction*%
%TD*%
M02*
