%TF.GenerationSoftware,KiCad,Pcbnew,6.0.2+dfsg-1*%
%TF.CreationDate,2022-06-14T19:44:07-04:00*%
%TF.ProjectId,NanoISP,4e616e6f-4953-4502-9e6b-696361645f70,rev?*%
%TF.SameCoordinates,PX6521e48PY1aa54a0*%
%TF.FileFunction,Copper,L2,Bot*%
%TF.FilePolarity,Positive*%
%FSLAX46Y46*%
G04 Gerber Fmt 4.6, Leading zero omitted, Abs format (unit mm)*
G04 Created by KiCad (PCBNEW 6.0.2+dfsg-1) date 2022-06-14 19:44:07*
%MOMM*%
%LPD*%
G01*
G04 APERTURE LIST*
%TA.AperFunction,ComponentPad*%
%ADD10C,1.600000*%
%TD*%
%TA.AperFunction,ComponentPad*%
%ADD11O,1.600000X1.600000*%
%TD*%
%TA.AperFunction,ComponentPad*%
%ADD12C,1.800000*%
%TD*%
%TA.AperFunction,ComponentPad*%
%ADD13R,1.800000X1.800000*%
%TD*%
%TA.AperFunction,ComponentPad*%
%ADD14O,1.700000X1.700000*%
%TD*%
%TA.AperFunction,ComponentPad*%
%ADD15R,1.700000X1.700000*%
%TD*%
%TA.AperFunction,ComponentPad*%
%ADD16R,1.600000X1.600000*%
%TD*%
%TA.AperFunction,ViaPad*%
%ADD17C,1.850000*%
%TD*%
%TA.AperFunction,Conductor*%
%ADD18C,0.800000*%
%TD*%
G04 APERTURE END LIST*
D10*
%TO.P,R1,1*%
%TO.N,Net-(D1-Pad2)*%
X7620000Y-4445000D03*
D11*
%TO.P,R1,2*%
%TO.N,Net-(A1-Pad10)*%
X7620000Y-12065000D03*
%TD*%
D10*
%TO.P,R2,1*%
%TO.N,Net-(D2-Pad2)*%
X13970000Y-4445000D03*
D11*
%TO.P,R2,2*%
%TO.N,Net-(A1-Pad11)*%
X13970000Y-12065000D03*
%TD*%
D10*
%TO.P,R3,1*%
%TO.N,Net-(D3-Pad2)*%
X20320000Y-4445000D03*
D11*
%TO.P,R3,2*%
%TO.N,Net-(A1-Pad12)*%
X20320000Y-12065000D03*
%TD*%
D12*
%TO.P,D3,2,A*%
%TO.N,Net-(D3-Pad2)*%
X27940000Y-7620000D03*
D13*
%TO.P,D3,1,K*%
%TO.N,/GND*%
X27940000Y-10160000D03*
%TD*%
D14*
%TO.P,J1,6,Pin_6*%
%TO.N,/GND*%
X6350000Y-19050000D03*
%TO.P,J1,5,Pin_5*%
%TO.N,Net-(A1-Pad13)*%
X3810000Y-19050000D03*
%TO.P,J1,4,Pin_4*%
%TO.N,Net-(A1-Pad14)*%
X6350000Y-21590000D03*
%TO.P,J1,3,Pin_3*%
%TO.N,Net-(A1-Pad16)*%
X3810000Y-21590000D03*
%TO.P,J1,2,Pin_2*%
%TO.N,Net-(A1-Pad30)*%
X6350000Y-24130000D03*
D15*
%TO.P,J1,1,Pin_1*%
%TO.N,Net-(A1-Pad15)*%
X3810000Y-24130000D03*
%TD*%
D16*
%TO.P,A1,1,D1/TX*%
%TO.N,unconnected-(A1-Pad1)*%
X13970000Y-15240000D03*
D11*
%TO.P,A1,2,D0/RX*%
%TO.N,unconnected-(A1-Pad2)*%
X16510000Y-15240000D03*
%TO.P,A1,3,~{RESET}*%
%TO.N,unconnected-(A1-Pad3)*%
X19050000Y-15240000D03*
%TO.P,A1,4,GND*%
%TO.N,/GND*%
X21590000Y-15240000D03*
%TO.P,A1,5,D2*%
%TO.N,unconnected-(A1-Pad5)*%
X24130000Y-15240000D03*
%TO.P,A1,6,D3*%
%TO.N,unconnected-(A1-Pad6)*%
X26670000Y-15240000D03*
%TO.P,A1,7,D4*%
%TO.N,unconnected-(A1-Pad7)*%
X29210000Y-15240000D03*
%TO.P,A1,8,D5*%
%TO.N,unconnected-(A1-Pad8)*%
X31750000Y-15240000D03*
%TO.P,A1,9,D6*%
%TO.N,unconnected-(A1-Pad9)*%
X34290000Y-15240000D03*
%TO.P,A1,10,D7*%
%TO.N,Net-(A1-Pad10)*%
X36830000Y-15240000D03*
%TO.P,A1,11,D8*%
%TO.N,Net-(A1-Pad11)*%
X39370000Y-15240000D03*
%TO.P,A1,12,D9*%
%TO.N,Net-(A1-Pad12)*%
X41910000Y-15240000D03*
%TO.P,A1,13,D10*%
%TO.N,Net-(A1-Pad13)*%
X44450000Y-15240000D03*
%TO.P,A1,14,D11*%
%TO.N,Net-(A1-Pad14)*%
X46990000Y-15240000D03*
%TO.P,A1,15,D12*%
%TO.N,Net-(A1-Pad15)*%
X49530000Y-15240000D03*
%TO.P,A1,16,D13*%
%TO.N,Net-(A1-Pad16)*%
X49530000Y-30480000D03*
%TO.P,A1,17,3V3*%
%TO.N,unconnected-(A1-Pad17)*%
X46990000Y-30480000D03*
%TO.P,A1,18,AREF*%
%TO.N,unconnected-(A1-Pad18)*%
X44450000Y-30480000D03*
%TO.P,A1,19,A0*%
%TO.N,unconnected-(A1-Pad19)*%
X41910000Y-30480000D03*
%TO.P,A1,20,A1*%
%TO.N,unconnected-(A1-Pad20)*%
X39370000Y-30480000D03*
%TO.P,A1,21,A2*%
%TO.N,unconnected-(A1-Pad21)*%
X36830000Y-30480000D03*
%TO.P,A1,22,A3*%
%TO.N,unconnected-(A1-Pad22)*%
X34290000Y-30480000D03*
%TO.P,A1,23,A4*%
%TO.N,unconnected-(A1-Pad23)*%
X31750000Y-30480000D03*
%TO.P,A1,24,A5*%
%TO.N,unconnected-(A1-Pad24)*%
X29210000Y-30480000D03*
%TO.P,A1,25,A6*%
%TO.N,unconnected-(A1-Pad25)*%
X26670000Y-30480000D03*
%TO.P,A1,26,A7*%
%TO.N,unconnected-(A1-Pad26)*%
X24130000Y-30480000D03*
%TO.P,A1,27,+5V*%
%TO.N,unconnected-(A1-Pad27)*%
X21590000Y-30480000D03*
%TO.P,A1,28,~{RESET}*%
%TO.N,unconnected-(A1-Pad28)*%
X19050000Y-30480000D03*
%TO.P,A1,29,GND*%
%TO.N,/GND*%
X16510000Y-30480000D03*
%TO.P,A1,30,VIN*%
%TO.N,Net-(A1-Pad30)*%
X13970000Y-30480000D03*
%TD*%
D13*
%TO.P,D2,1,K*%
%TO.N,/GND*%
X37465000Y-10160000D03*
D12*
%TO.P,D2,2,A*%
%TO.N,Net-(D2-Pad2)*%
X37465000Y-7620000D03*
%TD*%
%TO.P,D1,2,A*%
%TO.N,Net-(D1-Pad2)*%
X46990000Y-7620000D03*
D13*
%TO.P,D1,1,K*%
%TO.N,/GND*%
X46990000Y-10160000D03*
%TD*%
D17*
%TO.N,/GND*%
X3810000Y-12065000D03*
X5715000Y-15875000D03*
%TO.N,Net-(A1-Pad30)*%
X6350000Y-30355011D03*
X6350000Y-27000500D03*
%TD*%
D18*
%TO.N,/GND*%
X5715000Y-13970000D02*
X3810000Y-12065000D01*
X5715000Y-15875000D02*
X5715000Y-13970000D01*
%TO.N,Net-(A1-Pad30)*%
X6350000Y-30355011D02*
X6350000Y-27000500D01*
%TD*%
M02*
