M48
; DRILL file {KiCad 6.0.2+dfsg-1} date Fri 24 Jun 2022 03:46:39 PM EDT
; FORMAT={-:-/ absolute / metric / decimal}
; #@! TF.CreationDate,2022-06-24T15:46:39-04:00
; #@! TF.GenerationSoftware,Kicad,Pcbnew,6.0.2+dfsg-1
; #@! TF.FileFunction,MixedPlating,1,2
FMAT,2
METRIC
; #@! TA.AperFunction,Plated,PTH,ViaDrill
T1C0.800
; #@! TA.AperFunction,Plated,PTH,ComponentDrill
T2C0.800
; #@! TA.AperFunction,Plated,PTH,ComponentDrill
T3C0.900
; #@! TA.AperFunction,Plated,PTH,ComponentDrill
T4C1.000
; #@! TA.AperFunction,NonPlated,NPTH,ComponentDrill
T5C2.200
%
G90
G05
T1
X3.81Y-12.065
X5.715Y-15.875
X6.35Y-26.67
X6.35Y-30.418
T2
X7.62Y-4.445
X7.62Y-12.065
X13.335Y-34.843
X13.335Y-37.343
X13.97Y-4.445
X13.97Y-12.065
X20.32Y-4.445
X20.32Y-12.065
T3
X27.94Y-7.62
X27.94Y-10.16
X37.465Y-7.62
X37.465Y-10.16
X46.99Y-7.62
X46.99Y-10.16
T4
X3.81Y-19.05
X3.81Y-21.59
X3.81Y-24.13
X6.35Y-19.05
X6.35Y-21.59
X6.35Y-24.13
X13.97Y-15.24
X13.97Y-30.48
X16.51Y-15.24
X16.51Y-30.48
X19.05Y-15.24
X19.05Y-30.48
X20.955Y-34.803
X20.955Y-37.343
X21.59Y-15.24
X21.59Y-30.48
X24.13Y-15.24
X24.13Y-30.48
X26.67Y-15.24
X26.67Y-30.48
X29.21Y-15.24
X29.21Y-30.48
X31.75Y-15.24
X31.75Y-30.48
X34.29Y-15.24
X34.29Y-30.48
X36.83Y-15.24
X36.83Y-30.48
X39.37Y-15.24
X39.37Y-30.48
X41.91Y-15.24
X41.91Y-30.48
X44.45Y-15.24
X44.45Y-30.48
X46.99Y-15.24
X46.99Y-30.48
X49.53Y-15.24
X49.53Y-30.48
T5
X3.175Y-3.175
X3.175Y-37.592
X50.8Y-3.175
X50.8Y-37.592
T0
M30
