M48
; DRILL file {KiCad 6.0.2+dfsg-1} date Mon 13 Jun 2022 11:01:15 PM EDT
; FORMAT={-:-/ absolute / metric / decimal}
; #@! TF.CreationDate,2022-06-13T23:01:15-04:00
; #@! TF.GenerationSoftware,Kicad,Pcbnew,6.0.2+dfsg-1
; #@! TF.FileFunction,MixedPlating,1,2
FMAT,2
METRIC
; #@! TA.AperFunction,Plated,PTH,ViaDrill
T1C0.400
; #@! TA.AperFunction,Plated,PTH,ComponentDrill
T2C0.800
; #@! TA.AperFunction,Plated,PTH,ComponentDrill
T3C0.900
; #@! TA.AperFunction,Plated,PTH,ComponentDrill
T4C1.000
; #@! TA.AperFunction,NonPlated,NPTH,ComponentDrill
T5C2.200
%
G90
G05
T1
X45.72Y-15.24
X45.72Y-19.685
X45.72Y-25.4
X45.72Y-30.48
T2
X7.62Y-4.445
X7.62Y-12.065
X13.97Y-4.445
X13.97Y-12.065
X20.32Y-4.445
X20.32Y-12.065
T3
X27.94Y-7.62
X27.94Y-10.16
X37.465Y-7.62
X37.465Y-10.16
X46.99Y-7.62
X46.99Y-10.16
T4
X4.445Y-15.24
X4.445Y-30.48
X6.985Y-15.24
X6.985Y-30.48
X9.525Y-15.24
X9.525Y-30.48
X12.065Y-15.24
X12.065Y-30.48
X14.605Y-15.24
X14.605Y-30.48
X17.145Y-15.24
X17.145Y-30.48
X19.685Y-15.24
X19.685Y-30.48
X22.225Y-15.24
X22.225Y-30.48
X24.765Y-15.24
X24.765Y-30.48
X27.305Y-15.24
X27.305Y-30.48
X29.845Y-15.24
X29.845Y-30.48
X32.385Y-15.24
X32.385Y-30.48
X34.925Y-15.24
X34.925Y-30.48
X37.465Y-15.24
X37.465Y-30.48
X40.005Y-15.24
X40.005Y-30.48
X48.895Y-20.32
X48.895Y-22.86
X48.895Y-25.4
X51.435Y-20.32
X51.435Y-22.86
X51.435Y-25.4
T5
X3.175Y-3.175
X3.175Y-34.925
X50.8Y-3.175
X50.8Y-34.925
T0
M30
